TwilioSansMono-ExtraBold.ufo
<glyph name="exclam" format="2">
	<unicode hex="0021"/>
	<advance width="600"/>
	<outline>
		<contour>
			<point x="239" y="241" type="line"/>
			<point x="359" y="241" type="line"/>
			<point x="391" y="565" type="line"/>
			<point x="391" y="684" type="line"/>
			<point x="208" y="684" type="line"/>
			<point x="208" y="565" type="line"/>
		</contour>
		<contour>
			<point x="301" y="-12" type="curve" smooth="yes"/>
			<point x="369" y="-12"/>
			<point x="403" y="13"/>
			<point x="403" y="81" type="curve" smooth="yes"/>
			<point x="403" y="146"/>
			<point x="369" y="173"/>
			<point x="301" y="173" type="curve" smooth="yes"/>
			<point x="231" y="173"/>
			<point x="197" y="146"/>
			<point x="197" y="81" type="curve" smooth="yes"/>
			<point x="197" y="13"/>
			<point x="231" y="-12"/>
		</contour>
	</outline>
</glyph>
<glyph name="percent" format="2">
	<unicode hex="0025"/>
	<advance width="600"/>
	<outline>
		<contour>
			<point x="167" y="338" type="curve" smooth="yes"/>
			<point x="259" y="338"/>
			<point x="316" y="399"/>
			<point x="316" y="517" type="curve" smooth="yes"/>
			<point x="316" y="635"/>
			<point x="259" y="696"/>
			<point x="167" y="696" type="curve" smooth="yes"/>
			<point x="74" y="696"/>
			<point x="18" y="635"/>
			<point x="18" y="517" type="curve" smooth="yes"/>
			<point x="18" y="399"/>
			<point x="75" y="338"/>
		</contour>
		<contour>
			<point x="371" y="410" type="line"/>
			<point x="486" y="410" type="line"/>
			<point x="578" y="684" type="line"/>
			<point x="438" y="684" type="line"/>
		</contour>
		<contour>
			<point x="167" y="416" type="curve" smooth="yes"/>
			<point x="136" y="416"/>
			<point x="121" y="441"/>
			<point x="121" y="517" type="curve" smooth="yes"/>
			<point x="121" y="593"/>
			<point x="135" y="618"/>
			<point x="167" y="618" type="curve" smooth="yes"/>
			<point x="198" y="618"/>
			<point x="213" y="593"/>
			<point x="213" y="517" type="curve" smooth="yes"/>
			<point x="213" y="441"/>
			<point x="198" y="416"/>
		</contour>
		<contour>
			<point x="433" y="-12" type="curve" smooth="yes"/>
			<point x="529" y="-12"/>
			<point x="582" y="46"/>
			<point x="582" y="167" type="curve" smooth="yes"/>
			<point x="582" y="285"/>
			<point x="525" y="346"/>
			<point x="434" y="346" type="curve" smooth="yes"/>
			<point x="341" y="346"/>
			<point x="284" y="286"/>
			<point x="284" y="167" type="curve" smooth="yes"/>
			<point x="284" y="47"/>
			<point x="336" y="-12"/>
		</contour>
		<contour>
			<point x="22" y="0" type="line"/>
			<point x="162" y="0" type="line"/>
			<point x="230" y="275" type="line"/>
			<point x="114" y="275" type="line"/>
		</contour>
		<contour>
			<point x="434" y="66" type="curve" smooth="yes"/>
			<point x="402" y="66"/>
			<point x="387" y="88"/>
			<point x="387" y="167" type="curve" smooth="yes"/>
			<point x="387" y="245"/>
			<point x="402" y="268"/>
			<point x="434" y="268" type="curve" smooth="yes"/>
			<point x="464" y="268"/>
			<point x="479" y="243"/>
			<point x="479" y="167" type="curve" smooth="yes"/>
			<point x="479" y="89"/>
			<point x="465" y="66"/>
		</contour>
	</outline>
</glyph>
<glyph name="parenleft" format="2">
	<unicode hex="0028"/>
	<advance width="600"/>
	<outline>
		<contour>
			<point x="473" y="-168" type="curve"/>
			<point x="520" y="-35" type="line"/>
			<point x="342" y="26"/>
			<point x="289" y="135"/>
			<point x="289" y="314" type="curve" smooth="yes"/>
			<point x="289" y="493"/>
			<point x="341" y="613"/>
			<point x="520" y="664" type="curve"/>
			<point x="473" y="798" type="line"/>
			<point x="231" y="722"/>
			<point x="136" y="567"/>
			<point x="136" y="316" type="curve" smooth="yes"/>
			<point x="136" y="61"/>
			<point x="224" y="-91"/>
		</contour>
	</outline>
</glyph>
<glyph name="asterisk" format="2">
	<unicode hex="002A"/>
	<advance width="600"/>
	<outline>
		<contour>
			<point x="476" y="129" type="line"/>
			<point x="555" y="265" type="line"/>
			<point x="373" y="321" type="line"/>
			<point x="556" y="377" type="line"/>
			<point x="477" y="514" type="line"/>
			<point x="337" y="384" type="line"/>
			<point x="379" y="570" type="line"/>
			<point x="222" y="570" type="line"/>
			<point x="265" y="383" type="line"/>
			<point x="124" y="514" type="line"/>
			<point x="45" y="378" type="line"/>
			<point x="228" y="321" type="line"/>
			<point x="45" y="266" type="line"/>
			<point x="124" y="129" type="line"/>
			<point x="265" y="259" type="line"/>
			<point x="222" y="72" type="line"/>
			<point x="379" y="72" type="line"/>
			<point x="337" y="258" type="line"/>
		</contour>
	</outline>
</glyph>
<glyph name="period" format="2">
	<unicode hex="002E"/>
	<advance width="600"/>
	<outline>
		<contour>
			<point x="300" y="-12" type="curve" smooth="yes"/>
			<point x="374" y="-12"/>
			<point x="413" y="16"/>
			<point x="413" y="90" type="curve" smooth="yes"/>
			<point x="413" y="164"/>
			<point x="374" y="191"/>
			<point x="300" y="191" type="curve" smooth="yes"/>
			<point x="226" y="191"/>
			<point x="187" y="164"/>
			<point x="187" y="90" type="curve" smooth="yes"/>
			<point x="187" y="16"/>
			<point x="226" y="-12"/>
		</contour>
	</outline>
</glyph>
<glyph name="zero" format="2">
	<unicode hex="0030"/>
	<advance width="600"/>
	<outline>
		<contour>
			<point x="300" y="-14" type="curve" smooth="yes"/>
			<point x="469" y="-14"/>
			<point x="561" y="103"/>
			<point x="561" y="335" type="curve" smooth="yes"/>
			<point x="561" y="349" type="line" smooth="yes"/>
			<point x="561" y="580"/>
			<point x="469" y="698"/>
			<point x="300" y="698" type="curve" smooth="yes"/>
			<point x="131" y="698"/>
			<point x="39" y="580"/>
			<point x="39" y="349" type="curve" smooth="yes"/>
			<point x="39" y="335" type="line" smooth="yes"/>
			<point x="39" y="103"/>
			<point x="131" y="-14"/>
		</contour>
		<contour>
			<point x="300" y="123" type="curve" smooth="yes"/>
			<point x="230" y="123"/>
			<point x="192" y="170"/>
			<point x="192" y="338" type="curve" smooth="yes"/>
			<point x="192" y="345" type="line" smooth="yes"/>
			<point x="192" y="514"/>
			<point x="230" y="561"/>
			<point x="300" y="561" type="curve" smooth="yes"/>
			<point x="370" y="561"/>
			<point x="408" y="514"/>
			<point x="408" y="345" type="curve" smooth="yes"/>
			<point x="408" y="338" type="line" smooth="yes"/>
			<point x="408" y="170"/>
			<point x="370" y="123"/>
		</contour>
		<contour>
			<point x="300" y="252" type="curve" smooth="yes"/>
			<point x="344" y="252"/>
			<point x="368" y="277"/>
			<point x="368" y="342" type="curve" smooth="yes"/>
			<point x="368" y="408"/>
			<point x="344" y="433"/>
			<point x="300" y="433" type="curve" smooth="yes"/>
			<point x="256" y="433"/>
			<point x="232" y="407"/>
			<point x="232" y="342" type="curve" smooth="yes"/>
			<point x="232" y="277"/>
			<point x="256" y="252"/>
		</contour>
	</outline>
</glyph>
<glyph name="one" format="2">
	<unicode hex="0031"/>
	<advance width="600"/>
	<outline>
		<contour>
			<point x="49" y="0" type="line"/>
			<point x="572" y="0" type="line"/>
			<point x="572" y="148" type="line"/>
			<point x="409" y="148" type="line"/>
			<point x="409" y="684" type="line"/>
			<point x="240" y="684" type="line"/>
			<point x="57" y="540" type="line"/>
			<point x="57" y="375" type="line"/>
			<point x="240" y="516" type="line"/>
			<point x="240" y="148" type="line"/>
			<point x="49" y="148" type="line"/>
		</contour>
	</outline>
</glyph>
<glyph name="eight" format="2">
	<unicode hex="0038"/>
	<advance width="600"/>
	<outline>
		<contour>
			<point x="300" y="-14" type="curve" smooth="yes"/>
			<point x="464" y="-14"/>
			<point x="566" y="47"/>
			<point x="566" y="182" type="curve" smooth="yes"/>
			<point x="566" y="282"/>
			<point x="506" y="330"/>
			<point x="430" y="349" type="curve"/>
			<point x="504" y="366"/>
			<point x="556" y="427"/>
			<point x="556" y="508" type="curve" smooth="yes"/>
			<point x="556" y="646"/>
			<point x="451" y="698"/>
			<point x="301" y="698" type="curve" smooth="yes"/>
			<point x="149" y="698"/>
			<point x="45" y="641"/>
			<point x="45" y="507" type="curve" smooth="yes"/>
			<point x="45" y="424"/>
			<point x="98" y="364"/>
			<point x="177" y="350" type="curve"/>
			<point x="96" y="332"/>
			<point x="34" y="283"/>
			<point x="34" y="178" type="curve" smooth="yes"/>
			<point x="34" y="44"/>
			<point x="135" y="-14"/>
		</contour>
		<contour>
			<point x="301" y="403" type="curve" smooth="yes"/>
			<point x="248" y="403"/>
			<point x="209" y="426"/>
			<point x="209" y="488" type="curve" smooth="yes"/>
			<point x="209" y="551"/>
			<point x="248" y="572"/>
			<point x="300" y="572" type="curve" smooth="yes"/>
			<point x="353" y="572"/>
			<point x="392" y="551"/>
			<point x="392" y="488" type="curve" smooth="yes"/>
			<point x="392" y="426"/>
			<point x="353" y="403"/>
		</contour>
		<contour>
			<point x="300" y="114" type="curve" smooth="yes"/>
			<point x="243" y="114"/>
			<point x="203" y="139"/>
			<point x="203" y="207" type="curve" smooth="yes"/>
			<point x="203" y="270"/>
			<point x="244" y="294"/>
			<point x="300" y="294" type="curve" smooth="yes"/>
			<point x="357" y="294"/>
			<point x="397" y="270"/>
			<point x="397" y="207" type="curve" smooth="yes"/>
			<point x="397" y="139"/>
			<point x="356" y="114"/>
		</contour>
	</outline>
</glyph>
<glyph name="less" format="2">
	<unicode hex="003C"/>
	<advance width="600"/>
	<outline>
		<contour>
			<point x="538" y="9" type="line"/>
			<point x="538" y="167" type="line"/>
			<point x="199" y="294" type="line"/>
			<point x="538" y="419" type="line"/>
			<point x="538" y="578" type="line"/>
			<point x="62" y="384" type="line"/>
			<point x="62" y="201" type="line"/>
		</contour>
	</outline>
</glyph>
<glyph name="question" format="2">
	<unicode hex="003F"/>
	<advance width="600"/>
	<outline>
		<contour>
			<point x="197" y="241" type="curve"/>
			<point x="345" y="241" type="line"/>
			<point x="345" y="263" type="line" smooth="yes"/>
			<point x="346" y="339"/>
			<point x="521" y="363"/>
			<point x="521" y="526" type="curve" smooth="yes"/>
			<point x="521" y="621"/>
			<point x="450" y="698"/>
			<point x="301" y="698" type="curve" smooth="yes"/>
			<point x="209" y="698"/>
			<point x="134" y="668"/>
			<point x="91" y="643" type="curve"/>
			<point x="91" y="500" type="line"/>
			<point x="133" y="527"/>
			<point x="194" y="555"/>
			<point x="261" y="555" type="curve" smooth="yes"/>
			<point x="327" y="555"/>
			<point x="353" y="526"/>
			<point x="353" y="495" type="curve" smooth="yes"/>
			<point x="353" y="414"/>
			<point x="191" y="403"/>
			<point x="191" y="277" type="curve" smooth="yes"/>
			<point x="191" y="263"/>
			<point x="193" y="254"/>
		</contour>
		<contour>
			<point x="270" y="-12" type="curve" smooth="yes"/>
			<point x="338" y="-12"/>
			<point x="373" y="13"/>
			<point x="373" y="81" type="curve" smooth="yes"/>
			<point x="373" y="146"/>
			<point x="339" y="173"/>
			<point x="270" y="173" type="curve" smooth="yes"/>
			<point x="200" y="173"/>
			<point x="166" y="146"/>
			<point x="166" y="81" type="curve" smooth="yes"/>
			<point x="166" y="13"/>
			<point x="201" y="-12"/>
		</contour>
	</outline>
</glyph>
<glyph name="at" format="2">
	<unicode hex="0040"/>
	<advance width="600"/>
	<outline>
		<contour>
			<point x="371" y="-135" type="curve" smooth="yes"/>
			<point x="457" y="-135"/>
			<point x="519" y="-113"/>
			<point x="559" y="-92" type="curve"/>
			<point x="559" y="17" type="line"/>
			<point x="513" y="-6"/>
			<point x="456" y="-21"/>
			<point x="375" y="-21" type="curve" smooth="yes"/>
			<point x="200" y="-21"/>
			<point x="148" y="95"/>
			<point x="148" y="274" type="curve" smooth="yes"/>
			<point x="148" y="281" type="line" smooth="yes"/>
			<point x="148" y="488"/>
			<point x="192" y="584"/>
			<point x="313" y="584" type="curve" smooth="yes"/>
			<point x="399" y="584"/>
			<point x="432" y="542"/>
			<point x="432" y="450" type="curve" smooth="yes"/>
			<point x="432" y="400" type="line"/>
			<point x="414" y="454"/>
			<point x="378" y="491"/>
			<point x="326" y="491" type="curve" smooth="yes"/>
			<point x="249" y="491"/>
			<point x="193" y="417"/>
			<point x="193" y="274" type="curve" smooth="yes"/>
			<point x="193" y="143"/>
			<point x="235" y="61"/>
			<point x="323" y="61" type="curve" smooth="yes"/>
			<point x="378" y="61"/>
			<point x="414" y="102"/>
			<point x="432" y="156" type="curve"/>
			<point x="432" y="66" type="line"/>
			<point x="559" y="66" type="line"/>
			<point x="559" y="460" type="line" smooth="yes"/>
			<point x="559" y="623"/>
			<point x="488" y="698"/>
			<point x="318" y="698" type="curve" smooth="yes"/>
			<point x="122" y="698"/>
			<point x="25" y="553"/>
			<point x="25" y="285" type="curve" smooth="yes"/>
			<point x="25" y="271" type="line" smooth="yes"/>
			<point x="25" y="-6"/>
			<point x="140" y="-135"/>
		</contour>
		<contour>
			<point x="377" y="164" type="curve" smooth="yes"/>
			<point x="340" y="164"/>
			<point x="320" y="197"/>
			<point x="320" y="276" type="curve" smooth="yes"/>
			<point x="320" y="355"/>
			<point x="340" y="388"/>
			<point x="377" y="388" type="curve" smooth="yes"/>
			<point x="414" y="388"/>
			<point x="436" y="348"/>
			<point x="436" y="273" type="curve" smooth="yes"/>
			<point x="436" y="190"/>
			<point x="413" y="164"/>
		</contour>
	</outline>
</glyph>
<glyph name="A" format="2">
	<unicode hex="0041"/>
	<advance width="600"/>
	<outline>
		<contour>
			<point x="6" y="0" type="line"/>
			<point x="179" y="0" type="line"/>
			<point x="207" y="129" type="line"/>
			<point x="392" y="129" type="line"/>
			<point x="420" y="0" type="line"/>
			<point x="594" y="0" type="line"/>
			<point x="422" y="685" type="line"/>
			<point x="179" y="685" type="line"/>
		</contour>
		<contour>
			<point x="236" y="266" type="line"/>
			<point x="299" y="562" type="line"/>
			<point x="363" y="266" type="line"/>
		</contour>
	</outline>
	<anchor name="ogonek" x="593" y="0"/>
	<anchor name="bottom" x="348" y="0"/>
	<anchor name="top" x="300" y="684"/>
</glyph>
<glyph name="C" format="2">
	<unicode hex="0043"/>
	<advance width="600"/>
	<outline>
		<contour>
			<point x="382" y="-12" type="curve" smooth="yes"/>
			<point x="450" y="-12"/>
			<point x="507" y="2"/>
			<point x="551" y="28" type="curve"/>
			<point x="551" y="161" type="line"/>
			<point x="507" y="138"/>
			<point x="452" y="129"/>
			<point x="405" y="129" type="curve" smooth="yes"/>
			<point x="293" y="129"/>
			<point x="218" y="192"/>
			<point x="218" y="339" type="curve" smooth="yes"/>
			<point x="218" y="346" type="line" smooth="yes"/>
			<point x="218" y="495"/>
			<point x="292" y="556"/>
			<point x="415" y="556" type="curve" smooth="yes"/>
			<point x="469" y="556"/>
			<point x="510" y="546"/>
			<point x="551" y="526" type="curve"/>
			<point x="551" y="666" type="line"/>
			<point x="510" y="684"/>
			<point x="456" y="696"/>
			<point x="385" y="696" type="curve" smooth="yes"/>
			<point x="189" y="696"/>
			<point x="42" y="576"/>
			<point x="42" y="350" type="curve" smooth="yes"/>
			<point x="42" y="336" type="line" smooth="yes"/>
			<point x="42" y="109"/>
			<point x="170" y="-12"/>
		</contour>
	</outline>
	<anchor name="top" x="373" y="684"/>
	<anchor name="bottom" x="362" y="0"/>
</glyph>
<glyph name="G" format="2">
	<unicode hex="0047"/>
	<advance width="600"/>
	<outline>
		<contour>
			<point x="302" y="-14" type="curve" smooth="yes"/>
			<point x="459" y="-14"/>
			<point x="572" y="81"/>
			<point x="572" y="300" type="curve" smooth="yes"/>
			<point x="572" y="406" type="line"/>
			<point x="289" y="406" type="line"/>
			<point x="289" y="273" type="line"/>
			<point x="402" y="273" type="line"/>
			<point x="402" y="272" type="line" smooth="yes"/>
			<point x="402" y="165"/>
			<point x="364" y="123"/>
			<point x="306" y="123" type="curve" smooth="yes"/>
			<point x="235" y="123"/>
			<point x="196" y="170"/>
			<point x="196" y="331" type="curve" smooth="yes"/>
			<point x="196" y="338" type="line" smooth="yes"/>
			<point x="196" y="496"/>
			<point x="236" y="561"/>
			<point x="352" y="561" type="curve" smooth="yes"/>
			<point x="415" y="561"/>
			<point x="476" y="541"/>
			<point x="525" y="510" type="curve"/>
			<point x="525" y="653" type="line"/>
			<point x="484" y="678"/>
			<point x="412" y="698"/>
			<point x="335" y="698" type="curve" smooth="yes"/>
			<point x="122" y="698"/>
			<point x="23" y="562"/>
			<point x="23" y="341" type="curve" smooth="yes"/>
			<point x="23" y="327" type="line" smooth="yes"/>
			<point x="23" y="96"/>
			<point x="119" y="-14"/>
		</contour>
	</outline>
	<anchor name="top" x="321" y="684"/>
	<anchor name="bottom" x="303" y="0"/>
</glyph>
<glyph name="H" format="2">
	<unicode hex="0048"/>
	<advance width="600"/>
	<outline>
		<contour>
			<point x="51" y="0" type="line"/>
			<point x="220" y="0" type="line"/>
			<point x="220" y="279" type="line"/>
			<point x="380" y="279" type="line"/>
			<point x="380" y="0" type="line"/>
			<point x="549" y="0" type="line"/>
			<point x="549" y="684" type="line"/>
			<point x="380" y="684" type="line"/>
			<point x="380" y="418" type="line"/>
			<point x="220" y="418" type="line"/>
			<point x="220" y="684" type="line"/>
			<point x="51" y="684" type="line"/>
		</contour>
	</outline>
	<anchor name="center" x="300" y="539"/>
	<anchor name="bottom" x="297" y="0"/>
	<anchor name="top" x="300" y="684"/>
</glyph>
<glyph name="I" format="2">
	<unicode hex="0049"/>
	<advance width="600"/>
	<outline>
		<contour>
			<point x="65" y="0" type="line"/>
			<point x="535" y="0" type="line"/>
			<point x="535" y="132" type="line"/>
			<point x="385" y="132" type="line"/>
			<point x="385" y="553" type="line"/>
			<point x="535" y="553" type="line"/>
			<point x="535" y="684" type="line"/>
			<point x="65" y="684" type="line"/>
			<point x="65" y="553" type="line"/>
			<point x="215" y="553" type="line"/>
			<point x="215" y="132" type="line"/>
			<point x="65" y="132" type="line"/>
		</contour>
	</outline>
	<anchor name="ogonek" x="535" y="0"/>
	<anchor name="bottom" x="301" y="0"/>
	<anchor name="top" x="300" y="684"/>
</glyph>
<glyph name="L" format="2">
	<unicode hex="004C"/>
	<advance width="600"/>
	<outline>
		<contour>
			<point x="79" y="0" type="line"/>
			<point x="559" y="0" type="line"/>
			<point x="559" y="155" type="line"/>
			<point x="249" y="155" type="line"/>
			<point x="249" y="684" type="line"/>
			<point x="79" y="684" type="line"/>
		</contour>
	</outline>
	<anchor name="bottom" x="327" y="0"/>
	<anchor name="caron" x="343" y="684"/>
	<anchor name="top" x="164" y="684"/>
	<anchor name="center" x="168" y="345"/>
</glyph>
<glyph name="M" format="2">
	<unicode hex="004D"/>
	<advance width="600"/>
	<outline>
		<contour>
			<point x="31" y="0" type="line"/>
			<point x="173" y="0" type="line"/>
			<point x="173" y="178" type="line" smooth="yes"/>
			<point x="173" y="302"/>
			<point x="164" y="408"/>
			<point x="151" y="511" type="curve"/>
			<point x="160" y="511" type="line"/>
			<point x="238" y="154" type="line"/>
			<point x="362" y="154" type="line"/>
			<point x="438" y="511" type="line"/>
			<point x="450" y="511" type="line"/>
			<point x="434" y="403"/>
			<point x="427" y="299"/>
			<point x="427" y="179" type="curve" smooth="yes"/>
			<point x="427" y="0" type="line"/>
			<point x="569" y="0" type="line"/>
			<point x="569" y="684" type="line"/>
			<point x="367" y="684" type="line"/>
			<point x="303" y="324" type="line"/>
			<point x="297" y="324" type="line"/>
			<point x="232" y="684" type="line"/>
			<point x="31" y="684" type="line"/>
		</contour>
	</outline>
</glyph>
<glyph name="N" format="2">
	<unicode hex="004E"/>
	<advance width="600"/>
	<outline>
		<contour>
			<point x="50" y="0" type="line"/>
			<point x="196" y="0" type="line"/>
			<point x="196" y="224" type="line" smooth="yes"/>
			<point x="196" y="309"/>
			<point x="184" y="390"/>
			<point x="171" y="489" type="curve"/>
			<point x="180" y="489" type="line"/>
			<point x="354" y="0" type="line"/>
			<point x="550" y="0" type="line"/>
			<point x="550" y="684" type="line"/>
			<point x="404" y="684" type="line"/>
			<point x="404" y="460" type="line" smooth="yes"/>
			<point x="404" y="358"/>
			<point x="414" y="294"/>
			<point x="430" y="195" type="curve"/>
			<point x="420" y="195" type="line"/>
			<point x="246" y="684" type="line"/>
			<point x="50" y="684" type="line"/>
		</contour>
	</outline>
	<anchor name="top" x="318" y="684"/>
	<anchor name="bottom" x="270" y="0"/>
</glyph>
<glyph name="O" format="2">
	<unicode hex="004F"/>
	<advance width="600"/>
	<outline>
		<contour>
			<point x="300" y="-14" type="curve" smooth="yes"/>
			<point x="469" y="-14"/>
			<point x="561" y="103"/>
			<point x="561" y="335" type="curve" smooth="yes"/>
			<point x="561" y="349" type="line" smooth="yes"/>
			<point x="561" y="581"/>
			<point x="469" y="698"/>
			<point x="300" y="698" type="curve" smooth="yes"/>
			<point x="131" y="698"/>
			<point x="39" y="581"/>
			<point x="39" y="349" type="curve" smooth="yes"/>
			<point x="39" y="335" type="line" smooth="yes"/>
			<point x="39" y="103"/>
			<point x="131" y="-14"/>
		</contour>
		<contour>
			<point x="300" y="123" type="curve" smooth="yes"/>
			<point x="242" y="123"/>
			<point x="209" y="171"/>
			<point x="209" y="338" type="curve" smooth="yes"/>
			<point x="209" y="345" type="line" smooth="yes"/>
			<point x="209" y="514"/>
			<point x="242" y="561"/>
			<point x="300" y="561" type="curve" smooth="yes"/>
			<point x="358" y="561"/>
			<point x="391" y="514"/>
			<point x="391" y="345" type="curve" smooth="yes"/>
			<point x="391" y="338" type="line" smooth="yes"/>
			<point x="391" y="171"/>
			<point x="358" y="123"/>
		</contour>
	</outline>
	<anchor name="center" x="302" y="344"/>
	<anchor name="bottom" x="301" y="0"/>
	<anchor name="top" x="301" y="684"/>
</glyph>
<glyph name="P" format="2">
	<unicode hex="0050"/>
	<advance width="600"/>
	<outline>
		<contour>
			<point x="60" y="0" type="line"/>
			<point x="229" y="0" type="line"/>
			<point x="229" y="194" type="line"/>
			<point x="344" y="194" type="line" smooth="yes"/>
			<point x="494" y="194"/>
			<point x="584" y="291"/>
			<point x="584" y="443" type="curve" smooth="yes"/>
			<point x="584" y="593"/>
			<point x="493" y="684"/>
			<point x="344" y="684" type="curve" smooth="yes"/>
			<point x="60" y="684" type="line"/>
		</contour>
		<contour>
			<point x="312" y="549" type="line" smooth="yes"/>
			<point x="386" y="549"/>
			<point x="414" y="505"/>
			<point x="414" y="442" type="curve" smooth="yes"/>
			<point x="414" y="376"/>
			<point x="386" y="329"/>
			<point x="312" y="329" type="curve" smooth="yes"/>
			<point x="229" y="329" type="line"/>
			<point x="229" y="549" type="line"/>
		</contour>
	</outline>
	<anchor name="top" x="331" y="684"/>
	<anchor name="bottom" x="177" y="0"/>
</glyph>
<glyph name="R" format="2">
	<unicode hex="0052"/>
	<advance width="600"/>
	<outline>
		<contour>
			<point x="53" y="0" type="line"/>
			<point x="222" y="0" type="line"/>
			<point x="222" y="228" type="line"/>
			<point x="284" y="228" type="line" smooth="yes"/>
			<point x="328" y="228"/>
			<point x="348" y="213"/>
			<point x="359" y="170" type="curve" smooth="yes"/>
			<point x="401" y="0" type="line"/>
			<point x="583" y="0" type="line"/>
			<point x="523" y="209" type="line" smooth="yes"/>
			<point x="508" y="264"/>
			<point x="472" y="293"/>
			<point x="413" y="300" type="curve"/>
			<point x="509" y="316"/>
			<point x="566" y="385"/>
			<point x="566" y="482" type="curve" smooth="yes"/>
			<point x="566" y="602"/>
			<point x="493" y="684"/>
			<point x="344" y="684" type="curve" smooth="yes"/>
			<point x="53" y="684" type="line"/>
		</contour>
		<contour>
			<point x="305" y="551" type="line" smooth="yes"/>
			<point x="369" y="551"/>
			<point x="396" y="512"/>
			<point x="396" y="458" type="curve" smooth="yes"/>
			<point x="396" y="401"/>
			<point x="369" y="360"/>
			<point x="305" y="360" type="curve" smooth="yes"/>
			<point x="222" y="360" type="line"/>
			<point x="222" y="551" type="line"/>
		</contour>
	</outline>
	<anchor name="top" x="290" y="684"/>
	<anchor name="bottom" x="315" y="0"/>
</glyph>
<glyph name="S" format="2">
	<unicode hex="0053"/>
	<advance width="600"/>
	<outline>
		<contour>
			<point x="305" y="-14" type="curve" smooth="yes"/>
			<point x="459" y="-14"/>
			<point x="560" y="63"/>
			<point x="560" y="220" type="curve" smooth="yes"/>
			<point x="560" y="366"/>
			<point x="454" y="399"/>
			<point x="321" y="424" type="curve" smooth="yes"/>
			<point x="247" y="437"/>
			<point x="211" y="451"/>
			<point x="211" y="497" type="curve" smooth="yes"/>
			<point x="211" y="543"/>
			<point x="247" y="563"/>
			<point x="299" y="563" type="curve" smooth="yes"/>
			<point x="381" y="563"/>
			<point x="478" y="536"/>
			<point x="541" y="495" type="curve"/>
			<point x="541" y="642" type="line"/>
			<point x="489" y="673"/>
			<point x="392" y="698"/>
			<point x="303" y="698" type="curve" smooth="yes"/>
			<point x="147" y="698"/>
			<point x="42" y="620"/>
			<point x="42" y="473" type="curve" smooth="yes"/>
			<point x="42" y="319"/>
			<point x="139" y="291"/>
			<point x="282" y="265" type="curve" smooth="yes"/>
			<point x="350" y="253"/>
			<point x="391" y="240"/>
			<point x="391" y="192" type="curve" smooth="yes"/>
			<point x="391" y="147"/>
			<point x="358" y="124"/>
			<point x="303" y="124" type="curve" smooth="yes"/>
			<point x="230" y="124"/>
			<point x="136" y="150"/>
			<point x="52" y="206" type="curve"/>
			<point x="52" y="53" type="line"/>
			<point x="113" y="17"/>
			<point x="193" y="-14"/>
		</contour>
	</outline>
	<anchor name="top" x="309" y="684"/>
	<anchor name="bottom" x="305" y="0"/>
</glyph>
<glyph name="V" format="2">
	<unicode hex="0056"/>
	<advance width="600"/>
	<outline>
		<contour>
			<point x="175" y="-1" type="line"/>
			<point x="423" y="-1" type="line"/>
			<point x="592" y="684" type="line"/>
			<point x="417" y="684" type="line"/>
			<point x="300" y="153" type="line"/>
			<point x="183" y="684" type="line"/>
			<point x="8" y="684" type="line"/>
		</contour>
	</outline>
	<anchor name="overlap" x="315" y="684"/>
	<anchor name="ogonek" x="609" y="0"/>
	<anchor name="top" x="314" y="684"/>
	<anchor name="bottom" x="318" y="0"/>
</glyph>
<glyph name="bracketleft" format="2">
	<unicode hex="005B"/>
	<advance width="600"/>
	<outline>
		<contour>
			<point x="509" y="-44" type="line"/>
			<point x="313" y="-44" type="line"/>
			<point x="313" y="673" type="line"/>
			<point x="509" y="673" type="line"/>
			<point x="509" y="792" type="line"/>
			<point x="158" y="792" type="line"/>
			<point x="158" y="-163" type="line"/>
			<point x="509" y="-163" type="line"/>
		</contour>
	</outline>
</glyph>
<glyph name="bracketright" format="2">
	<unicode hex="005D"/>
	<advance width="600"/>
	<outline>
		<contour>
			<point x="91" y="-163" type="line"/>
			<point x="442" y="-163" type="line"/>
			<point x="442" y="792" type="line"/>
			<point x="91" y="792" type="line"/>
			<point x="91" y="673" type="line"/>
			<point x="287" y="673" type="line"/>
			<point x="287" y="-44" type="line"/>
			<point x="91" y="-44" type="line"/>
		</contour>
	</outline>
</glyph>
<glyph name="asciicircum" format="2">
	<unicode hex="005E"/>
	<advance width="600"/>
	<outline>
		<contour>
			<point x="53" y="233" type="line"/>
			<point x="195" y="233" type="line"/>
			<point x="299" y="462" type="line"/>
			<point x="404" y="233" type="line"/>
			<point x="547" y="233" type="line"/>
			<point x="373" y="587" type="line"/>
			<point x="224" y="587" type="line"/>
		</contour>
	</outline>
</glyph>
<glyph name="underscore" format="2">
	<unicode hex="005F"/>
	<advance width="600"/>
	<outline>
		<contour>
			<point x="30" y="-66" type="line"/>
			<point x="30" y="-187" type="line"/>
			<point x="570" y="-187" type="line"/>
			<point x="570" y="-66" type="line"/>
		</contour>
	</outline>
</glyph>
<glyph name="grave" format="2">
	<unicode hex="0060"/>
	<advance width="600"/>
	<outline>
		<contour>
			<point x="165" y="750" type="line"/>
			<point x="269" y="599" type="line"/>
			<point x="393" y="599" type="line"/>
			<point x="344" y="750" type="line"/>
		</contour>
	</outline>
	<anchor name="_top" x="328" y="523"/>
</glyph>
<glyph name="c" format="2">
	<unicode hex="0063"/>
	<advance width="600"/>
	<outline>
		<contour>
			<point x="367" y="-12" type="curve" smooth="yes"/>
			<point x="442" y="-12"/>
			<point x="491" y="5"/>
			<point x="520" y="21" type="curve"/>
			<point x="520" y="146" type="line"/>
			<point x="492" y="133"/>
			<point x="448" y="119"/>
			<point x="397" y="119" type="curve" smooth="yes"/>
			<point x="306" y="119"/>
			<point x="247" y="162"/>
			<point x="247" y="259" type="curve" smooth="yes"/>
			<point x="247" y="266" type="line" smooth="yes"/>
			<point x="247" y="362"/>
			<point x="304" y="404"/>
			<point x="398" y="404" type="curve" smooth="yes"/>
			<point x="446" y="404"/>
			<point x="490" y="394"/>
			<point x="520" y="377" type="curve"/>
			<point x="520" y="504" type="line"/>
			<point x="489" y="521"/>
			<point x="434" y="535"/>
			<point x="371" y="535" type="curve" smooth="yes"/>
			<point x="191" y="535"/>
			<point x="77" y="431"/>
			<point x="77" y="268" type="curve" smooth="yes"/>
			<point x="77" y="255" type="line" smooth="yes"/>
			<point x="77" y="90"/>
			<point x="178" y="-12"/>
		</contour>
	</outline>
	<anchor name="top" x="370" y="523"/>
	<anchor name="bottom" x="353" y="0"/>
</glyph>
<glyph name="e" format="2">
	<unicode hex="0065"/>
	<advance width="600"/>
	<outline>
		<contour>
			<point x="338" y="-14" type="curve" smooth="yes"/>
			<point x="410" y="-14"/>
			<point x="478" y="0"/>
			<point x="529" y="26" type="curve"/>
			<point x="529" y="146" type="line"/>
			<point x="483" y="129"/>
			<point x="428" y="118"/>
			<point x="377" y="118" type="curve" smooth="yes"/>
			<point x="278" y="118"/>
			<point x="220" y="156"/>
			<point x="212" y="219" type="curve"/>
			<point x="554" y="219" type="line"/>
			<point x="554" y="282" type="line" smooth="yes"/>
			<point x="554" y="449"/>
			<point x="461" y="537"/>
			<point x="305" y="537" type="curve" smooth="yes"/>
			<point x="155" y="537"/>
			<point x="47" y="434"/>
			<point x="47" y="269" type="curve" smooth="yes"/>
			<point x="47" y="255" type="line" smooth="yes"/>
			<point x="47" y="74"/>
			<point x="158" y="-14"/>
		</contour>
		<contour>
			<point x="305" y="422" type="curve" smooth="yes"/>
			<point x="359" y="422"/>
			<point x="391" y="384"/>
			<point x="395" y="313" type="curve"/>
			<point x="209" y="313" type="line"/>
			<point x="213" y="376"/>
			<point x="245" y="422"/>
		</contour>
	</outline>
	<anchor name="ogonek" x="459" y="0"/>
	<anchor name="top" x="305" y="523"/>
</glyph>
<glyph name="g" format="2">
	<unicode hex="0067"/>
	<advance width="600"/>
	<outline>
		<contour>
			<point x="240" y="-210" type="curve" smooth="yes"/>
			<point x="260" y="-210" type="line" smooth="yes"/>
			<point x="466" y="-210"/>
			<point x="575" y="-130"/>
			<point x="575" y="-14" type="curve" smooth="yes"/>
			<point x="575" y="80"/>
			<point x="509" y="108"/>
			<point x="389" y="108" type="curve" smooth="yes"/>
			<point x="252" y="108" type="line" smooth="yes"/>
			<point x="212" y="108"/>
			<point x="192" y="113"/>
			<point x="192" y="129" type="curve" smooth="yes"/>
			<point x="192" y="152"/>
			<point x="228" y="165"/>
			<point x="256" y="165" type="curve" smooth="yes"/>
			<point x="282" y="165" type="line" smooth="yes"/>
			<point x="409" y="165"/>
			<point x="514" y="228"/>
			<point x="514" y="349" type="curve" smooth="yes"/>
			<point x="514" y="365"/>
			<point x="511" y="382"/>
			<point x="505" y="394" type="curve"/>
			<point x="587" y="394" type="line"/>
			<point x="587" y="523" type="line"/>
			<point x="282" y="523" type="line" smooth="yes"/>
			<point x="158" y="523"/>
			<point x="47" y="463"/>
			<point x="47" y="337" type="curve" smooth="yes"/>
			<point x="47" y="258"/>
			<point x="90" y="205"/>
			<point x="171" y="180" type="curve"/>
			<point x="80" y="152"/>
			<point x="42" y="115"/>
			<point x="42" y="68" type="curve" smooth="yes"/>
			<point x="42" y="29"/>
			<point x="66" y="-4"/>
			<point x="156" y="-11" type="curve"/>
			<point x="53" y="-35"/>
			<point x="8" y="-65"/>
			<point x="8" y="-113" type="curve" smooth="yes"/>
			<point x="8" y="-189"/>
			<point x="116" y="-210"/>
		</contour>
		<contour>
			<point x="281" y="259" type="curve" smooth="yes"/>
			<point x="229" y="259"/>
			<point x="205" y="294"/>
			<point x="205" y="342" type="curve" smooth="yes"/>
			<point x="205" y="390"/>
			<point x="230" y="423"/>
			<point x="282" y="423" type="curve" smooth="yes"/>
			<point x="334" y="423"/>
			<point x="359" y="391"/>
			<point x="359" y="342" type="curve" smooth="yes"/>
			<point x="359" y="295"/>
			<point x="336" y="259"/>
		</contour>
		<contour>
			<point x="293" y="-108" type="curve" smooth="yes"/>
			<point x="265" y="-108" type="line"/>
			<point x="208" y="-108"/>
			<point x="169" y="-99"/>
			<point x="169" y="-68" type="curve" smooth="yes"/>
			<point x="169" y="-40"/>
			<point x="210" y="-18"/>
			<point x="263" y="-18" type="curve" smooth="yes"/>
			<point x="344" y="-18" type="line" smooth="yes"/>
			<point x="386" y="-18"/>
			<point x="414" y="-27"/>
			<point x="414" y="-55" type="curve" smooth="yes"/>
			<point x="414" y="-93"/>
			<point x="363" y="-108"/>
		</contour>
	</outline>
	<anchor name="top" x="290" y="523"/>
	<anchor name="bottom" x="316" y="-183"/>
</glyph>
<glyph name="h" format="2">
	<unicode hex="0068"/>
	<advance width="600"/>
	<outline>
		<contour>
			<point x="397" y="537" type="curve" smooth="yes"/>
			<point x="321" y="537"/>
			<point x="269" y="489"/>
			<point x="228" y="421" type="curve"/>
			<point x="228" y="750" type="line"/>
			<point x="61" y="750" type="line"/>
			<point x="61" y="0" type="line"/>
			<point x="228" y="0" type="line"/>
			<point x="228" y="313" type="line" smooth="yes"/>
			<point x="228" y="336"/>
			<point x="234" y="354"/>
			<point x="244" y="368" type="curve" smooth="yes"/>
			<point x="258" y="387"/>
			<point x="278" y="400"/>
			<point x="307" y="400" type="curve" smooth="yes"/>
			<point x="358" y="400"/>
			<point x="377" y="366"/>
			<point x="377" y="309" type="curve" smooth="yes"/>
			<point x="377" y="0" type="line"/>
			<point x="544" y="0" type="line"/>
			<point x="544" y="347" type="line" smooth="yes"/>
			<point x="544" y="475"/>
			<point x="495" y="537"/>
		</contour>
	</outline>
	<anchor name="bottom" x="303" y="0"/>
	<anchor name="caron" x="19619" y="743"/>
	<anchor name="top" x="145" y="734"/>
	<anchor name="center" x="187" y="632"/>
</glyph>
<glyph name="i" format="2">
	<unicode hex="0069"/>
	<advance width="600"/>
	<outline>
		<contour>
			<point x="321" y="596" type="curve" smooth="yes"/>
			<point x="393" y="596"/>
			<point x="421" y="620"/>
			<point x="421" y="676" type="curve" smooth="yes"/>
			<point x="421" y="731"/>
			<point x="390" y="756"/>
			<point x="321" y="756" type="curve" smooth="yes"/>
			<point x="254" y="756"/>
			<point x="222" y="732"/>
			<point x="222" y="676" type="curve" smooth="yes"/>
			<point x="222" y="620"/>
			<point x="250" y="596"/>
		</contour>
		<contour>
			<point x="68" y="0" type="line"/>
			<point x="561" y="0" type="line"/>
			<point x="561" y="129" type="line"/>
			<point x="405" y="129" type="line"/>
			<point x="405" y="523" type="line"/>
			<point x="70" y="523" type="line"/>
			<point x="70" y="394" type="line"/>
			<point x="238" y="394" type="line"/>
			<point x="238" y="129" type="line"/>
			<point x="68" y="129" type="line"/>
		</contour>
	</outline>
	<anchor name="ogonek" x="557" y="0"/>
</glyph>
<glyph name="k" format="2">
	<unicode hex="006B"/>
	<advance width="600"/>
	<outline>
		<contour>
			<point x="64" y="0" type="line"/>
			<point x="230" y="0" type="line"/>
			<point x="230" y="132" type="line"/>
			<point x="291" y="213" type="line"/>
			<point x="400" y="0" type="line"/>
			<point x="586" y="0" type="line"/>
			<point x="423" y="311" type="line"/>
			<point x="577" y="525" type="line"/>
			<point x="394" y="525" type="line"/>
			<point x="230" y="286" type="line"/>
			<point x="230" y="750" type="line"/>
			<point x="64" y="750" type="line"/>
		</contour>
	</outline>
	<anchor name="top" x="193" y="523"/>
	<anchor name="bottom" x="311" y="0"/>
</glyph>
<glyph name="o" format="2">
	<unicode hex="006F"/>
	<advance width="600"/>
	<outline>
		<contour>
			<point x="300" y="-14" type="curve" smooth="yes"/>
			<point x="458" y="-14"/>
			<point x="560" y="88"/>
			<point x="560" y="255" type="curve" smooth="yes"/>
			<point x="560" y="269" type="line" smooth="yes"/>
			<point x="560" y="433"/>
			<point x="459" y="537"/>
			<point x="300" y="537" type="curve" smooth="yes"/>
			<point x="142" y="537"/>
			<point x="40" y="433"/>
			<point x="40" y="269" type="curve" smooth="yes"/>
			<point x="40" y="255" type="line" smooth="yes"/>
			<point x="40" y="88"/>
			<point x="141" y="-14"/>
		</contour>
		<contour>
			<point x="300" y="115" type="curve" smooth="yes"/>
			<point x="242" y="115"/>
			<point x="210" y="158"/>
			<point x="210" y="258" type="curve" smooth="yes"/>
			<point x="210" y="265" type="line" smooth="yes"/>
			<point x="210" y="366"/>
			<point x="242" y="409"/>
			<point x="300" y="409" type="curve" smooth="yes"/>
			<point x="358" y="409"/>
			<point x="391" y="366"/>
			<point x="391" y="265" type="curve" smooth="yes"/>
			<point x="391" y="258" type="line" smooth="yes"/>
			<point x="391" y="158"/>
			<point x="358" y="115"/>
		</contour>
	</outline>
	<anchor name="center" x="299" y="264"/>
	<anchor name="bottom" x="297" y="-12"/>
	<anchor name="top" x="301" y="523"/>
</glyph>
<glyph name="p" format="2">
	<unicode hex="0070"/>
	<advance width="600"/>
	<outline>
		<contour>
			<point x="54" y="-194" type="line"/>
			<point x="221" y="-194" type="line"/>
			<point x="221" y="90" type="line"/>
			<point x="259" y="20"/>
			<point x="308" y="-14"/>
			<point x="377" y="-14" type="curve" smooth="yes"/>
			<point x="483" y="-14"/>
			<point x="560" y="82"/>
			<point x="560" y="258" type="curve" smooth="yes"/>
			<point x="560" y="267" type="line" smooth="yes"/>
			<point x="560" y="437"/>
			<point x="497" y="537"/>
			<point x="386" y="537" type="curve" smooth="yes"/>
			<point x="307" y="537"/>
			<point x="251" y="488"/>
			<point x="213" y="418" type="curve"/>
			<point x="213" y="523" type="line"/>
			<point x="54" y="523" type="line"/>
		</contour>
		<contour>
			<point x="302" y="115" type="curve" smooth="yes"/>
			<point x="245" y="115"/>
			<point x="213" y="162"/>
			<point x="213" y="259" type="curve" smooth="yes"/>
			<point x="213" y="265" type="line" smooth="yes"/>
			<point x="213" y="362"/>
			<point x="247" y="409"/>
			<point x="303" y="409" type="curve" smooth="yes"/>
			<point x="359" y="409"/>
			<point x="390" y="365"/>
			<point x="390" y="265" type="curve" smooth="yes"/>
			<point x="390" y="259" type="line" smooth="yes"/>
			<point x="390" y="159"/>
			<point x="360" y="115"/>
		</contour>
	</outline>
	<anchor name="top" x="350" y="523"/>
	<anchor name="bottom" x="181" y="-161"/>
</glyph>
<glyph name="q" format="2">
	<unicode hex="0071"/>
	<advance width="600"/>
	<outline>
		<contour>
			<point x="379" y="-194" type="line"/>
			<point x="547" y="-194" type="line"/>
			<point x="547" y="523" type="line"/>
			<point x="388" y="523" type="line"/>
			<point x="388" y="422" type="line"/>
			<point x="352" y="491"/>
			<point x="306" y="537"/>
			<point x="229" y="537" type="curve" smooth="yes"/>
			<point x="125" y="537"/>
			<point x="41" y="441"/>
			<point x="41" y="267" type="curve" smooth="yes"/>
			<point x="41" y="258" type="line" smooth="yes"/>
			<point x="41" y="85"/>
			<point x="102" y="-14"/>
			<point x="217" y="-14" type="curve" smooth="yes"/>
			<point x="291" y="-14"/>
			<point x="343" y="31"/>
			<point x="379" y="97" type="curve"/>
		</contour>
		<contour>
			<point x="297" y="114" type="curve" smooth="yes"/>
			<point x="241" y="114"/>
			<point x="211" y="158"/>
			<point x="211" y="258" type="curve" smooth="yes"/>
			<point x="211" y="264" type="line" smooth="yes"/>
			<point x="211" y="364"/>
			<point x="241" y="408"/>
			<point x="298" y="408" type="curve" smooth="yes"/>
			<point x="355" y="408"/>
			<point x="387" y="361"/>
			<point x="387" y="264" type="curve" smooth="yes"/>
			<point x="387" y="258" type="line" smooth="yes"/>
			<point x="387" y="161"/>
			<point x="353" y="114"/>
		</contour>
	</outline>
</glyph>
<glyph name="r" format="2">
	<unicode hex="0072"/>
	<advance width="600"/>
	<outline>
		<contour>
			<point x="57" y="0" type="line"/>
			<point x="514" y="0" type="line"/>
			<point x="514" y="129" type="line"/>
			<point x="351" y="129" type="line"/>
			<point x="351" y="246" type="line" smooth="yes"/>
			<point x="351" y="318"/>
			<point x="397" y="370"/>
			<point x="474" y="370" type="curve" smooth="yes"/>
			<point x="505" y="370"/>
			<point x="537" y="364"/>
			<point x="554" y="357" type="curve"/>
			<point x="554" y="524" type="line"/>
			<point x="544" y="528"/>
			<point x="524" y="532"/>
			<point x="508" y="532" type="curve" smooth="yes"/>
			<point x="420" y="532"/>
			<point x="381" y="477"/>
			<point x="344" y="369" type="curve"/>
			<point x="344" y="523" type="line"/>
			<point x="62" y="523" type="line"/>
			<point x="62" y="394" type="line"/>
			<point x="184" y="394" type="line"/>
			<point x="184" y="129" type="line"/>
			<point x="57" y="129" type="line"/>
		</contour>
	</outline>
	<anchor name="top" x="338" y="523"/>
	<anchor name="bottom" x="267" y="0"/>
</glyph>
<glyph name="s" format="2">
	<unicode hex="0073"/>
	<advance width="600"/>
	<outline>
		<contour>
			<point x="292" y="-14" type="curve" smooth="yes"/>
			<point x="451" y="-14"/>
			<point x="530" y="57"/>
			<point x="530" y="175" type="curve" smooth="yes"/>
			<point x="530" y="291"/>
			<point x="436" y="315"/>
			<point x="318" y="335" type="curve" smooth="yes"/>
			<point x="259" y="345"/>
			<point x="228" y="352"/>
			<point x="228" y="382" type="curve" smooth="yes"/>
			<point x="228" y="408"/>
			<point x="250" y="422"/>
			<point x="298" y="422" type="curve" smooth="yes"/>
			<point x="373" y="422"/>
			<point x="458" y="399"/>
			<point x="520" y="363" type="curve"/>
			<point x="520" y="492" type="line"/>
			<point x="465" y="518"/>
			<point x="396" y="537"/>
			<point x="299" y="537" type="curve" smooth="yes"/>
			<point x="162" y="537"/>
			<point x="70" y="474"/>
			<point x="70" y="357" type="curve" smooth="yes"/>
			<point x="70" y="240"/>
			<point x="145" y="211"/>
			<point x="283" y="190" type="curve" smooth="yes"/>
			<point x="344" y="181"/>
			<point x="371" y="175"/>
			<point x="371" y="145" type="curve" smooth="yes"/>
			<point x="371" y="117"/>
			<point x="347" y="103"/>
			<point x="297" y="103" type="curve" smooth="yes"/>
			<point x="232" y="103"/>
			<point x="142" y="123"/>
			<point x="80" y="161" type="curve"/>
			<point x="80" y="37" type="line"/>
			<point x="126" y="8"/>
			<point x="216" y="-14"/>
		</contour>
	</outline>
	<anchor name="top" x="311" y="523"/>
	<anchor name="bottom" x="303" y="0"/>
</glyph>
<glyph name="t" format="2">
	<unicode hex="0074"/>
	<advance width="600"/>
	<outline>
		<contour>
			<point x="376" y="-12" type="curve" smooth="yes"/>
			<point x="435" y="-12"/>
			<point x="487" y="1"/>
			<point x="519" y="18" type="curve"/>
			<point x="519" y="135" type="line"/>
			<point x="493" y="124"/>
			<point x="457" y="119"/>
			<point x="431" y="119" type="curve" smooth="yes"/>
			<point x="375" y="119"/>
			<point x="341" y="137"/>
			<point x="341" y="201" type="curve" smooth="yes"/>
			<point x="341" y="394" type="line"/>
			<point x="527" y="394" type="line"/>
			<point x="527" y="523" type="line"/>
			<point x="342" y="523" type="line"/>
			<point x="342" y="692" type="line"/>
			<point x="191" y="692" type="line"/>
			<point x="184" y="589" type="line" smooth="yes"/>
			<point x="180" y="531"/>
			<point x="148" y="517"/>
			<point x="109" y="517" type="curve" smooth="yes"/>
			<point x="41" y="517" type="line"/>
			<point x="41" y="394" type="line"/>
			<point x="174" y="394" type="line"/>
			<point x="174" y="174" type="line" smooth="yes"/>
			<point x="174" y="39"/>
			<point x="244" y="-12"/>
		</contour>
	</outline>
	<anchor name="caron" x="441" y="780"/>
	<anchor name="bottom" x="349" y="0"/>
	<anchor name="center" x="283" y="276"/>
</glyph>
<glyph name="u" format="2">
	<unicode hex="0075"/>
	<advance width="600"/>
	<outline>
		<contour>
			<point x="539" y="523" type="line"/>
			<point x="372" y="523" type="line"/>
			<point x="372" y="206" type="line" smooth="yes"/>
			<point x="372" y="183"/>
			<point x="367" y="164"/>
			<point x="356" y="150" type="curve" smooth="yes"/>
			<point x="343" y="131"/>
			<point x="322" y="119"/>
			<point x="294" y="119" type="curve" smooth="yes"/>
			<point x="242" y="119"/>
			<point x="223" y="153"/>
			<point x="223" y="210" type="curve" smooth="yes"/>
			<point x="223" y="523" type="line"/>
			<point x="56" y="523" type="line"/>
			<point x="56" y="176" type="line" smooth="yes"/>
			<point x="56" y="48"/>
			<point x="104" y="-14"/>
			<point x="204" y="-14" type="curve" smooth="yes"/>
			<point x="283" y="-14"/>
			<point x="338" y="38"/>
			<point x="380" y="108" type="curve"/>
			<point x="380" y="0" type="line"/>
			<point x="539" y="0" type="line"/>
		</contour>
	</outline>
	<anchor name="ogonek" x="539" y="0"/>
	<anchor name="bottom" x="312" y="0"/>
	<anchor name="top" x="297" y="523"/>
</glyph>
<glyph name="x" format="2">
	<unicode hex="0078"/>
	<advance width="600"/>
	<outline>
		<contour>
			<point x="22" y="0" type="line"/>
			<point x="204" y="0" type="line"/>
			<point x="296" y="163" type="line"/>
			<point x="395" y="0" type="line"/>
			<point x="578" y="0" type="line"/>
			<point x="407" y="276" type="line"/>
			<point x="569" y="523" type="line"/>
			<point x="390" y="523" type="line"/>
			<point x="302" y="382" type="line"/>
			<point x="218" y="523" type="line"/>
			<point x="33" y="523" type="line"/>
			<point x="198" y="271" type="line"/>
		</contour>
	</outline>
	<anchor name="top" x="328" y="523"/>
	<anchor name="bottom" x="332" y="0"/>
</glyph>
<glyph name="z" format="2">
	<unicode hex="007A"/>
	<advance width="600"/>
	<outline>
		<contour>
			<point x="71" y="0" type="line"/>
			<point x="529" y="0" type="line"/>
			<point x="529" y="130" type="line"/>
			<point x="279" y="130" type="line"/>
			<point x="527" y="394" type="line"/>
			<point x="527" y="523" type="line"/>
			<point x="78" y="523" type="line"/>
			<point x="78" y="394" type="line"/>
			<point x="331" y="394" type="line"/>
			<point x="71" y="131" type="line"/>
		</contour>
	</outline>
	<anchor name="top" x="303" y="523"/>
	<anchor name="bottom" x="301" y="0"/>
</glyph>
<glyph name="braceleft" format="2">
	<unicode hex="007B"/>
	<advance width="600"/>
	<outline>
		<contour>
			<point x="87" y="245" type="line"/>
			<point x="176" y="245" type="line" smooth="yes"/>
			<point x="219" y="245"/>
			<point x="238" y="213"/>
			<point x="238" y="186" type="curve" smooth="yes"/>
			<point x="238" y="125"/>
			<point x="143" y="72"/>
			<point x="143" y="-22" type="curve" smooth="yes"/>
			<point x="143" y="-99"/>
			<point x="205" y="-163"/>
			<point x="317" y="-163" type="curve" smooth="yes"/>
			<point x="511" y="-163" type="line"/>
			<point x="511" y="-44" type="line"/>
			<point x="382" y="-44" type="line" smooth="yes"/>
			<point x="333" y="-44"/>
			<point x="313" y="-24"/>
			<point x="313" y="6" type="curve" smooth="yes"/>
			<point x="313" y="61"/>
			<point x="408" y="111"/>
			<point x="408" y="192" type="curve" smooth="yes"/>
			<point x="408" y="249"/>
			<point x="356" y="301"/>
			<point x="278" y="313" type="curve"/>
			<point x="356" y="325"/>
			<point x="408" y="377"/>
			<point x="408" y="433" type="curve" smooth="yes"/>
			<point x="408" y="516"/>
			<point x="313" y="566"/>
			<point x="313" y="624" type="curve" smooth="yes"/>
			<point x="313" y="658"/>
			<point x="334" y="673"/>
			<point x="375" y="673" type="curve" smooth="yes"/>
			<point x="511" y="673" type="line"/>
			<point x="511" y="792" type="line"/>
			<point x="317" y="792" type="line" smooth="yes"/>
			<point x="205" y="792"/>
			<point x="143" y="725"/>
			<point x="143" y="650" type="curve" smooth="yes"/>
			<point x="143" y="555"/>
			<point x="238" y="502"/>
			<point x="238" y="440" type="curve" smooth="yes"/>
			<point x="238" y="413"/>
			<point x="219" y="382"/>
			<point x="176" y="382" type="curve" smooth="yes"/>
			<point x="87" y="382" type="line"/>
		</contour>
	</outline>
</glyph>
<glyph name="braceright" format="2">
	<unicode hex="007D"/>
	<advance width="600"/>
	<outline>
		<contour>
			<point x="89" y="-163" type="line"/>
			<point x="283" y="-163" type="line" smooth="yes"/>
			<point x="395" y="-163"/>
			<point x="457" y="-98"/>
			<point x="457" y="-22" type="curve" smooth="yes"/>
			<point x="457" y="72"/>
			<point x="362" y="125"/>
			<point x="362" y="186" type="curve" smooth="yes"/>
			<point x="362" y="213"/>
			<point x="381" y="245"/>
			<point x="424" y="245" type="curve" smooth="yes"/>
			<point x="513" y="245" type="line"/>
			<point x="513" y="382" type="line"/>
			<point x="424" y="382" type="line" smooth="yes"/>
			<point x="381" y="382"/>
			<point x="362" y="413"/>
			<point x="362" y="440" type="curve" smooth="yes"/>
			<point x="362" y="502"/>
			<point x="457" y="555"/>
			<point x="457" y="650" type="curve" smooth="yes"/>
			<point x="457" y="726"/>
			<point x="395" y="792"/>
			<point x="283" y="792" type="curve" smooth="yes"/>
			<point x="89" y="792" type="line"/>
			<point x="89" y="673" type="line"/>
			<point x="225" y="673" type="line" smooth="yes"/>
			<point x="265" y="673"/>
			<point x="287" y="658"/>
			<point x="287" y="624" type="curve" smooth="yes"/>
			<point x="287" y="566"/>
			<point x="192" y="516"/>
			<point x="192" y="433" type="curve" smooth="yes"/>
			<point x="192" y="376"/>
			<point x="244" y="325"/>
			<point x="322" y="313" type="curve"/>
			<point x="244" y="301"/>
			<point x="192" y="249"/>
			<point x="192" y="192" type="curve" smooth="yes"/>
			<point x="192" y="111"/>
			<point x="287" y="61"/>
			<point x="287" y="6" type="curve" smooth="yes"/>
			<point x="287" y="-24"/>
			<point x="266" y="-44"/>
			<point x="218" y="-44" type="curve" smooth="yes"/>
			<point x="89" y="-44" type="line"/>
		</contour>
	</outline>
</glyph>
<glyph name="sterling" format="2">
	<unicode hex="00A3"/>
	<advance width="600"/>
	<outline>
		<contour>
			<point x="55" y="132" type="curve"/>
			<point x="55" y="-1" type="line"/>
			<point x="551" y="-1" type="line"/>
			<point x="551" y="138" type="line"/>
			<point x="239" y="138" type="line"/>
			<point x="268" y="160"/>
			<point x="298" y="197"/>
			<point x="295" y="270" type="curve"/>
			<point x="466" y="270" type="line"/>
			<point x="466" y="393" type="line"/>
			<point x="281" y="393" type="line"/>
			<point x="274" y="416"/>
			<point x="265" y="441"/>
			<point x="264" y="466" type="curve" smooth="yes"/>
			<point x="262" y="524"/>
			<point x="293" y="557"/>
			<point x="365" y="557" type="curve" smooth="yes"/>
			<point x="425" y="557"/>
			<point x="492" y="535"/>
			<point x="551" y="502" type="curve"/>
			<point x="551" y="648" type="line"/>
			<point x="498" y="677"/>
			<point x="430" y="698"/>
			<point x="338" y="698" type="curve" smooth="yes"/>
			<point x="191" y="698"/>
			<point x="96" y="621"/>
			<point x="96" y="495" type="curve" smooth="yes"/>
			<point x="96" y="464"/>
			<point x="105" y="424"/>
			<point x="118" y="393" type="curve"/>
			<point x="43" y="393" type="line"/>
			<point x="43" y="270" type="line"/>
			<point x="131" y="270" type="line"/>
			<point x="130" y="201"/>
			<point x="93" y="160"/>
		</contour>
	</outline>
</glyph>
<glyph name="currency" format="2">
	<unicode hex="00A4"/>
	<advance width="600"/>
	<outline>
		<contour>
			<point x="103" y="25" type="line"/>
			<point x="194" y="125" type="line"/>
			<point x="225" y="108"/>
			<point x="261" y="100"/>
			<point x="300" y="100" type="curve" smooth="yes"/>
			<point x="341" y="100"/>
			<point x="378" y="109"/>
			<point x="409" y="126" type="curve"/>
			<point x="503" y="25" type="line"/>
			<point x="590" y="117" type="line"/>
			<point x="495" y="218" type="line"/>
			<point x="511" y="252"/>
			<point x="520" y="293"/>
			<point x="520" y="340" type="curve" smooth="yes"/>
			<point x="520" y="389"/>
			<point x="510" y="431"/>
			<point x="493" y="466" type="curve"/>
			<point x="588" y="567" type="line"/>
			<point x="497" y="654" type="line"/>
			<point x="406" y="556" type="line"/>
			<point x="375" y="572"/>
			<point x="339" y="580"/>
			<point x="300" y="580" type="curve" smooth="yes"/>
			<point x="260" y="580"/>
			<point x="224" y="571"/>
			<point x="193" y="555" type="curve"/>
			<point x="100" y="653" type="line"/>
			<point x="14" y="561" type="line"/>
			<point x="106" y="465" type="line"/>
			<point x="89" y="430"/>
			<point x="80" y="388"/>
			<point x="80" y="340" type="curve" smooth="yes"/>
			<point x="80" y="292"/>
			<point x="89" y="250"/>
			<point x="106" y="215" type="curve"/>
			<point x="10" y="113" type="line"/>
		</contour>
		<contour>
			<point x="300" y="223" type="curve" smooth="yes"/>
			<point x="241" y="223"/>
			<point x="208" y="265"/>
			<point x="208" y="340" type="curve" smooth="yes"/>
			<point x="208" y="415"/>
			<point x="241" y="457"/>
			<point x="300" y="457" type="curve" smooth="yes"/>
			<point x="359" y="457"/>
			<point x="391" y="415"/>
			<point x="391" y="340" type="curve" smooth="yes"/>
			<point x="391" y="265"/>
			<point x="359" y="223"/>
		</contour>
	</outline>
</glyph>
<glyph name="yen" format="2">
	<unicode hex="00A5"/>
	<advance width="600"/>
	<outline>
		<contour>
			<point x="57" y="143" type="line"/>
			<point x="210" y="143" type="line"/>
			<point x="210" y="0" type="line"/>
			<point x="382" y="0" type="line"/>
			<point x="382" y="143" type="line"/>
			<point x="535" y="143" type="line"/>
			<point x="535" y="237" type="line"/>
			<point x="383" y="237" type="line"/>
			<point x="408" y="290" type="line"/>
			<point x="535" y="290" type="line"/>
			<point x="535" y="383" type="line"/>
			<point x="451" y="383" type="line"/>
			<point x="592" y="684" type="line"/>
			<point x="409" y="684" type="line"/>
			<point x="300" y="424" type="line"/>
			<point x="192" y="684" type="line"/>
			<point x="8" y="684" type="line"/>
			<point x="144" y="383" type="line"/>
			<point x="57" y="383" type="line"/>
			<point x="57" y="290" type="line"/>
			<point x="186" y="290" type="line"/>
			<point x="210" y="237" type="line"/>
			<point x="57" y="237" type="line"/>
		</contour>
	</outline>
</glyph>
<glyph name="section" format="2">
	<unicode hex="00A7"/>
	<advance width="600"/>
	<outline>
		<contour>
			<point x="311" y="-85" type="curve" smooth="yes"/>
			<point x="436" y="-85"/>
			<point x="515" y="-19"/>
			<point x="515" y="99" type="curve" smooth="yes"/>
			<point x="515" y="150"/>
			<point x="500" y="197"/>
			<point x="434" y="230" type="curve"/>
			<point x="497" y="249"/>
			<point x="535" y="283"/>
			<point x="535" y="344" type="curve" smooth="yes"/>
			<point x="535" y="435"/>
			<point x="446" y="462"/>
			<point x="328" y="480" type="curve" smooth="yes"/>
			<point x="261" y="491"/>
			<point x="225" y="504"/>
			<point x="225" y="537" type="curve" smooth="yes"/>
			<point x="225" y="568"/>
			<point x="248" y="588"/>
			<point x="304" y="588" type="curve" smooth="yes"/>
			<point x="369" y="588"/>
			<point x="447" y="570"/>
			<point x="504" y="542" type="curve"/>
			<point x="504" y="655" type="line"/>
			<point x="463" y="678"/>
			<point x="391" y="698"/>
			<point x="299" y="698" type="curve" smooth="yes"/>
			<point x="177" y="698"/>
			<point x="85" y="634"/>
			<point x="85" y="517" type="curve" smooth="yes"/>
			<point x="85" y="461"/>
			<point x="105" y="414"/>
			<point x="170" y="381" type="curve"/>
			<point x="102" y="357"/>
			<point x="65" y="319"/>
			<point x="65" y="264" type="curve" smooth="yes"/>
			<point x="65" y="165"/>
			<point x="160" y="149"/>
			<point x="273" y="133" type="curve" smooth="yes"/>
			<point x="337" y="124"/>
			<point x="373" y="113"/>
			<point x="373" y="79" type="curve" smooth="yes"/>
			<point x="373" y="49"/>
			<point x="352" y="27"/>
			<point x="300" y="27" type="curve" smooth="yes"/>
			<point x="246" y="27"/>
			<point x="161" y="44"/>
			<point x="92" y="80" type="curve"/>
			<point x="92" y="-31" type="line"/>
			<point x="146" y="-61"/>
			<point x="211" y="-85"/>
		</contour>
		<contour>
			<point x="343" y="252" type="curve" smooth="yes"/>
			<point x="283" y="255"/>
			<point x="185" y="271"/>
			<point x="185" y="317" type="curve" smooth="yes"/>
			<point x="185" y="349"/>
			<point x="216" y="362"/>
			<point x="256" y="360" type="curve" smooth="yes"/>
			<point x="317" y="358"/>
			<point x="415" y="341"/>
			<point x="415" y="295" type="curve" smooth="yes"/>
			<point x="415" y="263"/>
			<point x="384" y="250"/>
		</contour>
	</outline>
</glyph>
<glyph name="dieresis" format="2">
	<unicode hex="00A8"/>
	<advance width="600"/>
	<outline>
		<contour>
			<point x="412" y="601" type="curve" smooth="yes"/>
			<point x="476" y="601"/>
			<point x="498" y="625"/>
			<point x="498" y="675" type="curve" smooth="yes"/>
			<point x="498" y="725"/>
			<point x="476" y="749"/>
			<point x="412" y="749" type="curve" smooth="yes"/>
			<point x="348" y="749"/>
			<point x="326" y="725"/>
			<point x="326" y="675" type="curve" smooth="yes"/>
			<point x="326" y="625"/>
			<point x="348" y="601"/>
		</contour>
		<contour>
			<point x="188" y="601" type="curve" smooth="yes"/>
			<point x="253" y="601"/>
			<point x="274" y="625"/>
			<point x="274" y="675" type="curve" smooth="yes"/>
			<point x="274" y="725"/>
			<point x="253" y="749"/>
			<point x="188" y="749" type="curve" smooth="yes"/>
			<point x="124" y="749"/>
			<point x="102" y="725"/>
			<point x="102" y="675" type="curve" smooth="yes"/>
			<point x="102" y="625"/>
			<point x="124" y="601"/>
		</contour>
	</outline>
	<anchor name="_top" x="300" y="523"/>
</glyph>
<glyph name="ordfeminine" format="2">
	<unicode hex="00AA"/>
	<advance width="600"/>
	<outline>
		<contour>
			<point x="217" y="224" type="curve" smooth="yes"/>
			<point x="293" y="224"/>
			<point x="337" y="268"/>
			<point x="362" y="323" type="curve"/>
			<point x="362" y="235" type="line"/>
			<point x="495" y="235" type="line"/>
			<point x="495" y="531" type="line" smooth="yes"/>
			<point x="495" y="645"/>
			<point x="419" y="696"/>
			<point x="291" y="696" type="curve" smooth="yes"/>
			<point x="200" y="696"/>
			<point x="135" y="671"/>
			<point x="104" y="651" type="curve"/>
			<point x="104" y="539" type="line"/>
			<point x="153" y="572"/>
			<point x="216" y="592"/>
			<point x="274" y="592" type="curve" smooth="yes"/>
			<point x="328" y="592"/>
			<point x="356" y="568"/>
			<point x="356" y="519" type="curve" smooth="yes"/>
			<point x="356" y="514" type="line"/>
			<point x="299" y="506" type="line" smooth="yes"/>
			<point x="151" y="486"/>
			<point x="89" y="432"/>
			<point x="89" y="346" type="curve" smooth="yes"/>
			<point x="89" y="268"/>
			<point x="141" y="224"/>
		</contour>
		<contour>
			<point x="280" y="317" type="curve" smooth="yes"/>
			<point x="248" y="317"/>
			<point x="222" y="333"/>
			<point x="222" y="367" type="curve" smooth="yes"/>
			<point x="222" y="403"/>
			<point x="248" y="425"/>
			<point x="301" y="432" type="curve" smooth="yes"/>
			<point x="356" y="440" type="line"/>
			<point x="356" y="392" type="line" smooth="yes"/>
			<point x="356" y="341"/>
			<point x="317" y="317"/>
		</contour>
	</outline>
	<anchor name="ogonek" x="481" y="235"/>
	<anchor name="top" x="286" y="685"/>
	<anchor name="right" x="485" y="235"/>
	<anchor name="bottom" x="287" y="233"/>
</glyph>
<glyph name="registered" format="2">
	<unicode hex="00AE"/>
	<advance width="600"/>
	<outline>
		<contour>
			<point x="300" y="102" type="curve" smooth="yes"/>
			<point x="447" y="102"/>
			<point x="566" y="196"/>
			<point x="566" y="373" type="curve" smooth="yes"/>
			<point x="566" y="387" type="line" smooth="yes"/>
			<point x="566" y="561"/>
			<point x="446" y="657"/>
			<point x="300" y="657" type="curve" smooth="yes"/>
			<point x="154" y="657"/>
			<point x="34" y="561"/>
			<point x="34" y="386" type="curve" smooth="yes"/>
			<point x="34" y="372" type="line" smooth="yes"/>
			<point x="34" y="196"/>
			<point x="153" y="102"/>
		</contour>
		<contour>
			<point x="300" y="171" type="curve" smooth="yes"/>
			<point x="180" y="171"/>
			<point x="105" y="245"/>
			<point x="105" y="376" type="curve" smooth="yes"/>
			<point x="105" y="383" type="line" smooth="yes"/>
			<point x="105" y="517"/>
			<point x="181" y="588"/>
			<point x="300" y="588" type="curve" smooth="yes"/>
			<point x="419" y="588"/>
			<point x="495" y="516"/>
			<point x="495" y="384" type="curve" smooth="yes"/>
			<point x="495" y="376" type="line" smooth="yes"/>
			<point x="495" y="242"/>
			<point x="420" y="171"/>
		</contour>
		<contour>
			<point x="199" y="250" type="line"/>
			<point x="271" y="250" type="line"/>
			<point x="271" y="338" type="line"/>
			<point x="292" y="338" type="line" smooth="yes"/>
			<point x="308" y="338"/>
			<point x="315" y="332"/>
			<point x="320" y="317" type="curve" smooth="yes"/>
			<point x="345" y="250" type="line"/>
			<point x="423" y="250" type="line"/>
			<point x="392" y="331" type="line" smooth="yes"/>
			<point x="383" y="354"/>
			<point x="372" y="363"/>
			<point x="353" y="366" type="curve"/>
			<point x="391" y="375"/>
			<point x="413" y="401"/>
			<point x="413" y="437" type="curve" smooth="yes"/>
			<point x="413" y="484"/>
			<point x="384" y="513"/>
			<point x="314" y="513" type="curve" smooth="yes"/>
			<point x="198" y="513" type="line"/>
		</contour>
		<contour>
			<point x="303" y="459" type="line" smooth="yes"/>
			<point x="327" y="459"/>
			<point x="340" y="449"/>
			<point x="340" y="426" type="curve" smooth="yes"/>
			<point x="340" y="404"/>
			<point x="327" y="392"/>
			<point x="302" y="392" type="curve" smooth="yes"/>
			<point x="270" y="392" type="line"/>
			<point x="270" y="459" type="line"/>
		</contour>
	</outline>
</glyph>
<glyph name="macron" format="2">
	<unicode hex="00AF"/>
	<advance width="600"/>
	<outline>
		<contour>
			<point x="138" y="618" type="line"/>
			<point x="462" y="618" type="line"/>
			<point x="462" y="715" type="line"/>
			<point x="138" y="715" type="line"/>
		</contour>
	</outline>
	<anchor name="_top" x="300" y="523"/>
</glyph>
<glyph name="paragraph" format="2">
	<unicode hex="00B6"/>
	<advance width="600"/>
	<outline>
		<contour>
			<point x="242" y="0" type="line"/>
			<point x="361" y="0" type="line"/>
			<point x="361" y="568" type="line"/>
			<point x="431" y="568" type="line"/>
			<point x="431" y="0" type="line"/>
			<point x="550" y="0" type="line"/>
			<point x="550" y="684" type="line"/>
			<point x="256" y="684" type="line"/>
			<point x="106" y="684"/>
			<point x="21" y="594"/>
			<point x="21" y="450" type="curve" smooth="yes"/>
			<point x="21" y="315"/>
			<point x="100" y="229"/>
			<point x="242" y="229" type="curve" smooth="yes"/>
		</contour>
	</outline>
</glyph>
<glyph name="cedilla" format="2">
	<unicode hex="00B8"/>
	<advance width="600"/>
	<outline>
		<contour>
			<point x="277" y="-234" type="curve" smooth="yes"/>
			<point x="361" y="-234"/>
			<point x="409" y="-194"/>
			<point x="409" y="-125" type="curve" smooth="yes"/>
			<point x="409" y="-78"/>
			<point x="379" y="-46"/>
			<point x="320" y="-43" type="curve"/>
			<point x="341" y="0" type="line"/>
			<point x="259" y="0" type="line"/>
			<point x="218" y="-95" type="line"/>
			<point x="225" y="-93"/>
			<point x="239" y="-92"/>
			<point x="250" y="-92" type="curve" smooth="yes"/>
			<point x="283" y="-92"/>
			<point x="304" y="-100"/>
			<point x="304" y="-124" type="curve" smooth="yes"/>
			<point x="304" y="-146"/>
			<point x="287" y="-158"/>
			<point x="251" y="-158" type="curve" smooth="yes"/>
			<point x="232" y="-158"/>
			<point x="208" y="-154"/>
			<point x="184" y="-143" type="curve"/>
			<point x="184" y="-215" type="line"/>
			<point x="204" y="-226"/>
			<point x="242" y="-234"/>
		</contour>
	</outline>
	<anchor name="_bottom" x="301" y="0"/>
</glyph>
<glyph name="guillemetright" format="2">
	<unicode hex="00BB"/>
	<advance width="600"/>
	<outline>
		<contour>
			<point x="265" y="77" type="line"/>
			<point x="434" y="77" type="line"/>
			<point x="577" y="287" type="line"/>
			<point x="434" y="497" type="line"/>
			<point x="265" y="497" type="line"/>
			<point x="411" y="288" type="line"/>
		</contour>
		<contour>
			<point x="24" y="77" type="line"/>
			<point x="193" y="77" type="line"/>
			<point x="337" y="287" type="line"/>
			<point x="193" y="497" type="line"/>
			<point x="24" y="497" type="line"/>
			<point x="170" y="288" type="line"/>
		</contour>
	</outline>
</glyph>
<glyph name="questiondown" format="2">
	<unicode hex="00BF"/>
	<advance width="600"/>
	<outline>
		<contour>
			<point x="330" y="535" type="curve" smooth="yes"/>
			<point x="262" y="535"/>
			<point x="227" y="510"/>
			<point x="227" y="442" type="curve" smooth="yes"/>
			<point x="227" y="377"/>
			<point x="261" y="350"/>
			<point x="330" y="350" type="curve" smooth="yes"/>
			<point x="400" y="350"/>
			<point x="434" y="377"/>
			<point x="434" y="442" type="curve" smooth="yes"/>
			<point x="434" y="510"/>
			<point x="399" y="535"/>
		</contour>
		<contour>
			<point x="403" y="282" type="curve"/>
			<point x="255" y="282" type="line"/>
			<point x="255" y="260" type="line" smooth="yes"/>
			<point x="254" y="184"/>
			<point x="79" y="160"/>
			<point x="79" y="-3" type="curve" smooth="yes"/>
			<point x="79" y="-98"/>
			<point x="150" y="-175"/>
			<point x="299" y="-175" type="curve" smooth="yes"/>
			<point x="391" y="-175"/>
			<point x="466" y="-145"/>
			<point x="509" y="-120" type="curve"/>
			<point x="509" y="23" type="line"/>
			<point x="467" y="-4"/>
			<point x="406" y="-32"/>
			<point x="339" y="-32" type="curve" smooth="yes"/>
			<point x="273" y="-32"/>
			<point x="247" y="-3"/>
			<point x="247" y="28" type="curve" smooth="yes"/>
			<point x="247" y="109"/>
			<point x="409" y="120"/>
			<point x="409" y="246" type="curve" smooth="yes"/>
			<point x="409" y="260"/>
			<point x="407" y="269"/>
		</contour>
	</outline>
</glyph>
<glyph name="AE" format="2">
	<unicode hex="00C6"/>
	<advance width="600"/>
	<outline>
		<contour>
			<point x="4" y="0" type="line"/>
			<point x="148" y="0" type="line"/>
			<point x="175" y="146" type="line"/>
			<point x="292" y="146" type="line"/>
			<point x="292" y="0" type="line"/>
			<point x="581" y="0" type="line"/>
			<point x="581" y="134" type="line"/>
			<point x="431" y="134" type="line"/>
			<point x="431" y="276" type="line"/>
			<point x="549" y="276" type="line"/>
			<point x="549" y="408" type="line"/>
			<point x="431" y="408" type="line"/>
			<point x="431" y="551" type="line"/>
			<point x="579" y="551" type="line"/>
			<point x="579" y="684" type="line"/>
			<point x="137" y="684" type="line"/>
		</contour>
		<contour>
			<point x="198" y="275" type="line"/>
			<point x="249" y="551" type="line"/>
			<point x="292" y="551" type="line"/>
			<point x="292" y="275" type="line"/>
		</contour>
	</outline>
	<anchor name="top" x="356" y="684"/>
</glyph>
<glyph name="Ccedilla" format="2">
	<unicode hex="00C7"/>
	<advance width="600"/>
	<outline>
		<contour>
			<point x="338" y="-234" type="curve" smooth="yes"/>
			<point x="422" y="-234"/>
			<point x="470" y="-194"/>
			<point x="470" y="-125" type="curve" smooth="yes"/>
			<point x="470" y="-78"/>
			<point x="440" y="-46"/>
			<point x="381" y="-43" type="curve"/>
			<point x="396" y="-12" type="line"/>
			<point x="458" y="-10"/>
			<point x="510" y="4"/>
			<point x="551" y="28" type="curve"/>
			<point x="551" y="161" type="line"/>
			<point x="507" y="138"/>
			<point x="452" y="129"/>
			<point x="405" y="129" type="curve" smooth="yes"/>
			<point x="293" y="129"/>
			<point x="218" y="192"/>
			<point x="218" y="339" type="curve" smooth="yes"/>
			<point x="218" y="346" type="line" smooth="yes"/>
			<point x="218" y="495"/>
			<point x="292" y="556"/>
			<point x="415" y="556" type="curve" smooth="yes"/>
			<point x="469" y="556"/>
			<point x="510" y="546"/>
			<point x="551" y="526" type="curve"/>
			<point x="551" y="666" type="line"/>
			<point x="510" y="684"/>
			<point x="456" y="696"/>
			<point x="385" y="696" type="curve" smooth="yes"/>
			<point x="189" y="696"/>
			<point x="42" y="576"/>
			<point x="42" y="350" type="curve" smooth="yes"/>
			<point x="42" y="336" type="line" smooth="yes"/>
			<point x="42" y="133"/>
			<point x="144" y="15"/>
			<point x="317" y="-8" type="curve"/>
			<point x="279" y="-95" type="line"/>
			<point x="286" y="-93"/>
			<point x="300" y="-92"/>
			<point x="311" y="-92" type="curve" smooth="yes"/>
			<point x="344" y="-92"/>
			<point x="365" y="-100"/>
			<point x="365" y="-124" type="curve" smooth="yes"/>
			<point x="365" y="-146"/>
			<point x="348" y="-158"/>
			<point x="312" y="-158" type="curve" smooth="yes"/>
			<point x="293" y="-158"/>
			<point x="269" y="-154"/>
			<point x="245" y="-143" type="curve"/>
			<point x="245" y="-215" type="line"/>
			<point x="265" y="-226"/>
			<point x="303" y="-234"/>
		</contour>
	</outline>
</glyph>
<glyph name="Oslash" format="2">
	<unicode hex="00D8"/>
	<advance width="600"/>
	<outline>
		<contour>
			<point x="300" y="-14" type="curve" smooth="yes"/>
			<point x="469" y="-14"/>
			<point x="561" y="103"/>
			<point x="561" y="335" type="curve" smooth="yes"/>
			<point x="561" y="349" type="line" smooth="yes"/>
			<point x="561" y="448"/>
			<point x="544" y="525"/>
			<point x="512" y="582" type="curve"/>
			<point x="590" y="708" type="line"/>
			<point x="463" y="708" type="line"/>
			<point x="436" y="664" type="line"/>
			<point x="398" y="687"/>
			<point x="353" y="698"/>
			<point x="300" y="698" type="curve" smooth="yes"/>
			<point x="131" y="698"/>
			<point x="39" y="581"/>
			<point x="39" y="349" type="curve" smooth="yes"/>
			<point x="39" y="335" type="line" smooth="yes"/>
			<point x="39" y="236"/>
			<point x="56" y="159"/>
			<point x="88" y="102" type="curve"/>
			<point x="10" y="-24" type="line"/>
			<point x="137" y="-24" type="line"/>
			<point x="164" y="20" type="line"/>
			<point x="202" y="-3"/>
			<point x="247" y="-14"/>
		</contour>
		<contour>
			<point x="209" y="338" type="curve" smooth="yes"/>
			<point x="209" y="345" type="line" smooth="yes"/>
			<point x="209" y="514"/>
			<point x="242" y="561"/>
			<point x="300" y="561" type="curve" smooth="yes"/>
			<point x="327" y="561"/>
			<point x="348" y="551"/>
			<point x="363" y="524" type="curve"/>
			<point x="211" y="270" type="line"/>
			<point x="210" y="290"/>
			<point x="209" y="313"/>
		</contour>
		<contour>
			<point x="300" y="123" type="curve" smooth="yes"/>
			<point x="273" y="123"/>
			<point x="252" y="133"/>
			<point x="236" y="161" type="curve"/>
			<point x="389" y="415" type="line"/>
			<point x="390" y="395"/>
			<point x="391" y="371"/>
			<point x="391" y="345" type="curve" smooth="yes"/>
			<point x="391" y="338" type="line" smooth="yes"/>
			<point x="391" y="171"/>
			<point x="358" y="123"/>
		</contour>
	</outline>
</glyph>
<glyph name="ccedilla" format="2">
	<unicode hex="00E7"/>
	<advance width="600"/>
	<outline>
		<contour>
			<point x="329" y="-234" type="curve" smooth="yes"/>
			<point x="413" y="-234"/>
			<point x="461" y="-194"/>
			<point x="461" y="-125" type="curve" smooth="yes"/>
			<point x="461" y="-78"/>
			<point x="431" y="-46"/>
			<point x="372" y="-43" type="curve"/>
			<point x="387" y="-12" type="line"/>
			<point x="451" y="-9"/>
			<point x="494" y="6"/>
			<point x="520" y="21" type="curve"/>
			<point x="520" y="146" type="line"/>
			<point x="492" y="133"/>
			<point x="448" y="119"/>
			<point x="397" y="119" type="curve" smooth="yes"/>
			<point x="306" y="119"/>
			<point x="247" y="162"/>
			<point x="247" y="259" type="curve" smooth="yes"/>
			<point x="247" y="266" type="line" smooth="yes"/>
			<point x="247" y="362"/>
			<point x="304" y="404"/>
			<point x="398" y="404" type="curve" smooth="yes"/>
			<point x="446" y="404"/>
			<point x="490" y="394"/>
			<point x="520" y="377" type="curve"/>
			<point x="520" y="504" type="line"/>
			<point x="489" y="521"/>
			<point x="434" y="535"/>
			<point x="371" y="535" type="curve" smooth="yes"/>
			<point x="191" y="535"/>
			<point x="77" y="431"/>
			<point x="77" y="268" type="curve" smooth="yes"/>
			<point x="77" y="255" type="line" smooth="yes"/>
			<point x="77" y="108"/>
			<point x="157" y="11"/>
			<point x="307" y="-8" type="curve"/>
			<point x="270" y="-95" type="line"/>
			<point x="277" y="-93"/>
			<point x="291" y="-92"/>
			<point x="302" y="-92" type="curve" smooth="yes"/>
			<point x="335" y="-92"/>
			<point x="356" y="-100"/>
			<point x="356" y="-124" type="curve" smooth="yes"/>
			<point x="356" y="-146"/>
			<point x="339" y="-158"/>
			<point x="303" y="-158" type="curve" smooth="yes"/>
			<point x="284" y="-158"/>
			<point x="260" y="-154"/>
			<point x="236" y="-143" type="curve"/>
			<point x="236" y="-215" type="line"/>
			<point x="256" y="-226"/>
			<point x="294" y="-234"/>
		</contour>
	</outline>
</glyph>
<glyph name="eth" format="2">
	<unicode hex="00F0"/>
	<advance width="600"/>
	<outline>
		<contour>
			<point x="288" y="-14" type="curve" smooth="yes"/>
			<point x="451" y="-14"/>
			<point x="563" y="82"/>
			<point x="563" y="287" type="curve" smooth="yes"/>
			<point x="563" y="301" type="line" smooth="yes"/>
			<point x="563" y="437"/>
			<point x="523" y="546"/>
			<point x="465" y="630" type="curve"/>
			<point x="536" y="653" type="line"/>
			<point x="536" y="746" type="line"/>
			<point x="405" y="704" type="line"/>
			<point x="388" y="721"/>
			<point x="371" y="736"/>
			<point x="353" y="750" type="curve"/>
			<point x="134" y="750" type="line"/>
			<point x="174" y="715"/>
			<point x="209" y="683"/>
			<point x="239" y="651" type="curve"/>
			<point x="147" y="621" type="line"/>
			<point x="147" y="529" type="line"/>
			<point x="299" y="577" type="line"/>
			<point x="336" y="525"/>
			<point x="362" y="468"/>
			<point x="381" y="398" type="curve"/>
			<point x="339" y="462"/>
			<point x="286" y="498"/>
			<point x="224" y="498" type="curve" smooth="yes"/>
			<point x="105" y="498"/>
			<point x="37" y="397"/>
			<point x="37" y="256" type="curve" smooth="yes"/>
			<point x="37" y="242" type="line" smooth="yes"/>
			<point x="37" y="74"/>
			<point x="139" y="-14"/>
		</contour>
		<contour>
			<point x="301" y="115" type="curve" smooth="yes"/>
			<point x="241" y="115"/>
			<point x="207" y="160"/>
			<point x="207" y="244" type="curve" smooth="yes"/>
			<point x="207" y="251" type="line" smooth="yes"/>
			<point x="207" y="336"/>
			<point x="243" y="378"/>
			<point x="300" y="378" type="curve" smooth="yes"/>
			<point x="359" y="378"/>
			<point x="395" y="336"/>
			<point x="395" y="252" type="curve" smooth="yes"/>
			<point x="395" y="245" type="line" smooth="yes"/>
			<point x="395" y="160"/>
			<point x="360" y="115"/>
		</contour>
	</outline>
</glyph>
<glyph name="divide" format="2">
	<unicode hex="00F7"/>
	<advance width="600"/>
	<outline>
		<contour>
			<point x="300" y="426" type="curve" smooth="yes"/>
			<point x="369" y="426"/>
			<point x="405" y="447"/>
			<point x="405" y="502" type="curve" smooth="yes"/>
			<point x="405" y="557"/>
			<point x="369" y="578"/>
			<point x="300" y="578" type="curve" smooth="yes"/>
			<point x="230" y="578"/>
			<point x="195" y="557"/>
			<point x="195" y="502" type="curve" smooth="yes"/>
			<point x="195" y="447"/>
			<point x="230" y="426"/>
		</contour>
		<contour>
			<point x="62" y="224" type="line"/>
			<point x="538" y="224" type="line"/>
			<point x="538" y="362" type="line"/>
			<point x="62" y="362" type="line"/>
		</contour>
		<contour>
			<point x="299" y="7" type="curve" smooth="yes"/>
			<point x="368" y="7"/>
			<point x="404" y="28"/>
			<point x="404" y="84" type="curve" smooth="yes"/>
			<point x="404" y="139"/>
			<point x="368" y="159"/>
			<point x="299" y="159" type="curve" smooth="yes"/>
			<point x="230" y="159"/>
			<point x="194" y="139"/>
			<point x="194" y="84" type="curve" smooth="yes"/>
			<point x="194" y="28"/>
			<point x="230" y="7"/>
		</contour>
	</outline>
</glyph>
<glyph name="thorn" format="2">
	<unicode hex="00FE"/>
	<advance width="600"/>
	<outline>
		<contour>
			<point x="54" y="750" type="line"/>
			<point x="54" y="-204" type="line"/>
			<point x="221" y="-204" type="line"/>
			<point x="221" y="85" type="line"/>
			<point x="258" y="19"/>
			<point x="307" y="-14"/>
			<point x="377" y="-14" type="curve" smooth="yes"/>
			<point x="482" y="-14"/>
			<point x="560" y="82"/>
			<point x="560" y="255" type="curve" smooth="yes"/>
			<point x="560" y="269" type="line" smooth="yes"/>
			<point x="560" y="437"/>
			<point x="497" y="537"/>
			<point x="386" y="537" type="curve" smooth="yes"/>
			<point x="310" y="537"/>
			<point x="257" y="490"/>
			<point x="221" y="423" type="curve"/>
			<point x="221" y="750" type="line"/>
		</contour>
		<contour>
			<point x="302" y="115" type="curve" smooth="yes"/>
			<point x="262" y="115"/>
			<point x="234" y="139"/>
			<point x="221" y="187" type="curve"/>
			<point x="221" y="189" type="line"/>
			<point x="220" y="189" type="line"/>
			<point x="216" y="208"/>
			<point x="213" y="231"/>
			<point x="213" y="258" type="curve" smooth="yes"/>
			<point x="213" y="265" type="line" smooth="yes"/>
			<point x="213" y="362"/>
			<point x="247" y="409"/>
			<point x="303" y="409" type="curve" smooth="yes"/>
			<point x="359" y="409"/>
			<point x="390" y="365"/>
			<point x="390" y="265" type="curve" smooth="yes"/>
			<point x="390" y="258" type="line" smooth="yes"/>
			<point x="390" y="159"/>
			<point x="360" y="115"/>
		</contour>
	</outline>
</glyph>
<glyph name="dcaron" format="2">
	<unicode hex="010F"/>
	<advance width="600"/>
	<outline>
		<contour>
			<point x="201" y="-13" type="curve" smooth="yes"/>
			<point x="269" y="-13"/>
			<point x="325" y="33"/>
			<point x="364" y="106" type="curve"/>
			<point x="364" y="0" type="line"/>
			<point x="511" y="0" type="line"/>
			<point x="511" y="750" type="line"/>
			<point x="356" y="750" type="line"/>
			<point x="356" y="430" type="line"/>
			<point x="326" y="489"/>
			<point x="279" y="537"/>
			<point x="209" y="537" type="curve" smooth="yes"/>
			<point x="109" y="537"/>
			<point x="40" y="437"/>
			<point x="40" y="266" type="curve" smooth="yes"/>
			<point x="40" y="255" type="line" smooth="yes"/>
			<point x="40" y="93"/>
			<point x="88" y="-13"/>
		</contour>
		<contour>
			<point x="556" y="555" type="line"/>
			<point x="634" y="555" type="line"/>
			<point x="699" y="750" type="line"/>
			<point x="561" y="750" type="line"/>
		</contour>
		<contour>
			<point x="276" y="112" type="curve" smooth="yes"/>
			<point x="226" y="112"/>
			<point x="197" y="151"/>
			<point x="197" y="257" type="curve" smooth="yes"/>
			<point x="197" y="263" type="line" smooth="yes"/>
			<point x="197" y="365"/>
			<point x="226" y="410"/>
			<point x="278" y="410" type="curve" smooth="yes"/>
			<point x="329" y="410"/>
			<point x="362" y="365"/>
			<point x="362" y="263" type="curve" smooth="yes"/>
			<point x="362" y="259" type="line" smooth="yes"/>
			<point x="362" y="151"/>
			<point x="328" y="112"/>
		</contour>
	</outline>
</glyph>
<glyph name="eogonek" format="2">
	<unicode hex="0119"/>
	<advance width="600"/>
	<outline>
		<contour>
			<point x="390" y="-203" type="curve" smooth="yes"/>
			<point x="424" y="-203"/>
			<point x="450" y="-198"/>
			<point x="468" y="-192" type="curve"/>
			<point x="468" y="-93" type="line"/>
			<point x="465" y="-94"/>
			<point x="455" y="-95"/>
			<point x="441" y="-95" type="curve" smooth="yes"/>
			<point x="413" y="-95"/>
			<point x="391" y="-86"/>
			<point x="391" y="-60" type="curve" smooth="yes"/>
			<point x="391" y="-36"/>
			<point x="410" y="-14"/>
			<point x="459" y="0" type="curve"/>
			<point x="458" y="0" type="line"/>
			<point x="484" y="7"/>
			<point x="508" y="15"/>
			<point x="529" y="26" type="curve"/>
			<point x="529" y="146" type="line"/>
			<point x="483" y="129"/>
			<point x="428" y="118"/>
			<point x="377" y="118" type="curve" smooth="yes"/>
			<point x="278" y="118"/>
			<point x="220" y="156"/>
			<point x="212" y="219" type="curve"/>
			<point x="554" y="219" type="line"/>
			<point x="554" y="282" type="line" smooth="yes"/>
			<point x="554" y="449"/>
			<point x="461" y="537"/>
			<point x="305" y="537" type="curve" smooth="yes"/>
			<point x="155" y="537"/>
			<point x="47" y="434"/>
			<point x="47" y="269" type="curve" smooth="yes"/>
			<point x="47" y="255" type="line" smooth="yes"/>
			<point x="47" y="78"/>
			<point x="154" y="-10"/>
			<point x="327" y="-14" type="curve"/>
			<point x="285" y="-37"/>
			<point x="261" y="-71"/>
			<point x="261" y="-111" type="curve" smooth="yes"/>
			<point x="261" y="-169"/>
			<point x="301" y="-203"/>
		</contour>
		<contour>
			<point x="305" y="422" type="curve" smooth="yes"/>
			<point x="359" y="422"/>
			<point x="391" y="384"/>
			<point x="395" y="313" type="curve"/>
			<point x="209" y="313" type="line"/>
			<point x="213" y="376"/>
			<point x="245" y="422"/>
		</contour>
	</outline>
</glyph>
<glyph name="Hbar" format="2">
	<unicode hex="0126"/>
	<advance width="600"/>
	<outline>
		<contour>
			<point x="51" y="0" type="line"/>
			<point x="220" y="0" type="line"/>
			<point x="220" y="255" type="line"/>
			<point x="380" y="255" type="line"/>
			<point x="380" y="0" type="line"/>
			<point x="549" y="0" type="line"/>
			<point x="549" y="484" type="line"/>
			<point x="600" y="484" type="line"/>
			<point x="600" y="580" type="line"/>
			<point x="549" y="580" type="line"/>
			<point x="549" y="684" type="line"/>
			<point x="380" y="684" type="line"/>
			<point x="380" y="580" type="line"/>
			<point x="220" y="580" type="line"/>
			<point x="220" y="684" type="line"/>
			<point x="51" y="684" type="line"/>
			<point x="51" y="580" type="line"/>
			<point x="0" y="580" type="line"/>
			<point x="0" y="484" type="line"/>
			<point x="51" y="484" type="line"/>
		</contour>
		<contour>
			<point x="220" y="394" type="line"/>
			<point x="220" y="484" type="line"/>
			<point x="380" y="484" type="line"/>
			<point x="380" y="394" type="line"/>
		</contour>
	</outline>
	<anchor name="center" x="300" y="539"/>
	<anchor name="bottom" x="297" y="0"/>
	<anchor name="top" x="300" y="684"/>
</glyph>
<glyph name="hbar" format="2">
	<unicode hex="0127"/>
	<advance width="600"/>
	<outline>
		<contour>
			<point x="6" y="585" type="line"/>
			<point x="61" y="585" type="line"/>
			<point x="61" y="0" type="line"/>
			<point x="228" y="0" type="line"/>
			<point x="228" y="313" type="line" smooth="yes"/>
			<point x="228" y="336"/>
			<point x="234" y="354"/>
			<point x="244" y="368" type="curve" smooth="yes"/>
			<point x="258" y="387"/>
			<point x="278" y="400"/>
			<point x="307" y="400" type="curve" smooth="yes"/>
			<point x="358" y="400"/>
			<point x="377" y="366"/>
			<point x="377" y="309" type="curve" smooth="yes"/>
			<point x="377" y="0" type="line"/>
			<point x="544" y="0" type="line"/>
			<point x="544" y="347" type="line" smooth="yes"/>
			<point x="544" y="475"/>
			<point x="495" y="537"/>
			<point x="397" y="537" type="curve" smooth="yes"/>
			<point x="321" y="537"/>
			<point x="269" y="489"/>
			<point x="228" y="421" type="curve"/>
			<point x="228" y="585" type="line"/>
			<point x="368" y="585" type="line"/>
			<point x="368" y="674" type="line"/>
			<point x="228" y="674" type="line"/>
			<point x="228" y="750" type="line"/>
			<point x="61" y="750" type="line"/>
			<point x="61" y="674" type="line"/>
			<point x="6" y="674" type="line"/>
		</contour>
	</outline>
</glyph>
<glyph name="dotlessi" format="2">
	<unicode hex="0131"/>
	<advance width="600"/>
	<outline>
		<contour>
			<point x="68" y="0" type="line"/>
			<point x="561" y="0" type="line"/>
			<point x="561" y="129" type="line"/>
			<point x="405" y="129" type="line"/>
			<point x="405" y="523" type="line"/>
			<point x="70" y="523" type="line"/>
			<point x="70" y="394" type="line"/>
			<point x="237" y="394" type="line"/>
			<point x="237" y="129" type="line"/>
			<point x="68" y="129" type="line"/>
		</contour>
	</outline>
	<anchor name="ogonek" x="561" y="0"/>
	<anchor name="top" x="321" y="523"/>
</glyph>
<glyph name="IJ" format="2">
	<unicode hex="0132"/>
	<advance width="600"/>
	<outline>
		<contour>
			<point x="256" y="-12" type="curve" smooth="yes"/>
			<point x="411" y="-12"/>
			<point x="529" y="53"/>
			<point x="529" y="235" type="curve" smooth="yes"/>
			<point x="529" y="684" type="line"/>
			<point x="362" y="684" type="line"/>
			<point x="362" y="260" type="line" smooth="yes"/>
			<point x="362" y="168"/>
			<point x="319" y="128"/>
			<point x="230" y="128" type="curve" smooth="yes"/>
			<point x="176" y="128"/>
			<point x="113" y="142"/>
			<point x="70" y="159" type="curve"/>
			<point x="70" y="21" type="line"/>
			<point x="118" y="0"/>
			<point x="170" y="-12"/>
		</contour>
		<contour>
			<point x="72" y="229" type="line"/>
			<point x="235" y="229" type="line"/>
			<point x="235" y="684" type="line"/>
			<point x="71" y="684" type="line"/>
		</contour>
	</outline>
</glyph>
<glyph name="ij" format="2">
	<unicode hex="0133"/>
	<advance width="600"/>
	<outline>
		<contour>
			<point x="159" y="596" type="curve" smooth="yes"/>
			<point x="231" y="596"/>
			<point x="259" y="620"/>
			<point x="259" y="676" type="curve" smooth="yes"/>
			<point x="259" y="731"/>
			<point x="229" y="756"/>
			<point x="159" y="756" type="curve" smooth="yes"/>
			<point x="92" y="756"/>
			<point x="61" y="732"/>
			<point x="61" y="676" type="curve" smooth="yes"/>
			<point x="61" y="620"/>
			<point x="89" y="596"/>
		</contour>
		<contour>
			<point x="439" y="596" type="curve" smooth="yes"/>
			<point x="511" y="596"/>
			<point x="539" y="620"/>
			<point x="539" y="676" type="curve" smooth="yes"/>
			<point x="539" y="731"/>
			<point x="509" y="756"/>
			<point x="439" y="756" type="curve" smooth="yes"/>
			<point x="372" y="756"/>
			<point x="341" y="732"/>
			<point x="341" y="676" type="curve" smooth="yes"/>
			<point x="341" y="620"/>
			<point x="369" y="596"/>
		</contour>
		<contour>
			<point x="289" y="-204" type="curve" smooth="yes"/>
			<point x="412" y="-204"/>
			<point x="524" y="-157"/>
			<point x="524" y="4" type="curve" smooth="yes"/>
			<point x="524" y="523" type="line"/>
			<point x="356" y="523" type="line"/>
			<point x="356" y="16" type="line" smooth="yes"/>
			<point x="356" y="-45"/>
			<point x="325" y="-70"/>
			<point x="257" y="-70" type="curve" smooth="yes"/>
			<point x="217" y="-70"/>
			<point x="181" y="-62"/>
			<point x="157" y="-55" type="curve"/>
			<point x="157" y="-183" type="line"/>
			<point x="188" y="-195"/>
			<point x="241" y="-204"/>
		</contour>
		<contour>
			<point x="76" y="0" type="line"/>
			<point x="243" y="0" type="line"/>
			<point x="243" y="523" type="line"/>
			<point x="76" y="523" type="line"/>
		</contour>
	</outline>
</glyph>
<glyph name="kgreenlandic" format="2">
	<unicode hex="0138"/>
	<advance width="600"/>
	<outline>
		<contour>
			<point x="64" y="0" type="line"/>
			<point x="230" y="0" type="line"/>
			<point x="230" y="135" type="line"/>
			<point x="291" y="214" type="line"/>
			<point x="400" y="0" type="line"/>
			<point x="585" y="0" type="line"/>
			<point x="423" y="311" type="line"/>
			<point x="576" y="525" type="line"/>
			<point x="393" y="525" type="line"/>
			<point x="230" y="288" type="line"/>
			<point x="230" y="524" type="line"/>
			<point x="64" y="524" type="line"/>
		</contour>
	</outline>
</glyph>
<glyph name="Lslash" format="2">
	<unicode hex="0141"/>
	<advance width="600"/>
	<outline>
		<contour>
			<point x="79" y="0" type="line"/>
			<point x="559" y="0" type="line"/>
			<point x="559" y="155" type="line"/>
			<point x="249" y="155" type="line"/>
			<point x="249" y="322" type="line"/>
			<point x="415" y="385" type="line"/>
			<point x="415" y="498" type="line"/>
			<point x="249" y="435" type="line"/>
			<point x="249" y="684" type="line"/>
			<point x="79" y="684" type="line"/>
			<point x="79" y="370" type="line"/>
			<point x="4" y="342" type="line"/>
			<point x="4" y="229" type="line"/>
			<point x="79" y="257" type="line"/>
		</contour>
	</outline>
</glyph>
<glyph name="lslash" format="2">
	<unicode hex="0142"/>
	<advance width="600"/>
	<outline>
		<contour>
			<point x="60" y="0" type="line"/>
			<point x="552" y="0" type="line"/>
			<point x="552" y="129" type="line"/>
			<point x="396" y="129" type="line"/>
			<point x="396" y="351" type="line"/>
			<point x="534" y="402" type="line"/>
			<point x="534" y="513" type="line"/>
			<point x="396" y="462" type="line"/>
			<point x="396" y="750" type="line"/>
			<point x="61" y="750" type="line"/>
			<point x="61" y="621" type="line"/>
			<point x="228" y="621" type="line"/>
			<point x="228" y="400" type="line"/>
			<point x="86" y="348" type="line"/>
			<point x="86" y="236" type="line"/>
			<point x="228" y="289" type="line"/>
			<point x="228" y="129" type="line"/>
			<point x="60" y="129" type="line"/>
		</contour>
	</outline>
</glyph>
<glyph name="Eng" format="2">
	<unicode hex="014A"/>
	<advance width="600"/>
	<outline>
		<contour>
			<point x="340" y="-206" type="curve" smooth="yes"/>
			<point x="457" y="-206"/>
			<point x="550" y="-152"/>
			<point x="550" y="-11" type="curve" smooth="yes"/>
			<point x="550" y="684" type="line"/>
			<point x="407" y="684" type="line"/>
			<point x="407" y="460" type="line" smooth="yes"/>
			<point x="407" y="358"/>
			<point x="416" y="294"/>
			<point x="430" y="195" type="curve"/>
			<point x="420" y="195" type="line"/>
			<point x="242" y="684" type="line"/>
			<point x="50" y="684" type="line"/>
			<point x="50" y="0" type="line"/>
			<point x="193" y="0" type="line"/>
			<point x="193" y="224" type="line" smooth="yes"/>
			<point x="193" y="309"/>
			<point x="182" y="390"/>
			<point x="171" y="489" type="curve"/>
			<point x="180" y="489" type="line"/>
			<point x="358" y="0" type="line"/>
			<point x="397" y="0" type="line" smooth="yes"/>
			<point x="397" y="-57"/>
			<point x="370" y="-85"/>
			<point x="303" y="-85" type="curve" smooth="yes"/>
			<point x="273" y="-85"/>
			<point x="248" y="-82"/>
			<point x="226" y="-76" type="curve"/>
			<point x="226" y="-193" type="line"/>
			<point x="254" y="-200"/>
			<point x="290" y="-206"/>
		</contour>
	</outline>
	<anchor name="top" x="343" y="720"/>
	<anchor name="bottom" x="298" y="0"/>
</glyph>
<glyph name="eng" format="2">
	<unicode hex="014B"/>
	<advance width="600"/>
	<outline>
		<contour>
			<point x="350" y="-212" type="curve" smooth="yes"/>
			<point x="458" y="-212"/>
			<point x="544" y="-165"/>
			<point x="544" y="-22" type="curve" smooth="yes"/>
			<point x="544" y="347" type="line" smooth="yes"/>
			<point x="544" y="475"/>
			<point x="495" y="537"/>
			<point x="396" y="537" type="curve" smooth="yes"/>
			<point x="315" y="537"/>
			<point x="262" y="484"/>
			<point x="220" y="410" type="curve"/>
			<point x="220" y="523" type="line"/>
			<point x="61" y="523" type="line"/>
			<point x="61" y="0" type="line"/>
			<point x="228" y="0" type="line"/>
			<point x="228" y="313" type="line" smooth="yes"/>
			<point x="228" y="336"/>
			<point x="234" y="354"/>
			<point x="244" y="368" type="curve" smooth="yes"/>
			<point x="258" y="387"/>
			<point x="278" y="400"/>
			<point x="306" y="400" type="curve" smooth="yes"/>
			<point x="358" y="400"/>
			<point x="377" y="366"/>
			<point x="377" y="309" type="curve" smooth="yes"/>
			<point x="377" y="-15" type="line" smooth="yes"/>
			<point x="377" y="-56"/>
			<point x="353" y="-81"/>
			<point x="302" y="-81" type="curve" smooth="yes"/>
			<point x="286" y="-81"/>
			<point x="269" y="-78"/>
			<point x="260" y="-76" type="curve"/>
			<point x="260" y="-200" type="line"/>
			<point x="283" y="-207"/>
			<point x="315" y="-212"/>
		</contour>
	</outline>
</glyph>
<glyph name="oe" format="2">
	<unicode hex="0153"/>
	<advance width="600"/>
	<outline>
		<contour>
			<point x="139" y="-14" type="curve" smooth="yes"/>
			<point x="187" y="-14"/>
			<point x="227" y="14"/>
			<point x="252" y="102" type="curve"/>
			<point x="280" y="26"/>
			<point x="340" y="-14"/>
			<point x="428" y="-14" type="curve" smooth="yes"/>
			<point x="491" y="-14"/>
			<point x="538" y="3"/>
			<point x="570" y="23" type="curve"/>
			<point x="570" y="140" type="line"/>
			<point x="533" y="122"/>
			<point x="493" y="113"/>
			<point x="456" y="113" type="curve" smooth="yes"/>
			<point x="393" y="113"/>
			<point x="362" y="145"/>
			<point x="358" y="220" type="curve"/>
			<point x="592" y="220" type="line"/>
			<point x="592" y="282" type="line" smooth="yes"/>
			<point x="592" y="450"/>
			<point x="533" y="536"/>
			<point x="423" y="536" type="curve" smooth="yes"/>
			<point x="374" y="536"/>
			<point x="338" y="518"/>
			<point x="309" y="485" type="curve"/>
			<point x="283" y="517"/>
			<point x="244" y="536"/>
			<point x="192" y="536" type="curve" smooth="yes"/>
			<point x="65" y="536"/>
			<point x="9" y="439"/>
			<point x="9" y="260" type="curve" smooth="yes"/>
			<point x="9" y="246" type="line" smooth="yes"/>
			<point x="9" y="88"/>
			<point x="47" y="-14"/>
		</contour>
		<contour>
			<point x="415" y="423" type="curve" smooth="yes"/>
			<point x="451" y="423"/>
			<point x="466" y="383"/>
			<point x="467" y="310" type="curve"/>
			<point x="357" y="310" type="line"/>
			<point x="359" y="383"/>
			<point x="378" y="423"/>
		</contour>
		<contour>
			<point x="190" y="113" type="curve" smooth="yes"/>
			<point x="155" y="113"/>
			<point x="139" y="150"/>
			<point x="139" y="262" type="curve" smooth="yes"/>
			<point x="139" y="269" type="line" smooth="yes"/>
			<point x="139" y="384"/>
			<point x="155" y="419"/>
			<point x="192" y="419" type="curve" smooth="yes"/>
			<point x="229" y="419"/>
			<point x="244" y="384"/>
			<point x="244" y="269" type="curve" smooth="yes"/>
			<point x="244" y="262" type="line" smooth="yes"/>
			<point x="244" y="152"/>
			<point x="227" y="113"/>
		</contour>
	</outline>
</glyph>
<glyph name="Scedilla" format="2">
	<unicode hex="015E"/>
	<advance width="600"/>
	<outline>
		<contour>
			<point x="281" y="-234" type="curve" smooth="yes"/>
			<point x="365" y="-234"/>
			<point x="413" y="-194"/>
			<point x="413" y="-125" type="curve" smooth="yes"/>
			<point x="413" y="-78"/>
			<point x="383" y="-46"/>
			<point x="324" y="-43" type="curve"/>
			<point x="339" y="-13" type="line"/>
			<point x="474" y="-2"/>
			<point x="560" y="75"/>
			<point x="560" y="220" type="curve" smooth="yes"/>
			<point x="560" y="366"/>
			<point x="454" y="399"/>
			<point x="321" y="424" type="curve" smooth="yes"/>
			<point x="247" y="437"/>
			<point x="211" y="451"/>
			<point x="211" y="497" type="curve" smooth="yes"/>
			<point x="211" y="543"/>
			<point x="247" y="563"/>
			<point x="299" y="563" type="curve" smooth="yes"/>
			<point x="381" y="563"/>
			<point x="478" y="536"/>
			<point x="541" y="495" type="curve"/>
			<point x="541" y="642" type="line"/>
			<point x="489" y="673"/>
			<point x="392" y="698"/>
			<point x="303" y="698" type="curve" smooth="yes"/>
			<point x="147" y="698"/>
			<point x="42" y="620"/>
			<point x="42" y="473" type="curve" smooth="yes"/>
			<point x="42" y="319"/>
			<point x="139" y="291"/>
			<point x="282" y="265" type="curve" smooth="yes"/>
			<point x="350" y="253"/>
			<point x="391" y="240"/>
			<point x="391" y="192" type="curve" smooth="yes"/>
			<point x="391" y="147"/>
			<point x="358" y="124"/>
			<point x="303" y="124" type="curve" smooth="yes"/>
			<point x="230" y="124"/>
			<point x="136" y="150"/>
			<point x="52" y="206" type="curve"/>
			<point x="52" y="53" type="line"/>
			<point x="104" y="22"/>
			<point x="170" y="-5"/>
			<point x="258" y="-12" type="curve"/>
			<point x="222" y="-95" type="line"/>
			<point x="229" y="-93"/>
			<point x="243" y="-92"/>
			<point x="254" y="-92" type="curve" smooth="yes"/>
			<point x="287" y="-92"/>
			<point x="308" y="-100"/>
			<point x="308" y="-124" type="curve" smooth="yes"/>
			<point x="308" y="-146"/>
			<point x="291" y="-158"/>
			<point x="255" y="-158" type="curve" smooth="yes"/>
			<point x="236" y="-158"/>
			<point x="212" y="-154"/>
			<point x="188" y="-143" type="curve"/>
			<point x="188" y="-215" type="line"/>
			<point x="208" y="-226"/>
			<point x="246" y="-234"/>
		</contour>
	</outline>
</glyph>
<glyph name="scedilla" format="2">
	<unicode hex="015F"/>
	<advance width="600"/>
	<outline>
		<contour>
			<point x="279" y="-234" type="curve" smooth="yes"/>
			<point x="363" y="-234"/>
			<point x="411" y="-194"/>
			<point x="411" y="-125" type="curve" smooth="yes"/>
			<point x="411" y="-78"/>
			<point x="381" y="-46"/>
			<point x="322" y="-43" type="curve"/>
			<point x="337" y="-12" type="line"/>
			<point x="466" y="1"/>
			<point x="530" y="69"/>
			<point x="530" y="175" type="curve" smooth="yes"/>
			<point x="530" y="291"/>
			<point x="436" y="315"/>
			<point x="318" y="335" type="curve" smooth="yes"/>
			<point x="259" y="345"/>
			<point x="228" y="352"/>
			<point x="228" y="382" type="curve" smooth="yes"/>
			<point x="228" y="408"/>
			<point x="250" y="422"/>
			<point x="298" y="422" type="curve" smooth="yes"/>
			<point x="373" y="422"/>
			<point x="458" y="399"/>
			<point x="520" y="363" type="curve"/>
			<point x="520" y="492" type="line"/>
			<point x="465" y="518"/>
			<point x="396" y="537"/>
			<point x="299" y="537" type="curve" smooth="yes"/>
			<point x="162" y="537"/>
			<point x="70" y="474"/>
			<point x="70" y="357" type="curve" smooth="yes"/>
			<point x="70" y="240"/>
			<point x="145" y="211"/>
			<point x="283" y="190" type="curve" smooth="yes"/>
			<point x="344" y="181"/>
			<point x="371" y="175"/>
			<point x="371" y="145" type="curve" smooth="yes"/>
			<point x="371" y="117"/>
			<point x="347" y="103"/>
			<point x="297" y="103" type="curve" smooth="yes"/>
			<point x="232" y="103"/>
			<point x="142" y="123"/>
			<point x="80" y="161" type="curve"/>
			<point x="80" y="37" type="line"/>
			<point x="119" y="13"/>
			<point x="189" y="-7"/>
			<point x="256" y="-12" type="curve"/>
			<point x="220" y="-95" type="line"/>
			<point x="227" y="-93"/>
			<point x="241" y="-92"/>
			<point x="252" y="-92" type="curve" smooth="yes"/>
			<point x="285" y="-92"/>
			<point x="306" y="-100"/>
			<point x="306" y="-124" type="curve" smooth="yes"/>
			<point x="306" y="-146"/>
			<point x="289" y="-158"/>
			<point x="253" y="-158" type="curve" smooth="yes"/>
			<point x="234" y="-158"/>
			<point x="210" y="-154"/>
			<point x="186" y="-143" type="curve"/>
			<point x="186" y="-215" type="line"/>
			<point x="206" y="-226"/>
			<point x="244" y="-234"/>
		</contour>
	</outline>
</glyph>
<glyph name="Tbar" format="2">
	<unicode hex="0166"/>
	<advance width="600"/>
	<outline>
		<contour>
			<point x="214" y="0" type="line"/>
			<point x="384" y="0" type="line"/>
			<point x="384" y="276" type="line"/>
			<point x="499" y="276" type="line"/>
			<point x="499" y="384" type="line"/>
			<point x="384" y="384" type="line"/>
			<point x="384" y="539" type="line"/>
			<point x="575" y="539" type="line"/>
			<point x="575" y="684" type="line"/>
			<point x="25" y="684" type="line"/>
			<point x="25" y="539" type="line"/>
			<point x="214" y="539" type="line"/>
			<point x="214" y="384" type="line"/>
			<point x="100" y="384" type="line"/>
			<point x="100" y="276" type="line"/>
			<point x="214" y="276" type="line"/>
		</contour>
	</outline>
</glyph>
<glyph name="oslashacute" format="2">
	<unicode hex="01FF"/>
	<advance width="600"/>
	<outline>
		<contour>
			<point x="465" y="750" type="line"/>
			<point x="284" y="750" type="line"/>
			<point x="236" y="599" type="line"/>
			<point x="360" y="599" type="line"/>
		</contour>
		<contour>
			<point x="300" y="-14" type="curve" smooth="yes"/>
			<point x="458" y="-14"/>
			<point x="560" y="88"/>
			<point x="560" y="255" type="curve" smooth="yes"/>
			<point x="560" y="269" type="line" smooth="yes"/>
			<point x="560" y="340"/>
			<point x="541" y="400"/>
			<point x="507" y="445" type="curve"/>
			<point x="588" y="548" type="line"/>
			<point x="463" y="548" type="line"/>
			<point x="431" y="508" type="line"/>
			<point x="394" y="527"/>
			<point x="350" y="537"/>
			<point x="300" y="537" type="curve" smooth="yes"/>
			<point x="142" y="537"/>
			<point x="40" y="433"/>
			<point x="40" y="269" type="curve" smooth="yes"/>
			<point x="40" y="255" type="line" smooth="yes"/>
			<point x="40" y="183"/>
			<point x="59" y="123"/>
			<point x="93" y="79" type="curve"/>
			<point x="12" y="-23" type="line"/>
			<point x="138" y="-23" type="line"/>
			<point x="168" y="15" type="line"/>
			<point x="206" y="-4"/>
			<point x="250" y="-14"/>
		</contour>
		<contour>
			<point x="210" y="258" type="curve" smooth="yes"/>
			<point x="210" y="265" type="line" smooth="yes"/>
			<point x="210" y="366"/>
			<point x="242" y="409"/>
			<point x="300" y="409" type="curve" smooth="yes"/>
			<point x="322" y="409"/>
			<point x="341" y="403"/>
			<point x="355" y="389" type="curve"/>
			<point x="213" y="208" type="line"/>
			<point x="211" y="223"/>
			<point x="210" y="239"/>
		</contour>
		<contour>
			<point x="300" y="115" type="curve" smooth="yes"/>
			<point x="278" y="115"/>
			<point x="260" y="121"/>
			<point x="245" y="135" type="curve"/>
			<point x="388" y="316" type="line"/>
			<point x="390" y="301"/>
			<point x="391" y="284"/>
			<point x="391" y="265" type="curve" smooth="yes"/>
			<point x="391" y="258" type="line" smooth="yes"/>
			<point x="391" y="158"/>
			<point x="358" y="115"/>
		</contour>
	</outline>
</glyph>
<glyph name="circumflex" format="2">
	<unicode hex="02C6"/>
	<advance width="600"/>
	<outline>
		<contour>
			<point x="101" y="599" type="line"/>
			<point x="243" y="599" type="line"/>
			<point x="299" y="684" type="line"/>
			<point x="354" y="599" type="line"/>
			<point x="499" y="599" type="line"/>
			<point x="390" y="750" type="line"/>
			<point x="210" y="750" type="line"/>
		</contour>
	</outline>
	<anchor name="_top" x="300" y="523"/>
</glyph>
<glyph name="breve" format="2">
	<unicode hex="02D8"/>
	<advance width="600"/>
	<outline>
		<contour>
			<point x="297" y="588" type="curve" smooth="yes"/>
			<point x="419" y="588"/>
			<point x="472" y="634"/>
			<point x="472" y="750" type="curve"/>
			<point x="352" y="750" type="line"/>
			<point x="352" y="694"/>
			<point x="339" y="677"/>
			<point x="300" y="677" type="curve" smooth="yes"/>
			<point x="260" y="677"/>
			<point x="248" y="695"/>
			<point x="248" y="750" type="curve"/>
			<point x="128" y="750" type="line"/>
			<point x="128" y="634"/>
			<point x="176" y="588"/>
		</contour>
	</outline>
	<anchor name="_top" x="300" y="523"/>
</glyph>
<glyph name="dotaccent" format="2">
	<unicode hex="02D9"/>
	<advance width="600"/>
	<outline>
		<contour>
			<point x="299" y="593" type="curve" smooth="yes"/>
			<point x="371" y="593"/>
			<point x="399" y="618"/>
			<point x="399" y="673" type="curve" smooth="yes"/>
			<point x="399" y="728"/>
			<point x="369" y="753"/>
			<point x="299" y="753" type="curve" smooth="yes"/>
			<point x="232" y="753"/>
			<point x="201" y="729"/>
			<point x="201" y="673" type="curve" smooth="yes"/>
			<point x="201" y="618"/>
			<point x="229" y="593"/>
		</contour>
	</outline>
	<anchor name="_top" x="300" y="523"/>
</glyph>
<glyph name="hungarumlaut" format="2">
	<unicode hex="02DD"/>
	<advance width="600"/>
	<outline>
		<contour>
			<point x="310" y="599" type="line"/>
			<point x="420" y="599" type="line"/>
			<point x="507" y="750" type="line"/>
			<point x="356" y="750" type="line"/>
		</contour>
		<contour>
			<point x="107" y="599" type="line"/>
			<point x="217" y="599" type="line"/>
			<point x="303" y="750" type="line"/>
			<point x="152" y="750" type="line"/>
		</contour>
	</outline>
	<anchor name="_top" x="264" y="523"/>
</glyph>
<glyph name="quoteleft" format="2">
	<unicode hex="2018"/>
	<advance width="600"/>
	<outline>
		<contour>
			<point x="363" y="438" type="line"/>
			<point x="405" y="750" type="line"/>
			<point x="297" y="750" type="line"/>
			<point x="178" y="438" type="line"/>
		</contour>
	</outline>
</glyph>
<glyph name="quotesinglbase" format="2">
	<unicode hex="201A"/>
	<advance width="600"/>
	<outline>
		<contour>
			<point x="237" y="171" type="line"/>
			<point x="195" y="-141" type="line"/>
			<point x="303" y="-141" type="line"/>
			<point x="422" y="171" type="line"/>
		</contour>
	</outline>
</glyph>
<glyph name="dagger" format="2">
	<unicode hex="2020"/>
	<advance width="600"/>
	<outline>
		<contour>
			<point x="50" y="570" type="line"/>
			<point x="50" y="421" type="line"/>
			<point x="218" y="421" type="line"/>
			<point x="218" y="-143" type="line"/>
			<point x="381" y="-143" type="line"/>
			<point x="381" y="421" type="line"/>
			<point x="550" y="421" type="line"/>
			<point x="550" y="570" type="line"/>
			<point x="381" y="570" type="line"/>
			<point x="381" y="765" type="line"/>
			<point x="218" y="765" type="line"/>
			<point x="218" y="570" type="line"/>
		</contour>
	</outline>
</glyph>
<glyph name="daggerdbl" format="2">
	<unicode hex="2021"/>
	<advance width="600"/>
	<outline>
		<contour>
			<point x="50" y="226" type="line"/>
			<point x="50" y="83" type="line"/>
			<point x="219" y="83" type="line"/>
			<point x="219" y="-143" type="line"/>
			<point x="382" y="-143" type="line"/>
			<point x="382" y="83" type="line"/>
			<point x="550" y="83" type="line"/>
			<point x="550" y="226" type="line"/>
			<point x="382" y="226" type="line"/>
			<point x="382" y="449" type="line"/>
			<point x="550" y="449" type="line"/>
			<point x="550" y="592" type="line"/>
			<point x="382" y="592" type="line"/>
			<point x="382" y="765" type="line"/>
			<point x="219" y="765" type="line"/>
			<point x="219" y="592" type="line"/>
			<point x="50" y="592" type="line"/>
			<point x="50" y="449" type="line"/>
			<point x="219" y="449" type="line"/>
			<point x="219" y="226" type="line"/>
		</contour>
	</outline>
</glyph>
<glyph name="ellipsis" format="2">
	<unicode hex="2026"/>
	<advance width="600"/>
	<outline>
		<contour>
			<point x="100" y="-12" type="curve" smooth="yes"/>
			<point x="148" y="-12"/>
			<point x="173" y="13"/>
			<point x="173" y="86" type="curve" smooth="yes"/>
			<point x="173" y="160"/>
			<point x="148" y="185"/>
			<point x="100" y="185" type="curve" smooth="yes"/>
			<point x="51" y="185"/>
			<point x="26" y="160"/>
			<point x="26" y="86" type="curve" smooth="yes"/>
			<point x="26" y="13"/>
			<point x="51" y="-12"/>
		</contour>
		<contour>
			<point x="299" y="-12" type="curve" smooth="yes"/>
			<point x="348" y="-12"/>
			<point x="373" y="15"/>
			<point x="373" y="86" type="curve" smooth="yes"/>
			<point x="373" y="158"/>
			<point x="348" y="185"/>
			<point x="299" y="185" type="curve" smooth="yes"/>
			<point x="251" y="185"/>
			<point x="226" y="158"/>
			<point x="226" y="86" type="curve" smooth="yes"/>
			<point x="226" y="15"/>
			<point x="251" y="-12"/>
		</contour>
		<contour>
			<point x="500" y="-12" type="curve" smooth="yes"/>
			<point x="548" y="-12"/>
			<point x="574" y="15"/>
			<point x="574" y="86" type="curve" smooth="yes"/>
			<point x="574" y="158"/>
			<point x="548" y="185"/>
			<point x="500" y="185" type="curve" smooth="yes"/>
			<point x="452" y="185"/>
			<point x="426" y="158"/>
			<point x="426" y="86" type="curve" smooth="yes"/>
			<point x="426" y="15"/>
			<point x="452" y="-12"/>
		</contour>
	</outline>
</glyph>
<glyph name="guilsinglright" format="2">
	<unicode hex="203A"/>
	<advance width="600"/>
	<outline>
		<contour>
			<point x="107" y="77" type="line"/>
			<point x="309" y="77" type="line"/>
			<point x="505" y="287" type="line"/>
			<point x="307" y="497" type="line"/>
			<point x="107" y="497" type="line"/>
			<point x="304" y="290" type="line"/>
		</contour>
	</outline>
</glyph>
<glyph name="Euro" format="2">
	<unicode hex="20AC"/>
	<advance width="600"/>
	<outline>
		<contour>
			<point x="19" y="226" type="line"/>
			<point x="96" y="226" type="line"/>
			<point x="128" y="69"/>
			<point x="232" y="-12"/>
			<point x="391" y="-12" type="curve" smooth="yes"/>
			<point x="465" y="-12"/>
			<point x="521" y="3"/>
			<point x="561" y="28" type="curve"/>
			<point x="561" y="163" type="line"/>
			<point x="525" y="143"/>
			<point x="479" y="132"/>
			<point x="431" y="132" type="curve" smooth="yes"/>
			<point x="356" y="132"/>
			<point x="303" y="160"/>
			<point x="278" y="226" type="curve"/>
			<point x="476" y="226" type="line"/>
			<point x="476" y="318" type="line"/>
			<point x="261" y="318" type="line"/>
			<point x="260" y="325"/>
			<point x="260" y="333"/>
			<point x="260" y="341" type="curve" smooth="yes"/>
			<point x="260" y="348" type="line" smooth="yes"/>
			<point x="260" y="356"/>
			<point x="260" y="363"/>
			<point x="261" y="370" type="curve"/>
			<point x="476" y="370" type="line"/>
			<point x="476" y="462" type="line"/>
			<point x="280" y="462" type="line"/>
			<point x="307" y="526"/>
			<point x="362" y="557"/>
			<point x="438" y="556" type="curve" smooth="yes"/>
			<point x="490" y="555"/>
			<point x="530" y="543"/>
			<point x="560" y="526" type="curve"/>
			<point x="560" y="664" type="line"/>
			<point x="524" y="682"/>
			<point x="464" y="695"/>
			<point x="410" y="695" type="curve" smooth="yes"/>
			<point x="248" y="695"/>
			<point x="134" y="614"/>
			<point x="98" y="462" type="curve"/>
			<point x="19" y="462" type="line"/>
			<point x="19" y="370" type="line"/>
			<point x="86" y="370" type="line"/>
			<point x="86" y="318" type="line"/>
			<point x="19" y="318" type="line"/>
		</contour>
	</outline>
</glyph>
<glyph name="published" format="2">
	<unicode hex="2117"/>
	<advance width="600"/>
	<outline>
		<contour>
			<point x="300" y="102" type="curve" smooth="yes"/>
			<point x="447" y="102"/>
			<point x="566" y="196"/>
			<point x="566" y="373" type="curve" smooth="yes"/>
			<point x="566" y="387" type="line" smooth="yes"/>
			<point x="566" y="561"/>
			<point x="446" y="657"/>
			<point x="300" y="657" type="curve" smooth="yes"/>
			<point x="154" y="657"/>
			<point x="34" y="561"/>
			<point x="34" y="386" type="curve" smooth="yes"/>
			<point x="34" y="372" type="line" smooth="yes"/>
			<point x="34" y="196"/>
			<point x="153" y="102"/>
		</contour>
		<contour>
			<point x="300" y="171" type="curve" smooth="yes"/>
			<point x="180" y="171"/>
			<point x="105" y="245"/>
			<point x="105" y="376" type="curve" smooth="yes"/>
			<point x="105" y="383" type="line" smooth="yes"/>
			<point x="105" y="517"/>
			<point x="181" y="588"/>
			<point x="300" y="588" type="curve" smooth="yes"/>
			<point x="419" y="588"/>
			<point x="495" y="516"/>
			<point x="495" y="384" type="curve" smooth="yes"/>
			<point x="495" y="376" type="line" smooth="yes"/>
			<point x="495" y="242"/>
			<point x="420" y="171"/>
		</contour>
		<contour>
			<point x="204" y="250" type="line"/>
			<point x="276" y="250" type="line"/>
			<point x="276" y="324" type="line"/>
			<point x="318" y="324" type="line" smooth="yes"/>
			<point x="381" y="324"/>
			<point x="424" y="359"/>
			<point x="424" y="420" type="curve" smooth="yes"/>
			<point x="424" y="477"/>
			<point x="388" y="512"/>
			<point x="319" y="512" type="curve" smooth="yes"/>
			<point x="204" y="512" type="line"/>
		</contour>
		<contour>
			<point x="312" y="457" type="line" smooth="yes"/>
			<point x="335" y="457"/>
			<point x="351" y="442"/>
			<point x="351" y="419" type="curve" smooth="yes"/>
			<point x="351" y="395"/>
			<point x="336" y="379"/>
			<point x="312" y="379" type="curve" smooth="yes"/>
			<point x="276" y="379" type="line"/>
			<point x="276" y="457" type="line"/>
		</contour>
	</outline>
</glyph>
<glyph name="trademark" format="2">
	<unicode hex="2122"/>
	<advance width="600"/>
	<outline>
		<contour>
			<point x="290" y="342" type="line"/>
			<point x="362" y="342" type="line"/>
			<point x="362" y="439" type="line" smooth="yes"/>
			<point x="362" y="498"/>
			<point x="358" y="550"/>
			<point x="351" y="601" type="curve"/>
			<point x="357" y="601" type="line"/>
			<point x="399" y="428" type="line"/>
			<point x="463" y="428" type="line"/>
			<point x="506" y="601" type="line"/>
			<point x="511" y="601" type="line"/>
			<point x="505" y="548"/>
			<point x="502" y="501"/>
			<point x="502" y="440" type="curve" smooth="yes"/>
			<point x="502" y="342" type="line"/>
			<point x="574" y="342" type="line"/>
			<point x="574" y="684" type="line"/>
			<point x="469" y="684" type="line"/>
			<point x="433" y="511" type="line"/>
			<point x="431" y="511" type="line"/>
			<point x="394" y="684" type="line"/>
			<point x="290" y="684" type="line"/>
		</contour>
		<contour>
			<point x="93" y="342" type="line"/>
			<point x="179" y="342" type="line"/>
			<point x="179" y="612" type="line"/>
			<point x="261" y="612" type="line"/>
			<point x="261" y="684" type="line"/>
			<point x="10" y="684" type="line"/>
			<point x="10" y="612" type="line"/>
			<point x="93" y="612" type="line"/>
		</contour>
	</outline>
</glyph>
<glyph name="ohm" format="2">
	<unicode hex="2126"/>
	<advance width="600"/>
	<outline>
		<contour>
			<point x="31" y="0" type="line"/>
			<point x="279" y="0" type="line"/>
			<point x="279" y="140" type="line"/>
			<point x="228" y="213"/>
			<point x="208" y="270"/>
			<point x="208" y="389" type="curve" smooth="yes"/>
			<point x="208" y="396" type="line" smooth="yes"/>
			<point x="208" y="526"/>
			<point x="244" y="561"/>
			<point x="301" y="561" type="curve" smooth="yes"/>
			<point x="357" y="561"/>
			<point x="391" y="526"/>
			<point x="391" y="396" type="curve" smooth="yes"/>
			<point x="391" y="389" type="line" smooth="yes"/>
			<point x="391" y="271"/>
			<point x="370" y="213"/>
			<point x="320" y="140" type="curve"/>
			<point x="320" y="0" type="line"/>
			<point x="569" y="0" type="line"/>
			<point x="569" y="138" type="line"/>
			<point x="477" y="138" type="line"/>
			<point x="530" y="201"/>
			<point x="563" y="287"/>
			<point x="563" y="392" type="curve" smooth="yes"/>
			<point x="563" y="406" type="line" smooth="yes"/>
			<point x="563" y="600"/>
			<point x="470" y="698"/>
			<point x="301" y="698" type="curve" smooth="yes"/>
			<point x="133" y="698"/>
			<point x="36" y="600"/>
			<point x="36" y="406" type="curve" smooth="yes"/>
			<point x="36" y="392" type="line" smooth="yes"/>
			<point x="36" y="283"/>
			<point x="65" y="202"/>
			<point x="120" y="138" type="curve"/>
			<point x="31" y="138" type="line"/>
		</contour>
	</outline>
</glyph>
<glyph name="arrowleft" format="2">
	<unicode hex="2190"/>
	<advance width="600"/>
	<outline>
		<contour>
			<point x="398" y="118" type="line"/>
			<point x="235" y="278" type="line"/>
			<point x="574" y="278" type="line"/>
			<point x="574" y="410" type="line"/>
			<point x="235" y="410" type="line"/>
			<point x="397" y="569" type="line"/>
			<point x="233" y="569" type="line"/>
			<point x="8" y="344" type="line"/>
			<point x="234" y="118" type="line"/>
		</contour>
	</outline>
</glyph>
<glyph name="arrowup" format="2">
	<unicode hex="2191"/>
	<advance width="600"/>
	<outline>
		<contour>
			<point x="234" y="0" type="line"/>
			<point x="366" y="0" type="line"/>
			<point x="366" y="476" type="line"/>
			<point x="525" y="315" type="line"/>
			<point x="525" y="479" type="line"/>
			<point x="300" y="703" type="line"/>
			<point x="75" y="477" type="line"/>
			<point x="75" y="315" type="line"/>
			<point x="234" y="477" type="line"/>
		</contour>
	</outline>
</glyph>
<glyph name="arrowdown" format="2">
	<unicode hex="2193"/>
	<advance width="600"/>
	<outline>
		<contour>
			<point x="525" y="369" type="line"/>
			<point x="366" y="207" type="line"/>
			<point x="366" y="684" type="line"/>
			<point x="234" y="684" type="line"/>
			<point x="234" y="208" type="line"/>
			<point x="75" y="369" type="line"/>
			<point x="75" y="205" type="line"/>
			<point x="300" y="-19" type="line"/>
			<point x="525" y="207" type="line"/>
		</contour>
	</outline>
</glyph>
<glyph name="uni2197" format="2">
	<unicode hex="2197"/>
	<advance width="600"/>
	<outline>
		<contour>
			<point x="105" y="63" type="line"/>
			<point x="444" y="403" type="line"/>
			<point x="442" y="172" type="line"/>
			<point x="558" y="287" type="line"/>
			<point x="558" y="610" type="line"/>
			<point x="233" y="610" type="line"/>
			<point x="119" y="495" type="line"/>
			<point x="352" y="498" type="line"/>
			<point x="12" y="157" type="line"/>
		</contour>
	</outline>
</glyph>
<glyph name="uni2198" format="2">
	<unicode hex="2198"/>
	<advance width="600"/>
	<outline>
		<contour>
			<point x="236" y="63" type="line"/>
			<point x="558" y="63" type="line"/>
			<point x="558" y="388" type="line"/>
			<point x="444" y="503" type="line"/>
			<point x="446" y="270" type="line"/>
			<point x="105" y="610" type="line"/>
			<point x="12" y="516" type="line"/>
			<point x="352" y="178" type="line"/>
			<point x="120" y="179" type="line"/>
		</contour>
	</outline>
</glyph>
<glyph name="partialdiff" format="2">
	<unicode hex="2202"/>
	<advance width="600"/>
	<outline>
		<contour>
			<point x="290" y="-13" type="curve" smooth="yes"/>
			<point x="449" y="-13"/>
			<point x="560" y="90"/>
			<point x="560" y="297" type="curve" smooth="yes"/>
			<point x="560" y="311" type="line" smooth="yes"/>
			<point x="560" y="499"/>
			<point x="473" y="607"/>
			<point x="373" y="684" type="curve"/>
			<point x="129" y="684" type="line"/>
			<point x="263" y="602"/>
			<point x="335" y="533"/>
			<point x="375" y="422" type="curve"/>
			<point x="329" y="480"/>
			<point x="283" y="508"/>
			<point x="218" y="508" type="curve" smooth="yes"/>
			<point x="107" y="508"/>
			<point x="40" y="401"/>
			<point x="40" y="266" type="curve" smooth="yes"/>
			<point x="40" y="252" type="line" smooth="yes"/>
			<point x="40" y="71"/>
			<point x="136" y="-13"/>
		</contour>
		<contour>
			<point x="299" y="115" type="curve" smooth="yes"/>
			<point x="242" y="115"/>
			<point x="209" y="154"/>
			<point x="209" y="252" type="curve" smooth="yes"/>
			<point x="209" y="259" type="line" smooth="yes"/>
			<point x="209" y="359"/>
			<point x="245" y="397"/>
			<point x="300" y="397" type="curve" smooth="yes"/>
			<point x="355" y="397"/>
			<point x="390" y="361"/>
			<point x="390" y="261" type="curve" smooth="yes"/>
			<point x="390" y="254" type="line" smooth="yes"/>
			<point x="390" y="155"/>
			<point x="356" y="115"/>
		</contour>
	</outline>
</glyph>
<glyph name="product" format="2">
	<unicode hex="220F"/>
	<advance width="600"/>
	<outline>
		<contour>
			<point x="57" y="0" type="line"/>
			<point x="219" y="0" type="line"/>
			<point x="219" y="545" type="line"/>
			<point x="381" y="545" type="line"/>
			<point x="381" y="0" type="line"/>
			<point x="543" y="0" type="line"/>
			<point x="543" y="684" type="line"/>
			<point x="57" y="684" type="line"/>
		</contour>
	</outline>
</glyph>
<glyph name="summation" format="2">
	<unicode hex="2211"/>
	<advance width="600"/>
	<outline>
		<contour>
			<point x="50" y="0" type="line"/>
			<point x="552" y="0" type="line"/>
			<point x="552" y="138" type="line"/>
			<point x="260" y="138" type="line"/>
			<point x="448" y="287" type="line"/>
			<point x="448" y="400" type="line"/>
			<point x="268" y="547" type="line"/>
			<point x="549" y="547" type="line"/>
			<point x="549" y="684" type="line"/>
			<point x="51" y="684" type="line"/>
			<point x="51" y="543" type="line"/>
			<point x="297" y="343" type="line"/>
			<point x="50" y="147" type="line"/>
		</contour>
	</outline>
</glyph>
<glyph name="radical" format="2">
	<unicode hex="221A"/>
	<advance width="600"/>
	<outline>
		<contour>
			<point x="157" y="0" type="line"/>
			<point x="374" y="0" type="line"/>
			<point x="592" y="684" type="line"/>
			<point x="414" y="684" type="line"/>
			<point x="268" y="176" type="line"/>
			<point x="201" y="450" type="line"/>
			<point x="18" y="450" type="line"/>
			<point x="18" y="306" type="line"/>
			<point x="72" y="306" type="line"/>
		</contour>
	</outline>
</glyph>
<glyph name="integral" format="2">
	<unicode hex="222B"/>
	<advance width="600"/>
	<outline>
		<contour>
			<point x="155" y="-204" type="curve" smooth="yes"/>
			<point x="274" y="-204"/>
			<point x="373" y="-156"/>
			<point x="373" y="-1" type="curve" smooth="yes"/>
			<point x="373" y="498" type="line" smooth="yes"/>
			<point x="373" y="550"/>
			<point x="409" y="570"/>
			<point x="457" y="570" type="curve" smooth="yes"/>
			<point x="486" y="570"/>
			<point x="514" y="565"/>
			<point x="529" y="562" type="curve"/>
			<point x="529" y="680" type="line"/>
			<point x="501" y="691"/>
			<point x="466" y="697"/>
			<point x="416" y="697" type="curve" smooth="yes"/>
			<point x="297" y="697"/>
			<point x="207" y="649"/>
			<point x="207" y="503" type="curve" smooth="yes"/>
			<point x="207" y="3" type="line" smooth="yes"/>
			<point x="207" y="-58"/>
			<point x="179" y="-82"/>
			<point x="115" y="-82" type="curve" smooth="yes"/>
			<point x="94" y="-82"/>
			<point x="74" y="-79"/>
			<point x="50" y="-74" type="curve"/>
			<point x="50" y="-188" type="line"/>
			<point x="74" y="-197"/>
			<point x="113" y="-204"/>
		</contour>
	</outline>
</glyph>
<glyph name="approxequal" format="2">
	<unicode hex="2248"/>
	<advance width="600"/>
	<outline>
		<contour>
			<point x="169" y="368" type="curve" smooth="yes"/>
			<point x="240" y="368"/>
			<point x="332" y="312"/>
			<point x="432" y="312" type="curve" smooth="yes"/>
			<point x="476" y="312"/>
			<point x="521" y="328"/>
			<point x="538" y="353" type="curve"/>
			<point x="538" y="499" type="line"/>
			<point x="506" y="459"/>
			<point x="467" y="450"/>
			<point x="424" y="451" type="curve" smooth="yes"/>
			<point x="362" y="453"/>
			<point x="252" y="507"/>
			<point x="168" y="507" type="curve" smooth="yes"/>
			<point x="126" y="507"/>
			<point x="79" y="492"/>
			<point x="62" y="467" type="curve"/>
			<point x="62" y="320" type="line"/>
			<point x="87" y="353"/>
			<point x="130" y="368"/>
		</contour>
		<contour>
			<point x="169" y="135" type="curve" smooth="yes"/>
			<point x="240" y="135"/>
			<point x="332" y="79"/>
			<point x="432" y="79" type="curve" smooth="yes"/>
			<point x="477" y="79"/>
			<point x="521" y="95"/>
			<point x="538" y="120" type="curve"/>
			<point x="538" y="267" type="line"/>
			<point x="508" y="230"/>
			<point x="471" y="217"/>
			<point x="424" y="219" type="curve" smooth="yes"/>
			<point x="370" y="221"/>
			<point x="250" y="275"/>
			<point x="165" y="275" type="curve" smooth="yes"/>
			<point x="123" y="275"/>
			<point x="79" y="259"/>
			<point x="62" y="235" type="curve"/>
			<point x="62" y="87" type="line"/>
			<point x="87" y="120"/>
			<point x="132" y="135"/>
		</contour>
	</outline>
</glyph>
<glyph name="spade" format="2">
	<unicode hex="2660"/>
	<advance width="600"/>
	<outline>
		<contour>
			<point x="321" y="0" type="curve"/>
			<point x="575" y="0" type="line"/>
			<point x="550" y="50"/>
			<point x="477" y="166"/>
			<point x="477" y="284" type="curve"/>
			<point x="503" y="216"/>
			<point x="559" y="152"/>
			<point x="655" y="152" type="curve" smooth="yes"/>
			<point x="740" y="152"/>
			<point x="809" y="221"/>
			<point x="809" y="306" type="curve" smooth="yes"/>
			<point x="809" y="418"/>
			<point x="749" y="494"/>
			<point x="586" y="622" type="curve" smooth="yes"/>
			<point x="448" y="731" type="line"/>
			<point x="311" y="622" type="line" smooth="yes"/>
			<point x="149" y="493"/>
			<point x="80" y="418"/>
			<point x="80" y="306" type="curve" smooth="yes"/>
			<point x="80" y="221"/>
			<point x="157" y="151"/>
			<point x="248" y="151" type="curve" smooth="yes"/>
			<point x="337" y="151"/>
			<point x="390" y="216"/>
			<point x="414" y="284" type="curve"/>
			<point x="414" y="166"/>
			<point x="349" y="50"/>
		</contour>
	</outline>
</glyph>
<glyph name="uni267B" format="2">
	<unicode hex="267B"/>
	<advance width="600"/>
	<outline>
		<contour>
			<point x="344" y="680" type="line"/>
			<point x="344" y="680"/>
			<point x="395" y="677"/>
			<point x="421" y="632" type="curve" smooth="yes"/>
			<point x="482" y="526" type="line"/>
			<point x="448" y="506" type="line"/>
			<point x="593" y="479" type="line"/>
			<point x="646" y="621" type="line"/>
			<point x="609" y="600" type="line"/>
			<point x="585" y="641" type="line" smooth="yes"/>
			<point x="564" y="679"/>
			<point x="539" y="680"/>
			<point x="508" y="681" type="curve"/>
			<point x="344" y="681" type="line"/>
		</contour>
		<contour>
			<point x="228" y="628" type="curve" smooth="yes"/>
			<point x="171" y="527" type="line"/>
			<point x="298" y="454" type="line"/>
			<point x="396" y="624" type="line"/>
			<point x="379" y="657"/>
			<point x="307" y="684"/>
			<point x="257" y="654" type="curve" smooth="yes"/>
			<point x="243" y="647"/>
			<point x="232" y="635"/>
		</contour>
		<contour>
			<point x="743" y="368" type="curve" smooth="yes"/>
			<point x="684" y="467" type="line"/>
			<point x="558" y="395" type="line"/>
			<point x="656" y="225" type="line"/>
			<point x="691" y="225"/>
			<point x="752" y="272"/>
			<point x="751" y="331" type="curve" smooth="yes"/>
			<point x="751" y="346"/>
			<point x="747" y="361"/>
		</contour>
		<contour>
			<point x="160" y="125" type="line"/>
			<point x="160" y="125"/>
			<point x="138" y="173"/>
			<point x="163" y="216" type="curve"/>
			<point x="165" y="220"/>
			<point x="224" y="322"/>
			<point x="224" y="322" type="curve"/>
			<point x="259" y="301" type="line"/>
			<point x="209" y="442" type="line"/>
			<point x="61" y="416" type="line"/>
			<point x="97" y="395" type="line"/>
			<point x="73" y="353" type="line" smooth="yes"/>
			<point x="51" y="316"/>
			<point x="62" y="294"/>
			<point x="77" y="267" type="curve"/>
			<point x="158" y="125" type="line"/>
		</contour>
		<contour>
			<point x="733" y="246" type="line"/>
			<point x="733" y="246"/>
			<point x="702" y="202"/>
			<point x="652" y="202" type="curve" smooth="yes"/>
			<point x="529" y="202" type="line"/>
			<point x="529" y="244" type="line"/>
			<point x="434" y="129" type="line"/>
			<point x="529" y="14" type="line"/>
			<point x="529" y="56" type="line"/>
			<point x="578" y="56" type="line" smooth="yes"/>
			<point x="622" y="56"/>
			<point x="635" y="77"/>
			<point x="652" y="103" type="curve"/>
			<point x="734" y="245" type="line"/>
		</contour>
		<contour>
			<point x="266" y="56" type="curve" smooth="yes"/>
			<point x="380" y="56" type="line"/>
			<point x="380" y="202" type="line"/>
			<point x="184" y="202" type="line"/>
			<point x="165" y="171"/>
			<point x="177" y="97"/>
			<point x="228" y="67" type="curve" smooth="yes"/>
			<point x="241" y="59"/>
			<point x="256" y="56"/>
		</contour>
	</outline>
</glyph>
<glyph name="anglebracketleft" format="2">
	<unicode hex="3008"/>
	<advance width="600"/>
	<outline>
		<contour>
			<point x="373" y="-163" type="line"/>
			<point x="551" y="-163" type="line"/>
			<point x="286" y="319" type="line"/>
			<point x="559" y="792" type="line"/>
			<point x="380" y="792" type="line"/>
			<point x="111" y="316" type="line"/>
		</contour>
	</outline>
</glyph>
<glyph name="commaaccent" format="2">
	<unicode hex="F6C3"/>
	<advance width="600"/>
	<outline>
		<contour>
			<point x="226" y="-287" type="curve"/>
			<point x="326" y="-287" type="line"/>
			<point x="350" y="-265"/>
			<point x="388" y="-209"/>
			<point x="388" y="-139" type="curve" smooth="yes"/>
			<point x="388" y="-80"/>
			<point x="366" y="-51"/>
			<point x="298" y="-51" type="curve" smooth="yes"/>
			<point x="239" y="-51"/>
			<point x="209" y="-73"/>
			<point x="209" y="-129" type="curve" smooth="yes"/>
			<point x="209" y="-172"/>
			<point x="226" y="-193"/>
			<point x="270" y="-197" type="curve"/>
			<point x="260" y="-231"/>
			<point x="246" y="-259"/>
		</contour>
	</outline>
	<anchor name="_bottom" x="298" y="0"/>
</glyph>
<glyph name="asciicircum_equal.cLig" format="2">
	<advance width="600"/>
	<outline>
		<contour>
			<point x="-468" y="327" type="line"/>
			<point x="-326" y="327" type="line"/>
			<point x="-222" y="556" type="line"/>
			<point x="-117" y="327" type="line"/>
			<point x="26" y="327" type="line"/>
			<point x="22" y="336" type="line"/>
			<point x="435" y="336" type="line"/>
			<point x="435" y="474" type="line"/>
			<point x="-41" y="474" type="line"/>
			<point x="-41" y="463" type="line"/>
			<point x="-148" y="681" type="line"/>
			<point x="-297" y="681" type="line"/>
		</contour>
		<contour>
			<point x="-41" y="109" type="line"/>
			<point x="435" y="109" type="line"/>
			<point x="435" y="247" type="line"/>
			<point x="-41" y="247" type="line"/>
		</contour>
	</outline>
</glyph>
<glyph name="asciitilde_asciitilde.cLig" format="2">
	<advance width="600"/>
	<outline>
		<contour>
			<point x="-103" y="179" type="curve"/>
			<point x="18" y="179"/>
			<point x="23" y="300"/>
			<point x="99" y="300" type="curve"/>
			<point x="166" y="300"/>
			<point x="182" y="179"/>
			<point x="310" y="179" type="curve"/>
			<point x="415" y="179"/>
			<point x="486" y="264"/>
			<point x="509" y="443" type="curve"/>
			<point x="380" y="443" type="line"/>
			<point x="365" y="371"/>
			<point x="345" y="331"/>
			<point x="301" y="330" type="curve"/>
			<point x="231" y="331"/>
			<point x="230" y="449"/>
			<point x="98" y="449" type="curve"/>
			<point x="-37" y="449"/>
			<point x="-32" y="331"/>
			<point x="-102" y="331" type="curve"/>
			<point x="-164" y="331"/>
			<point x="-181" y="449"/>
			<point x="-301" y="449" type="curve"/>
			<point x="-416" y="449"/>
			<point x="-486" y="367"/>
			<point x="-509" y="187" type="curve"/>
			<point x="-380" y="187" type="line"/>
			<point x="-366" y="260"/>
			<point x="-347" y="300"/>
			<point x="-298" y="300" type="curve"/>
			<point x="-234" y="300"/>
			<point x="-218" y="179"/>
		</contour>
	</outline>
</glyph>
<glyph name="asciitilde_asciitilde_greater.cLig" format="2">
	<advance width="600"/>
	<outline>
		<contour>
			<point x="68" y="628" type="line"/>
			<point x="281" y="388" type="line"/>
			<point x="4" y="388" type="line"/>
			<point x="-29" y="432"/>
			<point x="-70" y="450"/>
			<point x="-110" y="450" type="curve" smooth="yes"/>
			<point x="-224" y="450"/>
			<point x="-238" y="328"/>
			<point x="-309" y="328" type="curve" smooth="yes"/>
			<point x="-380" y="328"/>
			<point x="-400" y="447"/>
			<point x="-507" y="447" type="curve" smooth="yes"/>
			<point x="-616" y="447"/>
			<point x="-634" y="328"/>
			<point x="-704" y="328" type="curve"/>
			<point x="-774" y="328"/>
			<point x="-797" y="448"/>
			<point x="-913" y="448" type="curve" smooth="yes"/>
			<point x="-1015" y="448"/>
			<point x="-1097" y="360"/>
			<point x="-1118" y="189" type="curve"/>
			<point x="-988" y="189" type="line"/>
			<point x="-978" y="250"/>
			<point x="-952" y="293"/>
			<point x="-903" y="293" type="curve" smooth="yes"/>
			<point x="-838" y="293"/>
			<point x="-817" y="177"/>
			<point x="-704" y="177" type="curve"/>
			<point x="-590" y="177"/>
			<point x="-581" y="293"/>
			<point x="-509" y="293" type="curve" smooth="yes"/>
			<point x="-437" y="293"/>
			<point x="-428" y="177"/>
			<point x="-311" y="177" type="curve" smooth="yes"/>
			<point x="-201" y="177"/>
			<point x="-193" y="299"/>
			<point x="-121" y="299" type="curve" smooth="yes"/>
			<point x="-87" y="299"/>
			<point x="-70" y="278"/>
			<point x="-49" y="238" type="curve"/>
			<point x="281" y="238" type="line"/>
			<point x="71" y="-1" type="line"/>
			<point x="261" y="-1" type="line"/>
			<point x="529" y="313" type="line"/>
			<point x="258" y="628" type="line"/>
		</contour>
	</outline>
</glyph>
<glyph name="asciitilde_at.cLig" format="2">
	<advance width="600"/>
	<outline>
		<contour>
			<point x="380" y="-19" type="curve"/>
			<point x="506" y="-19"/>
			<point x="566" y="83"/>
			<point x="566" y="288" type="curve" smooth="yes"/>
			<point x="566" y="302" type="line" smooth="yes"/>
			<point x="566" y="561"/>
			<point x="458" y="698"/>
			<point x="209" y="698" type="curve" smooth="yes"/>
			<point x="-36" y="698"/>
			<point x="-149" y="589"/>
			<point x="-192" y="382" type="curve" smooth="yes"/>
			<point x="-201" y="337"/>
			<point x="-213" y="316"/>
			<point x="-243" y="316" type="curve" smooth="yes"/>
			<point x="-291" y="316"/>
			<point x="-323" y="422"/>
			<point x="-428" y="422" type="curve" smooth="yes"/>
			<point x="-531" y="422"/>
			<point x="-575" y="349"/>
			<point x="-575" y="174" type="curve"/>
			<point x="-451" y="174" type="line"/>
			<point x="-451" y="239"/>
			<point x="-442" y="275"/>
			<point x="-406" y="275" type="curve" smooth="yes"/>
			<point x="-357" y="275"/>
			<point x="-315" y="167"/>
			<point x="-217" y="167" type="curve" smooth="yes"/>
			<point x="-129" y="167"/>
			<point x="-87" y="218"/>
			<point x="-70" y="328" type="curve" smooth="yes"/>
			<point x="-42" y="503"/>
			<point x="37" y="578"/>
			<point x="200" y="578" type="curve" smooth="yes"/>
			<point x="370" y="578"/>
			<point x="435" y="487"/>
			<point x="435" y="325" type="curve" smooth="yes"/>
			<point x="435" y="277" type="line" smooth="yes"/>
			<point x="435" y="117"/>
			<point x="416" y="93"/>
			<point x="389" y="93" type="curve" smooth="yes"/>
			<point x="365" y="93"/>
			<point x="356" y="108"/>
			<point x="356" y="166" type="curve"/>
			<point x="356" y="480" type="line"/>
			<point x="231" y="480" type="line"/>
			<point x="231" y="399" type="line"/>
			<point x="212" y="453"/>
			<point x="183" y="491"/>
			<point x="121" y="491" type="curve" smooth="yes"/>
			<point x="43" y="491"/>
			<point x="-11" y="417"/>
			<point x="-11" y="267" type="curve" smooth="yes"/>
			<point x="-11" y="143"/>
			<point x="33" y="61"/>
			<point x="122" y="61" type="curve" smooth="yes"/>
			<point x="186" y="61"/>
			<point x="218" y="107"/>
			<point x="234" y="164" type="curve"/>
			<point x="233" y="134" type="line" smooth="yes"/>
			<point x="231" y="25"/>
			<point x="299" y="-19"/>
		</contour>
		<contour>
			<point x="173" y="165" type="curve" smooth="yes"/>
			<point x="136" y="165"/>
			<point x="116" y="197"/>
			<point x="116" y="276" type="curve" smooth="yes"/>
			<point x="116" y="355"/>
			<point x="136" y="386"/>
			<point x="173" y="386" type="curve" smooth="yes"/>
			<point x="211" y="386"/>
			<point x="233" y="347"/>
			<point x="233" y="273" type="curve" smooth="yes"/>
			<point x="233" y="190"/>
			<point x="208" y="165"/>
		</contour>
	</outline>
</glyph>
<glyph name="asciitilde_equal.cLig.x" format="2">
	<advance width="600"/>
	<outline>
		<contour>
			<point x="-320" y="300" type="line"/>
			<point x="-280" y="355"/>
			<point x="-218" y="381"/>
			<point x="-155" y="381" type="curve" smooth="yes"/>
			<point x="-50" y="381"/>
			<point x="21" y="298"/>
			<point x="162" y="298" type="curve" smooth="yes"/>
			<point x="233" y="298"/>
			<point x="290" y="327"/>
			<point x="320" y="371" type="curve"/>
			<point x="320" y="521" type="line"/>
			<point x="268" y="455"/>
			<point x="223" y="439"/>
			<point x="154" y="440" type="curve" smooth="yes"/>
			<point x="56" y="441"/>
			<point x="-31" y="523"/>
			<point x="-155" y="523" type="curve" smooth="yes"/>
			<point x="-223" y="523"/>
			<point x="-290" y="495"/>
			<point x="-320" y="451" type="curve"/>
		</contour>
		<contour>
			<point x="-320" y="101" type="line"/>
			<point x="320" y="101" type="line"/>
			<point x="320" y="240" type="line"/>
			<point x="-320" y="240" type="line"/>
		</contour>
	</outline>
</glyph>
<glyph name="asciitilde_greater.cLig" format="2">
	<advance width="600"/>
	<outline>
		<contour>
			<point x="61" y="629" type="line"/>
			<point x="274" y="389" type="line"/>
			<point x="-96" y="389" type="line"/>
			<point x="-101" y="350"/>
			<point x="-118" y="323"/>
			<point x="-150" y="323" type="curve" smooth="yes"/>
			<point x="-208" y="323"/>
			<point x="-243" y="440"/>
			<point x="-357" y="440" type="curve" smooth="yes"/>
			<point x="-455" y="440"/>
			<point x="-508" y="372"/>
			<point x="-508" y="188" type="curve"/>
			<point x="-383" y="188" type="line"/>
			<point x="-383" y="256"/>
			<point x="-371" y="287"/>
			<point x="-333" y="287" type="curve"/>
			<point x="-279" y="287"/>
			<point x="-231" y="173"/>
			<point x="-129" y="173" type="curve" smooth="yes"/>
			<point x="-76" y="173"/>
			<point x="-38" y="194"/>
			<point x="-14" y="240" type="curve"/>
			<point x="-13" y="240" type="line"/>
			<point x="-13" y="239" type="line"/>
			<point x="274" y="239" type="line"/>
			<point x="64" y="0" type="line"/>
			<point x="254" y="0" type="line"/>
			<point x="521" y="314" type="line"/>
			<point x="251" y="629" type="line"/>
		</contour>
	</outline>
</glyph>
<glyph name="asciitilde_hyphen.cLig" format="2">
	<advance width="600"/>
	<outline>
		<contour>
			<point x="435" y="381" type="line"/>
			<point x="-15" y="381" type="line"/>
			<point x="-20" y="342"/>
			<point x="-37" y="315"/>
			<point x="-69" y="315" type="curve" smooth="yes"/>
			<point x="-127" y="315"/>
			<point x="-162" y="432"/>
			<point x="-276" y="432" type="curve" smooth="yes"/>
			<point x="-374" y="432"/>
			<point x="-427" y="364"/>
			<point x="-427" y="180" type="curve"/>
			<point x="-302" y="180" type="line"/>
			<point x="-302" y="248"/>
			<point x="-290" y="279"/>
			<point x="-252" y="279" type="curve"/>
			<point x="-198" y="279"/>
			<point x="-150" y="165"/>
			<point x="-48" y="165" type="curve" smooth="yes"/>
			<point x="5" y="165"/>
			<point x="43" y="186"/>
			<point x="67" y="232" type="curve"/>
			<point x="435" y="232" type="line"/>
		</contour>
	</outline>
</glyph>
<glyph name="aster_comp" format="2">
	<advance width="600"/>
	<outline>
		<contour>
			<point x="240" y="526" type="curve" smooth="yes"/>
			<point x="191" y="311" type="line"/>
			<point x="342" y="311" type="line"/>
			<point x="293" y="526" type="line" smooth="yes"/>
			<point x="290" y="541"/>
			<point x="283" y="548"/>
			<point x="274" y="550" type="curve"/>
			<point x="283" y="552"/>
			<point x="290" y="559"/>
			<point x="293" y="574" type="curve" smooth="yes"/>
			<point x="342" y="789" type="line"/>
			<point x="191" y="789" type="line"/>
			<point x="240" y="574" type="line" smooth="yes"/>
			<point x="243" y="559"/>
			<point x="251" y="552"/>
			<point x="260" y="550" type="curve"/>
			<point x="251" y="548"/>
			<point x="243" y="541"/>
		</contour>
	</outline>
</glyph>
<glyph name="asterisk_large.rem" format="2">
	<advance width="600"/>
	<outline>
		<contour>
			<point x="476" y="129" type="line"/>
			<point x="555" y="265" type="line"/>
			<point x="373" y="321" type="line"/>
			<point x="556" y="377" type="line"/>
			<point x="477" y="514" type="line"/>
			<point x="337" y="384" type="line"/>
			<point x="379" y="570" type="line"/>
			<point x="222" y="570" type="line"/>
			<point x="265" y="383" type="line"/>
			<point x="124" y="514" type="line"/>
			<point x="45" y="378" type="line"/>
			<point x="228" y="321" type="line"/>
			<point x="45" y="266" type="line"/>
			<point x="124" y="129" type="line"/>
			<point x="265" y="259" type="line"/>
			<point x="222" y="72" type="line"/>
			<point x="379" y="72" type="line"/>
			<point x="337" y="258" type="line"/>
		</contour>
	</outline>
</glyph>
<glyph name="bar_bar_equal.med" format="2">
	<advance width="600"/>
	<outline>
		<contour>
			<point x="112" y="-55" type="line"/>
			<point x="268" y="-55" type="line"/>
			<point x="268" y="131" type="line"/>
			<point x="600" y="131" type="line"/>
			<point x="600" y="270" type="line"/>
			<point x="268" y="270" type="line"/>
			<point x="268" y="359" type="line"/>
			<point x="600" y="359" type="line"/>
			<point x="600" y="498" type="line"/>
			<point x="268" y="498" type="line"/>
			<point x="268" y="684" type="line"/>
			<point x="112" y="684" type="line"/>
		</contour>
		<contour>
			<point x="-600" y="131" type="line"/>
			<point x="-268" y="131" type="line"/>
			<point x="-268" y="-55" type="line"/>
			<point x="-112" y="-55" type="line"/>
			<point x="-112" y="684" type="line"/>
			<point x="-268" y="684" type="line"/>
			<point x="-268" y="498" type="line"/>
			<point x="-600" y="498" type="line"/>
			<point x="-600" y="359" type="line"/>
			<point x="-268" y="359" type="line"/>
			<point x="-268" y="270" type="line"/>
			<point x="-600" y="270" type="line"/>
		</contour>
	</outline>
</glyph>
<glyph name="bar_bracketright.cLig" format="2">
	<advance width="600"/>
	<outline>
		<contour>
			<point x="-89" y="672" type="line"/>
			<point x="235" y="672" type="line"/>
			<point x="235" y="-43" type="line"/>
			<point x="-89" y="-43" type="line"/>
			<point x="-89" y="-163" type="line"/>
			<point x="392" y="-163" type="line"/>
			<point x="392" y="792" type="line"/>
			<point x="-89" y="792" type="line"/>
		</contour>
		<contour>
			<point x="-226" y="-163" type="line"/>
			<point x="-226" y="792" type="line"/>
			<point x="-380" y="792" type="line"/>
			<point x="-380" y="-163" type="line"/>
		</contour>
	</outline>
</glyph>
<glyph name="bar_equal.init" format="2">
	<advance width="600"/>
	<outline>
		<contour>
			<point x="112" y="684" type="line"/>
			<point x="112" y="-55" type="line"/>
			<point x="268" y="-55" type="line"/>
			<point x="268" y="131" type="line"/>
			<point x="600" y="131" type="line"/>
			<point x="600" y="270" type="line"/>
			<point x="268" y="270" type="line"/>
			<point x="268" y="359" type="line"/>
			<point x="600" y="359" type="line"/>
			<point x="600" y="498" type="line"/>
			<point x="268" y="498" type="line"/>
			<point x="268" y="684" type="line"/>
		</contour>
	</outline>
</glyph>
<glyph name="bar_greater.cLig" format="2">
	<advance width="600"/>
	<outline>
		<contour>
			<point x="-307" y="-79" type="line"/>
			<point x="-151" y="-79" type="line"/>
			<point x="363" y="222" type="line"/>
			<point x="363" y="407" type="line"/>
			<point x="-151" y="708" type="line"/>
			<point x="-307" y="708" type="line"/>
		</contour>
		<contour>
			<point x="-151" y="532" type="line"/>
			<point x="229" y="316" type="line"/>
			<point x="-151" y="96" type="line"/>
		</contour>
	</outline>
</glyph>
<glyph name="bar_hyphen.init" format="2">
	<advance width="600"/>
	<outline>
		<contour>
			<point x="112" y="-55" type="line"/>
			<point x="268" y="-55" type="line"/>
			<point x="268" y="239" type="line"/>
			<point x="600" y="239" type="line"/>
			<point x="600" y="389" type="line"/>
			<point x="268" y="389" type="line"/>
			<point x="268" y="684" type="line"/>
			<point x="112" y="684" type="line"/>
		</contour>
	</outline>
</glyph>
<glyph name="bar_hyphen.med" format="2">
	<advance width="600"/>
	<outline>
		<contour>
			<point x="222" y="-55" type="line"/>
			<point x="378" y="-55" type="line"/>
			<point x="378" y="239" type="line"/>
			<point x="600" y="239" type="line"/>
			<point x="600" y="389" type="line"/>
			<point x="378" y="389" type="line"/>
			<point x="378" y="684" type="line"/>
			<point x="222" y="684" type="line"/>
			<point x="222" y="389" type="line"/>
			<point x="0" y="389" type="line"/>
			<point x="0" y="239" type="line"/>
			<point x="222" y="239" type="line"/>
		</contour>
	</outline>
</glyph>
<glyph name="braceleft_bar.cLig" format="2">
	<advance width="600"/>
	<outline>
		<contour>
			<point x="-196" y="-163" type="curve" smooth="yes"/>
			<point x="78" y="-163" type="line"/>
			<point x="78" y="-43" type="line"/>
			<point x="-131" y="-43" type="line" smooth="yes"/>
			<point x="-179" y="-43"/>
			<point x="-199" y="-23"/>
			<point x="-199" y="7" type="curve" smooth="yes"/>
			<point x="-199" y="64"/>
			<point x="-128" y="123"/>
			<point x="-128" y="200" type="curve" smooth="yes"/>
			<point x="-128" y="253"/>
			<point x="-180" y="301"/>
			<point x="-258" y="313" type="curve"/>
			<point x="-180" y="325"/>
			<point x="-128" y="377"/>
			<point x="-128" y="434" type="curve" smooth="yes"/>
			<point x="-128" y="508"/>
			<point x="-199" y="566"/>
			<point x="-199" y="623" type="curve" smooth="yes"/>
			<point x="-199" y="657"/>
			<point x="-178" y="672"/>
			<point x="-137" y="672" type="curve" smooth="yes"/>
			<point x="78" y="672" type="line"/>
			<point x="78" y="792" type="line"/>
			<point x="-196" y="792" type="line" smooth="yes"/>
			<point x="-309" y="792"/>
			<point x="-371" y="725"/>
			<point x="-371" y="650" type="curve" smooth="yes"/>
			<point x="-371" y="555"/>
			<point x="-300" y="502"/>
			<point x="-300" y="440" type="curve" smooth="yes"/>
			<point x="-300" y="413"/>
			<point x="-319" y="382"/>
			<point x="-362" y="382" type="curve" smooth="yes"/>
			<point x="-452" y="382" type="line"/>
			<point x="-452" y="244" type="line"/>
			<point x="-362" y="244" type="line" smooth="yes"/>
			<point x="-319" y="244"/>
			<point x="-300" y="212"/>
			<point x="-300" y="185" type="curve" smooth="yes"/>
			<point x="-300" y="125"/>
			<point x="-371" y="72"/>
			<point x="-371" y="-22" type="curve" smooth="yes"/>
			<point x="-371" y="-99"/>
			<point x="-308" y="-163"/>
		</contour>
		<contour>
			<point x="232" y="792" type="line"/>
			<point x="232" y="-163" type="line"/>
			<point x="386" y="-163" type="line"/>
			<point x="386" y="792" type="line"/>
		</contour>
	</outline>
</glyph>
<glyph name="braceleft_braceleft_numbersign.cLig" format="2">
	<advance width="600"/>
	<outline>
		<contour>
			<point x="-601" y="-163" type="line"/>
			<point x="-601" y="-43" type="line"/>
			<point x="-737" y="-43" type="line" smooth="yes"/>
			<point x="-785" y="-43"/>
			<point x="-805" y="-18"/>
			<point x="-805" y="11" type="curve"/>
			<point x="-805" y="83"/>
			<point x="-725" y="119"/>
			<point x="-725" y="207" type="curve" smooth="yes"/>
			<point x="-725" y="261"/>
			<point x="-777" y="304"/>
			<point x="-855" y="315" type="curve"/>
			<point x="-772" y="328"/>
			<point x="-724" y="374"/>
			<point x="-724" y="429" type="curve" smooth="yes"/>
			<point x="-724" y="512"/>
			<point x="-805" y="556"/>
			<point x="-805" y="613" type="curve" smooth="yes"/>
			<point x="-805" y="647"/>
			<point x="-784" y="671"/>
			<point x="-730" y="671" type="curve" smooth="yes"/>
			<point x="-415" y="671" type="line"/>
			<point x="-479" y="655"/>
			<point x="-502" y="616"/>
			<point x="-502" y="580" type="curve" smooth="yes"/>
			<point x="-502" y="511"/>
			<point x="-431" y="480"/>
			<point x="-431" y="431" type="curve" smooth="yes"/>
			<point x="-431" y="404"/>
			<point x="-449" y="382"/>
			<point x="-491" y="382" type="curve" smooth="yes"/>
			<point x="-584" y="382" type="line"/>
			<point x="-584" y="246" type="line"/>
			<point x="-491" y="246" type="line" smooth="yes"/>
			<point x="-435" y="246"/>
			<point x="-420" y="216"/>
			<point x="-420" y="189" type="curve" smooth="yes"/>
			<point x="-420" y="115"/>
			<point x="-501" y="74"/>
			<point x="-501" y="-17" type="curve"/>
			<point x="-501" y="-99"/>
			<point x="-445" y="-163"/>
			<point x="-326" y="-163" type="curve" smooth="yes"/>
			<point x="-123" y="-163" type="line"/>
			<point x="-123" y="-43" type="line"/>
			<point x="-261" y="-43" type="line" smooth="yes"/>
			<point x="-309" y="-43"/>
			<point x="-329" y="-23"/>
			<point x="-329" y="10" type="curve"/>
			<point x="-329" y="69"/>
			<point x="-252" y="115"/>
			<point x="-252" y="198" type="curve" smooth="yes"/>
			<point x="-252" y="259"/>
			<point x="-302" y="302"/>
			<point x="-375" y="315" type="curve"/>
			<point x="-305" y="331"/>
			<point x="-249" y="371"/>
			<point x="-249" y="429" type="curve" smooth="yes"/>
			<point x="-249" y="511"/>
			<point x="-330" y="556"/>
			<point x="-330" y="613" type="curve" smooth="yes"/>
			<point x="-330" y="647"/>
			<point x="-305" y="671"/>
			<point x="-252" y="671" type="curve" smooth="yes"/>
			<point x="-97" y="671" type="line"/>
			<point x="-97" y="790" type="line"/>
			<point x="-802" y="790" type="line" smooth="yes"/>
			<point x="-915" y="790"/>
			<point x="-977" y="716"/>
			<point x="-977" y="642" type="curve" smooth="yes"/>
			<point x="-977" y="546"/>
			<point x="-897" y="501"/>
			<point x="-897" y="439" type="curve" smooth="yes"/>
			<point x="-897" y="412"/>
			<point x="-916" y="381"/>
			<point x="-958" y="381" type="curve" smooth="yes"/>
			<point x="-1051" y="381" type="line"/>
			<point x="-1051" y="246" type="line"/>
			<point x="-958" y="246" type="line" smooth="yes"/>
			<point x="-916" y="246"/>
			<point x="-897" y="216"/>
			<point x="-897" y="189" type="curve" smooth="yes"/>
			<point x="-897" y="122"/>
			<point x="-977" y="85"/>
			<point x="-977" y="-17" type="curve"/>
			<point x="-977" y="-100"/>
			<point x="-914" y="-163"/>
			<point x="-802" y="-163" type="curve" smooth="yes"/>
		</contour>
		<contour>
			<point x="-118" y="276" type="line"/>
			<point x="-118" y="153" type="line"/>
			<point x="-14" y="153" type="line"/>
			<point x="-28" y="0" type="line"/>
			<point x="98" y="0" type="line"/>
			<point x="112" y="153" type="line"/>
			<point x="214" y="153" type="line"/>
			<point x="200" y="0" type="line"/>
			<point x="325" y="0" type="line"/>
			<point x="339" y="153" type="line"/>
			<point x="440" y="153" type="line"/>
			<point x="440" y="276" type="line"/>
			<point x="351" y="276" type="line"/>
			<point x="364" y="413" type="line"/>
			<point x="463" y="413" type="line"/>
			<point x="463" y="537" type="line"/>
			<point x="376" y="537" type="line"/>
			<point x="390" y="684" type="line"/>
			<point x="265" y="684" type="line"/>
			<point x="251" y="537" type="line"/>
			<point x="148" y="537" type="line"/>
			<point x="162" y="684" type="line"/>
			<point x="37" y="684" type="line"/>
			<point x="23" y="537" type="line"/>
			<point x="-118" y="537" type="line"/>
			<point x="-118" y="413" type="line"/>
			<point x="11" y="413" type="line"/>
			<point x="-2" y="276" type="line"/>
		</contour>
		<contour>
			<point x="124" y="276" type="line"/>
			<point x="136" y="413" type="line"/>
			<point x="239" y="413" type="line"/>
			<point x="226" y="276" type="line"/>
		</contour>
	</outline>
</glyph>
<glyph name="braceright_numbersign.cLig" format="2">
	<advance width="600"/>
	<outline>
		<contour>
			<point x="-520" y="-163" type="line"/>
			<point x="-333" y="-163" type="line" smooth="yes"/>
			<point x="-221" y="-163"/>
			<point x="-159" y="-96"/>
			<point x="-159" y="-20" type="curve" smooth="yes"/>
			<point x="-158" y="74"/>
			<point x="-255" y="128"/>
			<point x="-254" y="188" type="curve" smooth="yes"/>
			<point x="-254" y="217"/>
			<point x="-235" y="247"/>
			<point x="-193" y="247" type="curve" smooth="yes"/>
			<point x="-151" y="247" type="line"/>
			<point x="-151" y="386" type="line"/>
			<point x="-192" y="385" type="line" smooth="yes"/>
			<point x="-234" y="386"/>
			<point x="-254" y="418"/>
			<point x="-254" y="444" type="curve" smooth="yes"/>
			<point x="-255" y="504"/>
			<point x="-159" y="558"/>
			<point x="-159" y="651" type="curve" smooth="yes"/>
			<point x="-158" y="728"/>
			<point x="-221" y="792"/>
			<point x="-334" y="792" type="curve" smooth="yes"/>
			<point x="-521" y="792" type="line"/>
			<point x="-521" y="672" type="line"/>
			<point x="-398" y="672" type="line" smooth="yes"/>
			<point x="-352" y="672"/>
			<point x="-330" y="652"/>
			<point x="-330" y="623" type="curve" smooth="yes"/>
			<point x="-330" y="568"/>
			<point x="-426" y="519"/>
			<point x="-426" y="437" type="curve" smooth="yes"/>
			<point x="-426" y="380"/>
			<point x="-374" y="329"/>
			<point x="-296" y="316" type="curve"/>
			<point x="-374" y="305"/>
			<point x="-425" y="252"/>
			<point x="-425" y="195" type="curve" smooth="yes"/>
			<point x="-425" y="113"/>
			<point x="-330" y="63"/>
			<point x="-330" y="6" type="curve" smooth="yes"/>
			<point x="-330" y="-28"/>
			<point x="-351" y="-44"/>
			<point x="-392" y="-44" type="curve" smooth="yes"/>
			<point x="-520" y="-44" type="line"/>
		</contour>
		<contour>
			<point x="-65" y="276" type="line"/>
			<point x="-65" y="153" type="line"/>
			<point x="39" y="153" type="line"/>
			<point x="25" y="0" type="line"/>
			<point x="151" y="0" type="line"/>
			<point x="165" y="153" type="line"/>
			<point x="268" y="153" type="line"/>
			<point x="253" y="0" type="line"/>
			<point x="378" y="0" type="line"/>
			<point x="393" y="153" type="line"/>
			<point x="493" y="153" type="line"/>
			<point x="493" y="276" type="line"/>
			<point x="404" y="276" type="line"/>
			<point x="417" y="413" type="line"/>
			<point x="516" y="413" type="line"/>
			<point x="516" y="537" type="line"/>
			<point x="429" y="537" type="line"/>
			<point x="443" y="684" type="line"/>
			<point x="318" y="684" type="line"/>
			<point x="304" y="537" type="line"/>
			<point x="201" y="537" type="line"/>
			<point x="215" y="684" type="line"/>
			<point x="90" y="684" type="line"/>
			<point x="76" y="537" type="line"/>
			<point x="-65" y="537" type="line"/>
			<point x="-65" y="413" type="line"/>
			<point x="64" y="413" type="line"/>
			<point x="51" y="276" type="line"/>
		</contour>
		<contour>
			<point x="177" y="276" type="line"/>
			<point x="190" y="413" type="line"/>
			<point x="292" y="413" type="line"/>
			<point x="279" y="276" type="line"/>
		</contour>
	</outline>
</glyph>
<glyph name="bracketleft_bracketleft.cLig" format="2">
	<advance width="600"/>
	<outline>
		<contour>
			<point x="-401" y="-163" type="line"/>
			<point x="11" y="-163" type="line"/>
			<point x="11" y="-43" type="line"/>
			<point x="-244" y="-43" type="line"/>
			<point x="-244" y="672" type="line"/>
			<point x="11" y="672" type="line"/>
			<point x="11" y="792" type="line"/>
			<point x="-401" y="792" type="line"/>
		</contour>
		<contour>
			<point x="88" y="-163" type="line"/>
			<point x="448" y="-163" type="line"/>
			<point x="448" y="-43" type="line"/>
			<point x="244" y="-43" type="line"/>
			<point x="244" y="672" type="line"/>
			<point x="448" y="672" type="line"/>
			<point x="448" y="792" type="line"/>
			<point x="88" y="792" type="line"/>
		</contour>
	</outline>
</glyph>
<glyph name="bracketleft_bracketleft_numbersign.cLig" format="2">
	<advance width="600"/>
	<outline>
		<contour>
			<point x="-124" y="276" type="line"/>
			<point x="-124" y="153" type="line"/>
			<point x="-20" y="153" type="line"/>
			<point x="-34" y="0" type="line"/>
			<point x="92" y="0" type="line"/>
			<point x="106" y="153" type="line"/>
			<point x="208" y="153" type="line"/>
			<point x="194" y="0" type="line"/>
			<point x="319" y="0" type="line"/>
			<point x="333" y="153" type="line"/>
			<point x="434" y="153" type="line"/>
			<point x="434" y="276" type="line"/>
			<point x="345" y="276" type="line"/>
			<point x="358" y="413" type="line"/>
			<point x="457" y="413" type="line"/>
			<point x="457" y="537" type="line"/>
			<point x="370" y="537" type="line"/>
			<point x="384" y="684" type="line"/>
			<point x="259" y="684" type="line"/>
			<point x="245" y="537" type="line"/>
			<point x="142" y="537" type="line"/>
			<point x="156" y="684" type="line"/>
			<point x="31" y="684" type="line"/>
			<point x="17" y="537" type="line"/>
			<point x="-124" y="537" type="line"/>
			<point x="-124" y="413" type="line"/>
			<point x="5" y="413" type="line"/>
			<point x="-8" y="276" type="line"/>
		</contour>
		<contour>
			<point x="118" y="276" type="line"/>
			<point x="130" y="413" type="line"/>
			<point x="233" y="413" type="line"/>
			<point x="220" y="276" type="line"/>
		</contour>
		<contour>
			<point x="-1020" y="-163" type="line"/>
			<point x="-608" y="-163" type="line"/>
			<point x="-608" y="-43" type="line"/>
			<point x="-863" y="-43" type="line"/>
			<point x="-863" y="672" type="line"/>
			<point x="-608" y="672" type="line"/>
			<point x="-608" y="792" type="line"/>
			<point x="-1020" y="792" type="line"/>
		</contour>
		<contour>
			<point x="-531" y="-163" type="line"/>
			<point x="-171" y="-163" type="line"/>
			<point x="-171" y="-43" type="line"/>
			<point x="-375" y="-43" type="line"/>
			<point x="-375" y="672" type="line"/>
			<point x="-171" y="672" type="line"/>
			<point x="-171" y="792" type="line"/>
			<point x="-531" y="792" type="line"/>
		</contour>
	</outline>
</glyph>
<glyph name="bracketright_bracketright.cLig" format="2">
	<advance width="600"/>
	<outline>
		<contour>
			<point x="448" y="792" type="line"/>
			<point x="36" y="792" type="line"/>
			<point x="36" y="672" type="line"/>
			<point x="291" y="672" type="line"/>
			<point x="291" y="-43" type="line"/>
			<point x="36" y="-43" type="line"/>
			<point x="36" y="-163" type="line"/>
			<point x="448" y="-163" type="line"/>
		</contour>
		<contour>
			<point x="-41" y="792" type="line"/>
			<point x="-401" y="792" type="line"/>
			<point x="-401" y="672" type="line"/>
			<point x="-197" y="672" type="line"/>
			<point x="-197" y="-43" type="line"/>
			<point x="-401" y="-43" type="line"/>
			<point x="-401" y="-163" type="line"/>
			<point x="-41" y="-163" type="line"/>
		</contour>
	</outline>
</glyph>
<glyph name="breve.cap" format="2">
	<advance width="600"/>
	<outline>
		<contour>
			<point x="300" y="735" type="curve" smooth="yes"/>
			<point x="410" y="735"/>
			<point x="473" y="777"/>
			<point x="473" y="884" type="curve"/>
			<point x="359" y="884" type="line"/>
			<point x="359" y="835"/>
			<point x="343" y="814"/>
			<point x="300" y="814" type="curve" smooth="yes"/>
			<point x="254" y="814"/>
			<point x="241" y="836"/>
			<point x="241" y="884" type="curve"/>
			<point x="127" y="884" type="line"/>
			<point x="127" y="777"/>
			<point x="184" y="735"/>
		</contour>
	</outline>
	<anchor name="_top" x="300" y="684"/>
</glyph>
<glyph name="caron.cap" format="2">
	<advance width="600"/>
	<outline>
		<contour>
			<point x="505" y="884" type="line"/>
			<point x="364" y="884" type="line"/>
			<point x="301" y="802" type="line"/>
			<point x="236" y="884" type="line"/>
			<point x="94" y="884" type="line"/>
			<point x="211" y="743" type="line"/>
			<point x="389" y="743" type="line"/>
		</contour>
	</outline>
	<anchor name="_top" x="301" y="684"/>
</glyph>
<glyph name="colon_colon.cLig" format="2">
	<advance width="600"/>
	<outline>
		<contour>
			<point x="-218" y="-12" type="curve" smooth="yes"/>
			<point x="-144" y="-12"/>
			<point x="-105" y="16"/>
			<point x="-105" y="90" type="curve" smooth="yes"/>
			<point x="-105" y="164"/>
			<point x="-144" y="191"/>
			<point x="-218" y="191" type="curve" smooth="yes"/>
			<point x="-292" y="191"/>
			<point x="-331" y="164"/>
			<point x="-331" y="90" type="curve" smooth="yes"/>
			<point x="-331" y="16"/>
			<point x="-292" y="-12"/>
		</contour>
		<contour>
			<point x="-218" y="328" type="curve" smooth="yes"/>
			<point x="-144" y="328"/>
			<point x="-105" y="356"/>
			<point x="-105" y="430" type="curve" smooth="yes"/>
			<point x="-105" y="504"/>
			<point x="-144" y="531"/>
			<point x="-218" y="531" type="curve" smooth="yes"/>
			<point x="-292" y="531"/>
			<point x="-331" y="504"/>
			<point x="-331" y="430" type="curve" smooth="yes"/>
			<point x="-331" y="356"/>
			<point x="-292" y="328"/>
		</contour>
		<contour>
			<point x="218" y="-12" type="curve" smooth="yes"/>
			<point x="292" y="-12"/>
			<point x="331" y="16"/>
			<point x="331" y="90" type="curve" smooth="yes"/>
			<point x="331" y="164"/>
			<point x="292" y="191"/>
			<point x="218" y="191" type="curve" smooth="yes"/>
			<point x="144" y="191"/>
			<point x="105" y="164"/>
			<point x="105" y="90" type="curve" smooth="yes"/>
			<point x="105" y="16"/>
			<point x="144" y="-12"/>
		</contour>
		<contour>
			<point x="218" y="328" type="curve" smooth="yes"/>
			<point x="292" y="328"/>
			<point x="331" y="356"/>
			<point x="331" y="430" type="curve" smooth="yes"/>
			<point x="331" y="504"/>
			<point x="292" y="531"/>
			<point x="218" y="531" type="curve" smooth="yes"/>
			<point x="144" y="531"/>
			<point x="105" y="504"/>
			<point x="105" y="430" type="curve" smooth="yes"/>
			<point x="105" y="356"/>
			<point x="144" y="328"/>
		</contour>
	</outline>
</glyph>
<glyph name="colon_equal.cLig" format="2">
	<advance width="600"/>
	<outline>
		<contour>
			<point x="-327" y="28" type="curve" smooth="yes"/>
			<point x="-253" y="28"/>
			<point x="-214" y="56"/>
			<point x="-214" y="130" type="curve" smooth="yes"/>
			<point x="-214" y="204"/>
			<point x="-253" y="231"/>
			<point x="-327" y="231" type="curve" smooth="yes"/>
			<point x="-401" y="231"/>
			<point x="-440" y="204"/>
			<point x="-440" y="130" type="curve" smooth="yes"/>
			<point x="-440" y="56"/>
			<point x="-401" y="28"/>
		</contour>
		<contour>
			<point x="-327" y="324" type="curve" smooth="yes"/>
			<point x="-253" y="324"/>
			<point x="-214" y="352"/>
			<point x="-214" y="426" type="curve" smooth="yes"/>
			<point x="-214" y="500"/>
			<point x="-253" y="527"/>
			<point x="-327" y="527" type="curve" smooth="yes"/>
			<point x="-401" y="527"/>
			<point x="-440" y="500"/>
			<point x="-440" y="426" type="curve" smooth="yes"/>
			<point x="-440" y="352"/>
			<point x="-401" y="324"/>
		</contour>
		<contour>
			<point x="-52.2604316582" y="336" type="line"/>
			<point x="437.0949639982" y="336" type="line"/>
			<point x="437.0949639982" y="474" type="line"/>
			<point x="-52.2604316582" y="474" type="line"/>
		</contour>
		<contour>
			<point x="-52.2604316582" y="109" type="line"/>
			<point x="437.0949639982" y="109" type="line"/>
			<point x="437.0949639982" y="247" type="line"/>
			<point x="-52.2604316582" y="247" type="line"/>
		</contour>
	</outline>
</glyph>
<glyph name="dieresis.cap" format="2">
	<advance width="600"/>
	<outline>
		<contour>
			<point x="407" y="880" type="curve" smooth="yes"/>
			<point x="347" y="880"/>
			<point x="326" y="857"/>
			<point x="326" y="810" type="curve" smooth="yes"/>
			<point x="326" y="763"/>
			<point x="346" y="740"/>
			<point x="407" y="740" type="curve" smooth="yes"/>
			<point x="469" y="740"/>
			<point x="489" y="764"/>
			<point x="489" y="810" type="curve" smooth="yes"/>
			<point x="489" y="857"/>
			<point x="469" y="880"/>
		</contour>
		<contour>
			<point x="193" y="740" type="curve" smooth="yes"/>
			<point x="254" y="740"/>
			<point x="273" y="764"/>
			<point x="273" y="810" type="curve" smooth="yes"/>
			<point x="273" y="857"/>
			<point x="254" y="880"/>
			<point x="193" y="880" type="curve" smooth="yes"/>
			<point x="132" y="880"/>
			<point x="111" y="857"/>
			<point x="111" y="810" type="curve" smooth="yes"/>
			<point x="111" y="763"/>
			<point x="131" y="740"/>
		</contour>
	</outline>
	<anchor name="_top" x="300" y="684"/>
</glyph>
<glyph name="dollar_greater.cLig" format="2">
	<advance width="600"/>
	<outline>
		<contour>
			<point x="-410" y="-93" type="line"/>
			<point x="-304" y="-93" type="line"/>
			<point x="-290" y="-11" type="line"/>
			<point x="-280" y="-11" type="line" smooth="yes"/>
			<point x="-123" y="-11"/>
			<point x="-23" y="65"/>
			<point x="-23" y="223" type="curve" smooth="yes"/>
			<point x="-23" y="347"/>
			<point x="-113" y="391"/>
			<point x="-231" y="415" type="curve"/>
			<point x="-206" y="558" type="line"/>
			<point x="-138" y="546"/>
			<point x="-67" y="515"/>
			<point x="66" y="459" type="curve" smooth="yes"/>
			<point x="396" y="315" type="line"/>
			<point x="87" y="180" type="line"/>
			<point x="87" y="21" type="line"/>
			<point x="524" y="222" type="line"/>
			<point x="524" y="407" type="line"/>
			<point x="130" y="587" type="line" smooth="yes"/>
			<point x="48" y="625"/>
			<point x="-65" y="667"/>
			<point x="-169" y="685" type="curve"/>
			<point x="-155" y="774" type="line"/>
			<point x="-262" y="774" type="line"/>
			<point x="-275" y="695" type="line"/>
			<point x="-435" y="695"/>
			<point x="-546" y="618"/>
			<point x="-546" y="472" type="curve" smooth="yes"/>
			<point x="-546" y="337"/>
			<point x="-462" y="299"/>
			<point x="-335" y="273" type="curve"/>
			<point x="-359" y="133" type="line"/>
			<point x="-416" y="145"/>
			<point x="-478" y="170"/>
			<point x="-534" y="207" type="curve"/>
			<point x="-534" y="58" type="line"/>
			<point x="-494" y="33"/>
			<point x="-449" y="13"/>
			<point x="-396" y="1" type="curve"/>
		</contour>
		<contour>
			<point x="-381" y="494" type="curve" smooth="yes"/>
			<point x="-381" y="541"/>
			<point x="-345" y="560"/>
			<point x="-284" y="562" type="curve"/>
			<point x="-307" y="429" type="line"/>
			<point x="-355" y="440"/>
			<point x="-381" y="455"/>
		</contour>
		<contour>
			<point x="-187" y="194" type="curve" smooth="yes"/>
			<point x="-187" y="147"/>
			<point x="-221" y="125"/>
			<point x="-278" y="125" type="curve" smooth="yes"/>
			<point x="-281" y="125" type="line"/>
			<point x="-258" y="258" type="line"/>
			<point x="-213" y="246"/>
			<point x="-187" y="229"/>
		</contour>
	</outline>
</glyph>
<glyph name="dotaccent.cap" format="2">
	<advance width="600"/>
	<outline>
		<contour>
			<point x="300" y="740" type="curve" smooth="yes"/>
			<point x="371" y="740"/>
			<point x="394" y="767"/>
			<point x="394" y="816" type="curve" smooth="yes"/>
			<point x="394" y="866"/>
			<point x="370" y="892"/>
			<point x="300" y="892" type="curve" smooth="yes"/>
			<point x="230" y="892"/>
			<point x="206" y="867"/>
			<point x="206" y="816" type="curve" smooth="yes"/>
			<point x="206" y="766"/>
			<point x="230" y="740"/>
		</contour>
	</outline>
	<anchor name="_top" x="300" y="684"/>
</glyph>
<glyph name="eight.den" format="2">
	<advance width="600"/>
	<outline>
		<contour>
			<point x="299" y="-8" type="curve" smooth="yes"/>
			<point x="405" y="-8"/>
			<point x="471" y="31"/>
			<point x="471" y="109" type="curve" smooth="yes"/>
			<point x="471" y="169"/>
			<point x="432" y="197"/>
			<point x="384" y="209" type="curve"/>
			<point x="430" y="220"/>
			<point x="462" y="256"/>
			<point x="462" y="305" type="curve" smooth="yes"/>
			<point x="462" y="382"/>
			<point x="397" y="418"/>
			<point x="300" y="418" type="curve" smooth="yes"/>
			<point x="203" y="418"/>
			<point x="137" y="382"/>
			<point x="137" y="305" type="curve" smooth="yes"/>
			<point x="137" y="254"/>
			<point x="171" y="220"/>
			<point x="218" y="210" type="curve"/>
			<point x="169" y="198"/>
			<point x="129" y="169"/>
			<point x="129" y="109" type="curve" smooth="yes"/>
			<point x="129" y="31"/>
			<point x="193" y="-8"/>
		</contour>
		<contour>
			<point x="299" y="242" type="curve" smooth="yes"/>
			<point x="265" y="242"/>
			<point x="243" y="257"/>
			<point x="243" y="292" type="curve" smooth="yes"/>
			<point x="243" y="326"/>
			<point x="266" y="342"/>
			<point x="300" y="342" type="curve" smooth="yes"/>
			<point x="334" y="342"/>
			<point x="356" y="327"/>
			<point x="356" y="292" type="curve" smooth="yes"/>
			<point x="356" y="257"/>
			<point x="333" y="242"/>
		</contour>
		<contour>
			<point x="300" y="72" type="curve" smooth="yes"/>
			<point x="265" y="72"/>
			<point x="241" y="87"/>
			<point x="241" y="124" type="curve" smooth="yes"/>
			<point x="241" y="160"/>
			<point x="265" y="176"/>
			<point x="301" y="176" type="curve" smooth="yes"/>
			<point x="336" y="176"/>
			<point x="360" y="161"/>
			<point x="360" y="124" type="curve" smooth="yes"/>
			<point x="360" y="88"/>
			<point x="335" y="72"/>
		</contour>
	</outline>
</glyph>
<glyph name="equal.den" format="2">
	<advance width="600"/>
	<outline>
		<contour>
			<point x="139" y="306" type="line"/>
			<point x="139" y="218" type="line"/>
			<point x="461" y="218" type="line"/>
			<point x="461" y="306" type="line"/>
		</contour>
		<contour>
			<point x="139" y="163" type="line"/>
			<point x="139" y="75" type="line"/>
			<point x="461" y="75" type="line"/>
			<point x="461" y="163" type="line"/>
		</contour>
	</outline>
</glyph>
<glyph name="equal.fina" format="2">
	<advance width="600"/>
	<outline>
		<contour>
			<point x="0" y="359" type="line"/>
			<point x="444" y="359" type="line"/>
			<point x="444" y="498" type="line"/>
			<point x="0" y="498" type="line"/>
		</contour>
		<contour>
			<point x="0" y="131" type="line"/>
			<point x="444" y="131" type="line"/>
			<point x="444" y="270" type="line"/>
			<point x="0" y="270" type="line"/>
		</contour>
	</outline>
</glyph>
<glyph name="equal.init" format="2">
	<advance width="600"/>
	<outline>
		<contour>
			<point x="156" y="359" type="line"/>
			<point x="600" y="359" type="line"/>
			<point x="600" y="498" type="line"/>
			<point x="156" y="498" type="line"/>
		</contour>
		<contour>
			<point x="156" y="131" type="line"/>
			<point x="600" y="131" type="line"/>
			<point x="600" y="270" type="line"/>
			<point x="156" y="270" type="line"/>
		</contour>
	</outline>
	<guideline x="404.5323741007" y="614.5971223021" angle="270" identifier="c2Y1Sn7BVk"/>
</glyph>
<glyph name="equal_bar_bar.rem" format="2">
	<advance width="600"/>
	<outline>
		<contour>
			<point x="389" y="-55" type="line"/>
			<point x="389" y="684" type="line"/>
			<point x="233" y="684" type="line"/>
			<point x="233" y="-55" type="line"/>
		</contour>
		<contour>
			<point x="8" y="-55" type="line"/>
			<point x="8" y="684" type="line"/>
			<point x="-148" y="684" type="line"/>
			<point x="-148" y="498" type="line"/>
			<point x="-1044" y="498" type="line"/>
			<point x="-1044" y="359" type="line"/>
			<point x="-148" y="359" type="line"/>
			<point x="-148" y="270" type="line"/>
			<point x="-1044" y="270" type="line"/>
			<point x="-1044" y="131" type="line"/>
			<point x="-148" y="131" type="line"/>
			<point x="-148" y="-55" type="line"/>
		</contour>
	</outline>
</glyph>
<glyph name="equal_equal_greater.rem" format="2">
	<advance width="600"/>
	<outline>
		<contour>
			<point x="-1044" y="131" type="line"/>
			<point x="142" y="131" type="line"/>
			<point x="35" y="0" type="line"/>
			<point x="223" y="0" type="line"/>
			<point x="482" y="314" type="line"/>
			<point x="220" y="629" type="line"/>
			<point x="32" y="629" type="line"/>
			<point x="142" y="498" type="line"/>
			<point x="-1044" y="498" type="line"/>
			<point x="-1044" y="359" type="line"/>
			<point x="259" y="359" type="line"/>
			<point x="294" y="317" type="line"/>
			<point x="256" y="270" type="line"/>
			<point x="-1044" y="270" type="line"/>
		</contour>
	</outline>
</glyph>
<glyph name="equal_exclam_equal.rem" format="2">
	<advance width="600"/>
	<outline>
		<contour>
			<point x="-360" y="241" type="line"/>
			<point x="-240" y="241" type="line"/>
			<point x="-208" y="565" type="line"/>
			<point x="-208" y="684" type="line"/>
			<point x="-391" y="684" type="line"/>
			<point x="-391" y="565" type="line"/>
		</contour>
		<contour>
			<point x="-298" y="-12" type="curve" smooth="yes"/>
			<point x="-230" y="-12"/>
			<point x="-196" y="13"/>
			<point x="-196" y="81" type="curve" smooth="yes"/>
			<point x="-196" y="146"/>
			<point x="-230" y="173"/>
			<point x="-298" y="173" type="curve" smooth="yes"/>
			<point x="-368" y="173"/>
			<point x="-402" y="146"/>
			<point x="-402" y="81" type="curve" smooth="yes"/>
			<point x="-402" y="13"/>
			<point x="-368" y="-12"/>
		</contour>
		<contour>
			<point x="-1044.840287768" y="336" type="line"/>
			<point x="-559.936690632" y="336" type="line"/>
			<point x="-559.936690632" y="474" type="line"/>
			<point x="-1044.840287768" y="474" type="line"/>
		</contour>
		<contour>
			<point x="-1044.840287768" y="109" type="line"/>
			<point x="-559.936690632" y="109" type="line"/>
			<point x="-559.936690632" y="247" type="line"/>
			<point x="-1044.840287768" y="247" type="line"/>
		</contour>
		<contour>
			<point x="-39.840287768" y="336" type="line"/>
			<point x="445.063309368" y="336" type="line"/>
			<point x="445.063309368" y="474" type="line"/>
			<point x="-39.840287768" y="474" type="line"/>
		</contour>
		<contour>
			<point x="-39.840287768" y="109" type="line"/>
			<point x="445.063309368" y="109" type="line"/>
			<point x="445.063309368" y="247" type="line"/>
			<point x="-39.840287768" y="247" type="line"/>
		</contour>
	</outline>
</glyph>
<glyph name="equal_slash_equal.rem" format="2">
	<advance width="600"/>
	<outline>
		<contour>
			<point x="-1045" y="110" type="line"/>
			<point x="-483" y="110" type="line"/>
			<point x="-603" y="-80" type="line"/>
			<point x="-455" y="-80" type="line"/>
			<point x="-335" y="110" type="line"/>
			<point x="445" y="110" type="line"/>
			<point x="445" y="248" type="line"/>
			<point x="-248" y="248" type="line"/>
			<point x="-192" y="337" type="line"/>
			<point x="445" y="337" type="line"/>
			<point x="445" y="475" type="line"/>
			<point x="-105" y="475" type="line"/>
			<point x="1" y="644" type="line"/>
			<point x="-147" y="644" type="line"/>
			<point x="-253" y="475" type="line"/>
			<point x="-1045" y="475" type="line"/>
			<point x="-1045" y="337" type="line"/>
			<point x="-340" y="337" type="line"/>
			<point x="-396" y="248" type="line"/>
			<point x="-1045" y="248" type="line"/>
		</contour>
	</outline>
</glyph>
<glyph name="exclam_equal.cLig" format="2">
	<advance width="600"/>
	<outline>
		<contour>
			<point x="-445" y="109" type="line"/>
			<point x="-183" y="109" type="line"/>
			<point x="-302" y="-80" type="line"/>
			<point x="-154" y="-80" type="line"/>
			<point x="-35" y="109" type="line"/>
			<point x="445" y="109" type="line"/>
			<point x="445" y="247" type="line"/>
			<point x="52" y="247" type="line"/>
			<point x="108" y="336" type="line"/>
			<point x="445" y="336" type="line"/>
			<point x="445" y="474" type="line"/>
			<point x="195" y="474" type="line"/>
			<point x="302" y="644" type="line"/>
			<point x="154" y="644" type="line"/>
			<point x="47" y="474" type="line"/>
			<point x="-445" y="474" type="line"/>
			<point x="-445" y="336" type="line"/>
			<point x="-40" y="336" type="line"/>
			<point x="-96" y="247" type="line"/>
			<point x="-445" y="247" type="line"/>
		</contour>
	</outline>
</glyph>
<glyph name="exclam_equal_equal.cLig" format="2">
	<advance width="600"/>
	<outline>
		<contour>
			<point x="-1050" y="39" type="line"/>
			<point x="-537" y="39" type="line"/>
			<point x="-610" y="-84" type="line"/>
			<point x="-451" y="-84" type="line"/>
			<point x="-378" y="39" type="line"/>
			<point x="450" y="39" type="line"/>
			<point x="450" y="167" type="line"/>
			<point x="-302" y="167" type="line"/>
			<point x="-254" y="249" type="line"/>
			<point x="450" y="249" type="line"/>
			<point x="450" y="377" type="line"/>
			<point x="-178" y="377" type="line"/>
			<point x="-130" y="459" type="line"/>
			<point x="450" y="459" type="line"/>
			<point x="450" y="587" type="line"/>
			<point x="-54" y="587" type="line"/>
			<point x="10" y="694" type="line"/>
			<point x="-149" y="694" type="line"/>
			<point x="-212" y="587" type="line"/>
			<point x="-1050" y="587" type="line"/>
			<point x="-1050" y="459" type="line"/>
			<point x="-288" y="459" type="line"/>
			<point x="-337" y="377" type="line"/>
			<point x="-1050" y="377" type="line"/>
			<point x="-1050" y="249" type="line"/>
			<point x="-412" y="249" type="line"/>
			<point x="-461" y="167" type="line"/>
			<point x="-1050" y="167" type="line"/>
		</contour>
	</outline>
</glyph>
<glyph name="exclam_exclam_exclam.rem" format="2">
	<advance width="600"/>
	<outline>
		<contour>
			<point x="-838" y="241" type="line"/>
			<point x="-718" y="241" type="line"/>
			<point x="-686" y="565" type="line"/>
			<point x="-686" y="684" type="line"/>
			<point x="-869" y="684" type="line"/>
			<point x="-869" y="565" type="line"/>
		</contour>
		<contour>
			<point x="-776" y="-12" type="curve" smooth="yes"/>
			<point x="-708" y="-12"/>
			<point x="-674" y="13"/>
			<point x="-674" y="81" type="curve" smooth="yes"/>
			<point x="-674" y="146"/>
			<point x="-708" y="173"/>
			<point x="-776" y="173" type="curve" smooth="yes"/>
			<point x="-846" y="173"/>
			<point x="-880" y="146"/>
			<point x="-880" y="81" type="curve" smooth="yes"/>
			<point x="-880" y="13"/>
			<point x="-846" y="-12"/>
		</contour>
		<contour>
			<point x="-360" y="241" type="line"/>
			<point x="-240" y="241" type="line"/>
			<point x="-208" y="565" type="line"/>
			<point x="-208" y="684" type="line"/>
			<point x="-391" y="684" type="line"/>
			<point x="-391" y="565" type="line"/>
		</contour>
		<contour>
			<point x="-298" y="-12" type="curve" smooth="yes"/>
			<point x="-230" y="-12"/>
			<point x="-196" y="13"/>
			<point x="-196" y="81" type="curve" smooth="yes"/>
			<point x="-196" y="146"/>
			<point x="-230" y="173"/>
			<point x="-298" y="173" type="curve" smooth="yes"/>
			<point x="-368" y="173"/>
			<point x="-402" y="146"/>
			<point x="-402" y="81" type="curve" smooth="yes"/>
			<point x="-402" y="13"/>
			<point x="-368" y="-12"/>
		</contour>
		<contour>
			<point x="117" y="241" type="line"/>
			<point x="237" y="241" type="line"/>
			<point x="269" y="565" type="line"/>
			<point x="269" y="684" type="line"/>
			<point x="86" y="684" type="line"/>
			<point x="86" y="565" type="line"/>
		</contour>
		<contour>
			<point x="179" y="-12" type="curve" smooth="yes"/>
			<point x="247" y="-12"/>
			<point x="281" y="13"/>
			<point x="281" y="81" type="curve" smooth="yes"/>
			<point x="281" y="146"/>
			<point x="247" y="173"/>
			<point x="179" y="173" type="curve" smooth="yes"/>
			<point x="109" y="173"/>
			<point x="75" y="146"/>
			<point x="75" y="81" type="curve" smooth="yes"/>
			<point x="75" y="13"/>
			<point x="109" y="-12"/>
		</contour>
	</outline>
</glyph>
<glyph name="exclam_exclam_period.cLig" format="2">
	<advance width="600"/>
	<outline>
		<contour>
			<point x="-838" y="241" type="line"/>
			<point x="-718" y="241" type="line"/>
			<point x="-686" y="565" type="line"/>
			<point x="-686" y="684" type="line"/>
			<point x="-869" y="684" type="line"/>
			<point x="-869" y="565" type="line"/>
		</contour>
		<contour>
			<point x="-776" y="-12" type="curve" smooth="yes"/>
			<point x="-708" y="-12"/>
			<point x="-674" y="13"/>
			<point x="-674" y="81" type="curve" smooth="yes"/>
			<point x="-674" y="146"/>
			<point x="-708" y="173"/>
			<point x="-776" y="173" type="curve" smooth="yes"/>
			<point x="-846" y="173"/>
			<point x="-880" y="146"/>
			<point x="-880" y="81" type="curve" smooth="yes"/>
			<point x="-880" y="13"/>
			<point x="-846" y="-12"/>
		</contour>
		<contour>
			<point x="-360" y="241" type="line"/>
			<point x="-240" y="241" type="line"/>
			<point x="-208" y="565" type="line"/>
			<point x="-208" y="684" type="line"/>
			<point x="-391" y="684" type="line"/>
			<point x="-391" y="565" type="line"/>
		</contour>
		<contour>
			<point x="-298" y="-12" type="curve" smooth="yes"/>
			<point x="-230" y="-12"/>
			<point x="-196" y="13"/>
			<point x="-196" y="81" type="curve" smooth="yes"/>
			<point x="-196" y="146"/>
			<point x="-230" y="173"/>
			<point x="-298" y="173" type="curve" smooth="yes"/>
			<point x="-368" y="173"/>
			<point x="-402" y="146"/>
			<point x="-402" y="81" type="curve" smooth="yes"/>
			<point x="-402" y="13"/>
			<point x="-368" y="-12"/>
		</contour>
		<contour>
			<point x="179" y="-12" type="curve" smooth="yes"/>
			<point x="253" y="-12"/>
			<point x="292" y="16"/>
			<point x="292" y="90" type="curve" smooth="yes"/>
			<point x="292" y="164"/>
			<point x="253" y="191"/>
			<point x="179" y="191" type="curve" smooth="yes"/>
			<point x="105" y="191"/>
			<point x="66" y="164"/>
			<point x="66" y="90" type="curve" smooth="yes"/>
			<point x="66" y="16"/>
			<point x="105" y="-12"/>
		</contour>
	</outline>
</glyph>
<glyph name="four.den" format="2">
	<advance width="600"/>
	<outline>
		<contour>
			<point x="314" y="0" type="line"/>
			<point x="422" y="0" type="line"/>
			<point x="422" y="67" type="line"/>
			<point x="460" y="67" type="line"/>
			<point x="460" y="154" type="line"/>
			<point x="422" y="154" type="line"/>
			<point x="422" y="410" type="line"/>
			<point x="254" y="410" type="line"/>
			<point x="124" y="154" type="line"/>
			<point x="124" y="68" type="line"/>
			<point x="314" y="68" type="line"/>
		</contour>
		<contour>
			<point x="221" y="154" type="line"/>
			<point x="314" y="340" type="line"/>
			<point x="314" y="154" type="line"/>
		</contour>
	</outline>
</glyph>
<glyph name="four.numr" format="2">
	<advance width="600"/>
	<outline>
		<contour>
			<point x="307" y="372" type="line"/>
			<point x="403" y="372" type="line"/>
			<point x="403" y="427" type="line"/>
			<point x="433" y="427" type="line"/>
			<point x="433" y="504" type="line"/>
			<point x="403" y="504" type="line"/>
			<point x="403" y="717" type="line"/>
			<point x="252" y="717" type="line"/>
			<point x="149" y="504" type="line"/>
			<point x="149" y="427" type="line"/>
			<point x="307" y="427" type="line"/>
		</contour>
		<contour>
			<point x="234" y="504" type="line"/>
			<point x="307" y="656" type="line"/>
			<point x="307" y="504" type="line"/>
		</contour>
	</outline>
</glyph>
<glyph name="grave.cap" format="2">
	<advance width="600"/>
	<outline>
		<contour>
			<point x="413" y="743" type="line"/>
			<point x="364" y="884" type="line"/>
			<point x="186" y="884" type="line"/>
			<point x="291" y="743" type="line"/>
		</contour>
	</outline>
	<anchor name="_top" x="352" y="684"/>
</glyph>
<glyph name="greater_equal.med" format="2">
	<advance width="600"/>
	<outline>
		<contour>
			<point x="83" y="0" type="line"/>
			<point x="271" y="0" type="line"/>
			<point x="379" y="131" type="line"/>
			<point x="600" y="131" type="line"/>
			<point x="600" y="270" type="line"/>
			<point x="495" y="270" type="line"/>
			<point x="531" y="314" type="line"/>
			<point x="494" y="359" type="line"/>
			<point x="600" y="359" type="line"/>
			<point x="600" y="498" type="line"/>
			<point x="377" y="498" type="line"/>
			<point x="268" y="629" type="line"/>
			<point x="80" y="629" type="line"/>
			<point x="190" y="498" type="line"/>
			<point x="0" y="498" type="line"/>
			<point x="0" y="359" type="line"/>
			<point x="308" y="359" type="line"/>
			<point x="343" y="317" type="line"/>
			<point x="305" y="270" type="line"/>
			<point x="0" y="270" type="line"/>
			<point x="0" y="131" type="line"/>
			<point x="190" y="131" type="line"/>
		</contour>
	</outline>
</glyph>
<glyph name="greater_equal.rem" format="2">
	<advance width="600"/>
	<outline>
		<contour>
			<point x="-290" y="359" type="line"/>
			<point x="450" y="359" type="line"/>
			<point x="450" y="498" type="line"/>
			<point x="-217" y="498" type="line"/>
			<point x="-323" y="629" type="line"/>
			<point x="-513" y="629" type="line"/>
		</contour>
		<contour>
			<point x="-510" y="0" type="line"/>
			<point x="-320" y="0" type="line"/>
			<point x="-216" y="131" type="line"/>
			<point x="450" y="131" type="line"/>
			<point x="450" y="270" type="line"/>
			<point x="-291" y="270" type="line"/>
		</contour>
	</outline>
</glyph>
<glyph name="greater_equal_greater.rem" format="2">
	<advance width="600"/>
	<outline>
		<contour>
			<point x="-1105" y="0" type="line"/>
			<point x="-915" y="0" type="line"/>
			<point x="-811" y="131" type="line"/>
			<point x="145" y="131" type="line"/>
			<point x="38" y="0" type="line"/>
			<point x="226" y="0" type="line"/>
			<point x="485" y="314" type="line"/>
			<point x="223" y="629" type="line"/>
			<point x="35" y="629" type="line"/>
			<point x="145" y="498" type="line"/>
			<point x="-812" y="498" type="line"/>
			<point x="-918" y="629" type="line"/>
			<point x="-1108" y="629" type="line"/>
			<point x="-885" y="359" type="line"/>
			<point x="262" y="359" type="line"/>
			<point x="297" y="317" type="line"/>
			<point x="259" y="270" type="line"/>
			<point x="-886" y="270" type="line"/>
		</contour>
	</outline>
</glyph>
<glyph name="greater_greater.cLig" format="2">
	<advance width="600"/>
	<outline>
		<contour>
			<point x="-518" y="9" type="line"/>
			<point x="-42" y="201" type="line"/>
			<point x="-42" y="384" type="line"/>
			<point x="-518" y="578" type="line"/>
			<point x="-518" y="419" type="line"/>
			<point x="-178" y="294" type="line"/>
			<point x="-518" y="167" type="line"/>
		</contour>
		<contour>
			<point x="52" y="9" type="line"/>
			<point x="528" y="201" type="line"/>
			<point x="528" y="384" type="line"/>
			<point x="52" y="578" type="line"/>
			<point x="52" y="419" type="line"/>
			<point x="392" y="294" type="line"/>
			<point x="52" y="167" type="line"/>
		</contour>
	</outline>
</glyph>
<glyph name="greater_greater_equal.init" format="2">
	<advance width="600"/>
	<outline>
		<contour>
			<point x="-538" y="0" type="line"/>
			<point x="-346" y="0" type="line"/>
			<point x="-83" y="314" type="line"/>
			<point x="-349" y="629" type="line"/>
			<point x="-541" y="629" type="line"/>
			<point x="-272" y="315" type="line"/>
		</contour>
		<contour>
			<point x="81" y="359" type="line"/>
			<point x="600" y="359" type="line"/>
			<point x="600" y="498" type="line"/>
			<point x="154" y="498" type="line"/>
			<point x="48" y="629" type="line"/>
			<point x="-142" y="629" type="line"/>
		</contour>
		<contour>
			<point x="-139" y="0" type="line"/>
			<point x="51" y="0" type="line"/>
			<point x="155" y="131" type="line"/>
			<point x="600" y="131" type="line"/>
			<point x="600" y="270" type="line"/>
			<point x="80" y="270" type="line"/>
		</contour>
	</outline>
</glyph>
<glyph name="greater_greater_equal.med" format="2">
	<advance width="600"/>
	<outline>
		<contour>
			<point x="-487" y="0" type="line"/>
			<point x="-299" y="0" type="line"/>
			<point x="-40" y="314" type="line"/>
			<point x="-302" y="629" type="line"/>
			<point x="-490" y="629" type="line"/>
			<point x="-380" y="498" type="line"/>
			<point x="-600" y="498" type="line"/>
			<point x="-600" y="359" type="line"/>
			<point x="-263" y="359" type="line"/>
			<point x="-228" y="317" type="line"/>
			<point x="-266" y="270" type="line"/>
			<point x="-600" y="270" type="line"/>
			<point x="-600" y="131" type="line"/>
			<point x="-380" y="131" type="line"/>
		</contour>
		<contour>
			<point x="127" y="359" type="line"/>
			<point x="600" y="359" type="line"/>
			<point x="600" y="498" type="line"/>
			<point x="200" y="498" type="line"/>
			<point x="94" y="629" type="line"/>
			<point x="-96" y="629" type="line"/>
		</contour>
		<contour>
			<point x="-93" y="0" type="line"/>
			<point x="97" y="0" type="line"/>
			<point x="201" y="131" type="line"/>
			<point x="600" y="131" type="line"/>
			<point x="600" y="270" type="line"/>
			<point x="126" y="270" type="line"/>
		</contour>
	</outline>
</glyph>
<glyph name="greater_greater_greater.cLig" format="2">
	<advance width="600"/>
	<outline>
		<contour>
			<point x="-1118" y="9" type="line"/>
			<point x="-642" y="201" type="line"/>
			<point x="-642" y="384" type="line"/>
			<point x="-1118" y="578" type="line"/>
			<point x="-1118" y="419" type="line"/>
			<point x="-778" y="294" type="line"/>
			<point x="-1118" y="167" type="line"/>
		</contour>
		<contour>
			<point x="-537" y="9" type="line"/>
			<point x="-61" y="201" type="line"/>
			<point x="-61" y="384" type="line"/>
			<point x="-537" y="578" type="line"/>
			<point x="-537" y="419" type="line"/>
			<point x="-197" y="294" type="line"/>
			<point x="-537" y="167" type="line"/>
		</contour>
		<contour>
			<point x="44" y="9" type="line"/>
			<point x="520" y="201" type="line"/>
			<point x="520" y="384" type="line"/>
			<point x="44" y="578" type="line"/>
			<point x="44" y="419" type="line"/>
			<point x="384" y="294" type="line"/>
			<point x="44" y="167" type="line"/>
		</contour>
	</outline>
</glyph>
<glyph name="greater_greater_hyphen.med" format="2">
	<advance width="600"/>
	<outline>
		<contour>
			<point x="-55" y="0" type="line"/>
			<point x="133" y="0" type="line"/>
			<point x="322" y="227" type="line"/>
			<point x="599" y="227" type="line"/>
			<point x="599" y="375" type="line"/>
			<point x="342" y="375" type="line"/>
			<point x="130" y="629" type="line"/>
			<point x="-58" y="629" type="line"/>
			<point x="205" y="317" type="line"/>
		</contour>
		<contour>
			<point x="-600" y="239" type="line"/>
			<point x="-240" y="239" type="line"/>
			<point x="-450" y="0" type="line"/>
			<point x="-260" y="0" type="line"/>
			<point x="8" y="314" type="line"/>
			<point x="-263" y="629" type="line"/>
			<point x="-453" y="629" type="line"/>
			<point x="-240" y="389" type="line"/>
			<point x="-600" y="389" type="line"/>
		</contour>
	</outline>
</glyph>
<glyph name="greater_greater_hyphen.rem" format="2">
	<advance width="600"/>
	<outline>
		<contour>
			<point x="-1097" y="0" type="line"/>
			<point x="-904" y="0" type="line"/>
			<point x="-641" y="314" type="line"/>
			<point x="-907" y="629" type="line"/>
			<point x="-1100" y="629" type="line"/>
			<point x="-828" y="315" type="line"/>
		</contour>
		<contour>
			<point x="-702" y="0" type="line"/>
			<point x="-510" y="0" type="line"/>
			<point x="-309" y="239" type="line"/>
			<point x="463" y="239" type="line"/>
			<point x="463" y="389" type="line"/>
			<point x="-310" y="389" type="line"/>
			<point x="-513" y="629" type="line"/>
			<point x="-705" y="629" type="line"/>
			<point x="-437" y="315" type="line"/>
		</contour>
	</outline>
</glyph>
<glyph name="greater_hyphen.med" format="2">
	<advance width="600"/>
	<outline>
		<contour>
			<point x="76" y="0" type="line"/>
			<point x="265" y="0" type="line"/>
			<point x="469" y="239" type="line"/>
			<point x="600" y="239" type="line"/>
			<point x="600" y="389" type="line"/>
			<point x="469" y="389" type="line"/>
			<point x="262" y="629" type="line"/>
			<point x="73" y="629" type="line"/>
			<point x="285" y="389" type="line"/>
			<point x="0" y="389" type="line"/>
			<point x="0" y="239" type="line"/>
			<point x="285" y="239" type="line"/>
		</contour>
	</outline>
</glyph>
<glyph name="greater_hyphen_greater.rem" format="2">
	<advance width="600"/>
	<outline>
		<contour>
			<point x="-1088" y="0" type="line"/>
			<point x="-896" y="0" type="line"/>
			<point x="-695" y="239" type="line"/>
			<point x="232" y="239" type="line"/>
			<point x="22" y="0" type="line"/>
			<point x="212" y="0" type="line"/>
			<point x="479" y="314" type="line"/>
			<point x="209" y="629" type="line"/>
			<point x="19" y="629" type="line"/>
			<point x="232" y="389" type="line"/>
			<point x="-696" y="389" type="line"/>
			<point x="-899" y="629" type="line"/>
			<point x="-1091" y="629" type="line"/>
			<point x="-823" y="315" type="line"/>
		</contour>
	</outline>
</glyph>
<glyph name="hungarumlaut.cap" format="2">
	<advance width="600"/>
	<outline>
		<contour>
			<point x="301" y="743" type="line"/>
			<point x="406" y="743" type="line"/>
			<point x="491" y="884" type="line"/>
			<point x="347" y="884" type="line"/>
		</contour>
		<contour>
			<point x="108" y="743" type="line"/>
			<point x="214" y="743" type="line"/>
			<point x="298" y="884" type="line"/>
			<point x="154" y="884" type="line"/>
		</contour>
	</outline>
	<anchor name="_top" x="258" y="684"/>
</glyph>
<glyph name="hyphen_bar.rem" format="2">
	<advance width="600"/>
	<outline>
		<contour>
			<point x="233" y="684" type="line"/>
			<point x="233" y="389" type="line"/>
			<point x="-444" y="389" type="line"/>
			<point x="-444" y="239" type="line"/>
			<point x="233" y="239" type="line"/>
			<point x="233" y="-55" type="line"/>
			<point x="389" y="-55" type="line"/>
			<point x="389" y="684" type="line"/>
		</contour>
	</outline>
</glyph>
<glyph name="hyphen_bar_bar.rem" format="2">
	<advance width="600"/>
	<outline>
		<contour>
			<point x="389" y="683" type="line"/>
			<point x="233" y="683" type="line"/>
			<point x="233" y="-56" type="line"/>
			<point x="389" y="-56" type="line"/>
		</contour>
		<contour>
			<point x="8" y="683" type="line"/>
			<point x="-148" y="683" type="line"/>
			<point x="-148" y="389" type="line"/>
			<point x="-1044" y="389" type="line"/>
			<point x="-1044" y="239" type="line"/>
			<point x="-148" y="239" type="line"/>
			<point x="-148" y="-56" type="line"/>
			<point x="8" y="-56" type="line"/>
		</contour>
	</outline>
</glyph>
<glyph name="hyphen_hyphen_greater.rem" format="2">
	<advance width="600"/>
	<outline>
		<contour>
			<point x="12" y="629" type="line"/>
			<point x="226" y="389" type="line"/>
			<point x="-1044" y="389" type="line"/>
			<point x="-1044" y="239" type="line"/>
			<point x="226" y="239" type="line"/>
			<point x="16" y="0" type="line"/>
			<point x="205" y="0" type="line"/>
			<point x="473" y="314" type="line"/>
			<point x="202" y="629" type="line"/>
		</contour>
	</outline>
</glyph>
<glyph name="hyphen_less_less.rem" format="2">
	<advance width="600"/>
	<outline>
		<contour>
			<point x="497" y="629" type="line"/>
			<point x="304" y="629" type="line"/>
			<point x="41" y="315" type="line"/>
			<point x="307" y="0" type="line"/>
			<point x="500" y="0" type="line"/>
			<point x="228" y="314" type="line"/>
		</contour>
		<contour>
			<point x="102" y="629" type="line"/>
			<point x="-90" y="629" type="line"/>
			<point x="-291" y="390" type="line"/>
			<point x="-1063" y="390" type="line"/>
			<point x="-1063" y="240" type="line"/>
			<point x="-290" y="240" type="line"/>
			<point x="-87" y="0" type="line"/>
			<point x="105" y="0" type="line"/>
			<point x="-163" y="314" type="line"/>
		</contour>
	</outline>
</glyph>
<glyph name="less_asciitilde_asciitilde.cLig" format="2">
	<advance width="600"/>
	<outline>
		<contour>
			<point x="-668" y="0" type="line"/>
			<point x="-881" y="240" type="line"/>
			<point x="-604" y="240" type="line"/>
			<point x="-571" y="196"/>
			<point x="-530" y="178"/>
			<point x="-490" y="178" type="curve" smooth="yes"/>
			<point x="-376" y="178"/>
			<point x="-362" y="300"/>
			<point x="-291" y="300" type="curve" smooth="yes"/>
			<point x="-220" y="300"/>
			<point x="-200" y="181"/>
			<point x="-93" y="181" type="curve" smooth="yes"/>
			<point x="16" y="181"/>
			<point x="34" y="300"/>
			<point x="104" y="300" type="curve"/>
			<point x="174" y="300"/>
			<point x="197" y="180"/>
			<point x="313" y="180" type="curve" smooth="yes"/>
			<point x="415" y="180"/>
			<point x="497" y="268"/>
			<point x="518" y="439" type="curve"/>
			<point x="388" y="439" type="line"/>
			<point x="378" y="378"/>
			<point x="352" y="335"/>
			<point x="303" y="335" type="curve" smooth="yes"/>
			<point x="238" y="335"/>
			<point x="217" y="451"/>
			<point x="104" y="451" type="curve"/>
			<point x="-10" y="451"/>
			<point x="-19" y="335"/>
			<point x="-91" y="335" type="curve" smooth="yes"/>
			<point x="-163" y="335"/>
			<point x="-172" y="451"/>
			<point x="-289" y="451" type="curve" smooth="yes"/>
			<point x="-399" y="451"/>
			<point x="-407" y="329"/>
			<point x="-479" y="329" type="curve" smooth="yes"/>
			<point x="-513" y="329"/>
			<point x="-530" y="350"/>
			<point x="-551" y="390" type="curve"/>
			<point x="-881" y="390" type="line"/>
			<point x="-671" y="629" type="line"/>
			<point x="-861" y="629" type="line"/>
			<point x="-1129" y="315" type="line"/>
			<point x="-858" y="0" type="line"/>
		</contour>
	</outline>
</glyph>
<glyph name="less_asterisk.cLig" format="2">
	<advance width="600"/>
	<outline>
		<contour>
			<point x="-49" y="-12" type="line"/>
			<point x="-49" y="148" type="line"/>
			<point x="-382" y="316" type="line"/>
			<point x="-49" y="483" type="line"/>
			<point x="-49" y="643" type="line"/>
			<point x="-500" y="407" type="line"/>
			<point x="-500" y="222" type="line"/>
		</contour>
		<contour>
			<point x="426" y="127" type="line"/>
			<point x="505" y="263" type="line"/>
			<point x="323" y="320" type="line"/>
			<point x="506" y="376" type="line"/>
			<point x="427" y="512" type="line"/>
			<point x="287" y="383" type="line"/>
			<point x="329" y="569" type="line"/>
			<point x="172" y="569" type="line"/>
			<point x="215" y="382" type="line"/>
			<point x="74" y="513" type="line"/>
			<point x="-5" y="377" type="line"/>
			<point x="178" y="320" type="line"/>
			<point x="-5" y="264" type="line"/>
			<point x="74" y="128" type="line"/>
			<point x="215" y="258" type="line"/>
			<point x="172" y="71" type="line"/>
			<point x="329" y="71" type="line"/>
			<point x="287" y="256" type="line"/>
		</contour>
	</outline>
</glyph>
<glyph name="less_bar_bar.cLig" format="2">
	<advance width="600"/>
	<outline>
		<contour>
			<point x="283" y="-79" type="line"/>
			<point x="283" y="708" type="line"/>
			<point x="126" y="708" type="line"/>
			<point x="126" y="-79" type="line"/>
		</contour>
		<contour>
			<point x="-277" y="708" type="line"/>
			<point x="-434" y="708" type="line"/>
			<point x="-948" y="407" type="line"/>
			<point x="-948" y="222" type="line"/>
			<point x="-434" y="-79" type="line"/>
			<point x="-277" y="-79" type="line"/>
		</contour>
		<contour>
			<point x="-434" y="97" type="line"/>
			<point x="-813" y="313" type="line"/>
			<point x="-434" y="533" type="line"/>
		</contour>
	</outline>
</glyph>
<glyph name="less_bar_bar_bar.cLig" format="2">
	<advance width="600"/>
	<outline>
		<contour>
			<point x="-297" y="708" type="line"/>
			<point x="-454" y="708" type="line"/>
			<point x="-454" y="-79" type="line"/>
			<point x="-297" y="-79" type="line"/>
		</contour>
		<contour>
			<point x="266" y="708" type="line"/>
			<point x="110" y="708" type="line"/>
			<point x="110" y="-79" type="line"/>
			<point x="266" y="-79" type="line"/>
		</contour>
		<contour>
			<point x="-861" y="708" type="line"/>
			<point x="-1017" y="708" type="line"/>
			<point x="-1531" y="407" type="line"/>
			<point x="-1531" y="222" type="line"/>
			<point x="-1017" y="-79" type="line"/>
			<point x="-861" y="-79" type="line"/>
		</contour>
		<contour>
			<point x="-1017" y="97" type="line"/>
			<point x="-1397" y="313" type="line"/>
			<point x="-1017" y="533" type="line"/>
		</contour>
	</outline>
</glyph>
